G75*
%MOIN*%
%OFA0B0*%
%FSLAX25Y25*%
%IPPOS*%
%LPD*%
%AMOC8*
5,1,8,0,0,1.08239X$1,22.5*
%
%ADD10OC8,0.07100*%
%ADD11C,0.07100*%
%ADD12C,0.06800*%
%ADD13C,0.06400*%
%ADD14C,0.04769*%
%ADD15OC8,0.08300*%
%ADD16OC8,0.06000*%
%ADD17C,0.04343*%
%ADD18C,0.08600*%
%ADD19C,0.06800*%
%ADD20OC8,0.06800*%
%ADD21C,0.08674*%
%ADD22C,0.06000*%
%ADD23C,0.04800*%
%ADD24OC8,0.04800*%
D10*
X0286833Y0083167D03*
D11*
X0296833Y0083167D03*
D12*
X0291833Y0017167D02*
X0291833Y0011167D01*
X0281833Y0011167D02*
X0281833Y0017167D01*
X0301833Y0017167D02*
X0301833Y0011167D01*
X0316333Y0011167D02*
X0316333Y0017167D01*
X0326333Y0017167D02*
X0326333Y0011167D01*
X0336333Y0011167D02*
X0336333Y0017167D01*
X0346333Y0017167D02*
X0346333Y0011167D01*
X0356333Y0011167D02*
X0356333Y0017167D01*
X0366333Y0017167D02*
X0366333Y0011167D01*
X0376333Y0011167D02*
X0376333Y0017167D01*
X0386333Y0017167D02*
X0386333Y0011167D01*
X0401833Y0011167D02*
X0401833Y0017167D01*
X0411833Y0017167D02*
X0411833Y0011167D01*
X0421833Y0011167D02*
X0421833Y0017167D01*
X0431833Y0017167D02*
X0431833Y0011167D01*
X0441833Y0011167D02*
X0441833Y0017167D01*
X0451833Y0017167D02*
X0451833Y0011167D01*
X0465333Y0065167D02*
X0471333Y0065167D01*
X0471333Y0075167D02*
X0465333Y0075167D01*
X0465333Y0085167D02*
X0471333Y0085167D01*
X0471333Y0095167D02*
X0465333Y0095167D01*
X0465333Y0105167D02*
X0471333Y0105167D01*
X0471333Y0115167D02*
X0465333Y0115167D01*
X0465333Y0125167D02*
X0471333Y0125167D01*
X0471333Y0135167D02*
X0465333Y0135167D01*
X0465333Y0145167D02*
X0471333Y0145167D01*
X0471333Y0155167D02*
X0465333Y0155167D01*
X0465333Y0165167D02*
X0471333Y0165167D01*
X0471333Y0175167D02*
X0465333Y0175167D01*
X0465333Y0185167D02*
X0471333Y0185167D01*
X0471333Y0195167D02*
X0465333Y0195167D01*
X0465333Y0205167D02*
X0471333Y0205167D01*
X0471333Y0215167D02*
X0465333Y0215167D01*
X0446333Y0131667D02*
X0440333Y0131667D01*
X0440333Y0121667D02*
X0446333Y0121667D01*
X0446333Y0111667D02*
X0440333Y0111667D01*
X0440333Y0101667D02*
X0446333Y0101667D01*
X0446333Y0091667D02*
X0440333Y0091667D01*
X0440333Y0081667D02*
X0446333Y0081667D01*
X0446333Y0071667D02*
X0440333Y0071667D01*
X0199633Y0106767D02*
X0193633Y0106767D01*
X0193633Y0124567D02*
X0199633Y0124567D01*
X0174033Y0124567D02*
X0168033Y0124567D01*
X0168033Y0106767D02*
X0174033Y0106767D01*
X0133333Y0137167D02*
X0127333Y0137167D01*
X0127333Y0147167D02*
X0133333Y0147167D01*
X0133333Y0157167D02*
X0127333Y0157167D01*
X0127333Y0167167D02*
X0133333Y0167167D01*
X0133333Y0177167D02*
X0127333Y0177167D01*
X0106433Y0164467D02*
X0106433Y0158467D01*
X0106433Y0142867D02*
X0106433Y0136867D01*
X0106433Y0123467D02*
X0106433Y0117467D01*
X0106433Y0101867D02*
X0106433Y0095867D01*
X0106933Y0084467D02*
X0106933Y0078467D01*
X0106933Y0062867D02*
X0106933Y0056867D01*
X0105933Y0177367D02*
X0105933Y0183367D01*
X0105933Y0198967D02*
X0105933Y0204967D01*
X0105933Y0214867D02*
X0105933Y0220867D01*
X0105933Y0236467D02*
X0105933Y0242467D01*
X0229333Y0308167D02*
X0229333Y0314167D01*
X0239333Y0314167D02*
X0239333Y0308167D01*
X0249333Y0308167D02*
X0249333Y0314167D01*
X0259333Y0314167D02*
X0259333Y0308167D01*
X0269333Y0308167D02*
X0269333Y0314167D01*
X0282333Y0314167D02*
X0282333Y0308167D01*
X0292333Y0308167D02*
X0292333Y0314167D01*
X0302333Y0314167D02*
X0302333Y0308167D01*
X0312333Y0308167D02*
X0312333Y0314167D01*
X0322333Y0314167D02*
X0322333Y0308167D01*
X0332333Y0308167D02*
X0332333Y0314167D01*
X0342333Y0314167D02*
X0342333Y0308167D01*
X0352333Y0308167D02*
X0352333Y0314167D01*
X0362333Y0314167D02*
X0362333Y0308167D01*
X0372333Y0308167D02*
X0372333Y0314167D01*
X0386333Y0314667D02*
X0386333Y0308667D01*
X0396333Y0308667D02*
X0396333Y0314667D01*
X0406333Y0314667D02*
X0406333Y0308667D01*
X0416333Y0308667D02*
X0416333Y0314667D01*
X0426333Y0314667D02*
X0426333Y0308667D01*
X0436333Y0308667D02*
X0436333Y0314667D01*
X0446333Y0314667D02*
X0446333Y0308667D01*
X0456333Y0308667D02*
X0456333Y0314667D01*
D13*
X0134133Y0233667D02*
X0128533Y0233667D01*
X0128533Y0223667D02*
X0134133Y0223667D01*
X0134133Y0213667D02*
X0128533Y0213667D01*
X0111833Y0254867D02*
X0111833Y0260467D01*
X0101833Y0260467D02*
X0101833Y0254867D01*
D14*
X0287471Y0047592D03*
X0292196Y0047592D03*
D15*
X0322333Y0056167D03*
X0340333Y0056167D03*
D16*
X0343333Y0097167D03*
X0338333Y0104667D03*
X0348333Y0104667D03*
D17*
X0110833Y0287005D03*
X0110833Y0304328D03*
D18*
X0248333Y0086567D02*
X0248333Y0078767D01*
X0268333Y0078767D02*
X0268333Y0086567D01*
X0262233Y0042667D02*
X0254433Y0042667D01*
X0401933Y0195167D02*
X0409733Y0195167D01*
X0409733Y0215167D02*
X0401933Y0215167D01*
X0445833Y0209067D02*
X0445833Y0201267D01*
D19*
X0173333Y0145667D03*
D20*
X0183333Y0145667D03*
X0193333Y0145667D03*
X0193333Y0155667D03*
X0183333Y0155667D03*
X0173333Y0155667D03*
D21*
X0093522Y0034604D02*
X0093522Y0026730D01*
X0101396Y0011769D02*
X0109270Y0011769D01*
X0117538Y0026730D02*
X0117538Y0034604D01*
D22*
X0288833Y0142067D02*
X0288833Y0147267D01*
X0298833Y0147267D02*
X0298833Y0142067D01*
X0308833Y0142067D02*
X0308833Y0147267D01*
X0318833Y0147267D02*
X0318833Y0142067D01*
X0328833Y0142067D02*
X0328833Y0147267D01*
X0338833Y0147267D02*
X0338833Y0142067D01*
X0348833Y0142067D02*
X0348833Y0147267D01*
X0358833Y0147267D02*
X0358833Y0142067D01*
X0368833Y0142067D02*
X0368833Y0147267D01*
X0378833Y0147267D02*
X0378833Y0142067D01*
X0388833Y0142067D02*
X0388833Y0147267D01*
X0398833Y0147267D02*
X0398833Y0142067D01*
X0408833Y0142067D02*
X0408833Y0147267D01*
X0418833Y0147267D02*
X0418833Y0142067D01*
X0418833Y0172067D02*
X0418833Y0177267D01*
X0408833Y0177267D02*
X0408833Y0172067D01*
X0398833Y0172067D02*
X0398833Y0177267D01*
X0388833Y0177267D02*
X0388833Y0172067D01*
X0378833Y0172067D02*
X0378833Y0177267D01*
X0368833Y0177267D02*
X0368833Y0172067D01*
X0358833Y0172067D02*
X0358833Y0177267D01*
X0348833Y0177267D02*
X0348833Y0172067D01*
X0338833Y0172067D02*
X0338833Y0177267D01*
X0328833Y0177267D02*
X0328833Y0172067D01*
X0318833Y0172067D02*
X0318833Y0177267D01*
X0308833Y0177267D02*
X0308833Y0172067D01*
X0298833Y0172067D02*
X0298833Y0177267D01*
X0288833Y0177267D02*
X0288833Y0172067D01*
D23*
X0303333Y0151667D03*
X0335833Y0126667D03*
X0330833Y0114167D03*
X0312083Y0110417D03*
X0318333Y0092917D03*
X0304583Y0092917D03*
X0294583Y0096667D03*
X0329583Y0054167D03*
X0354583Y0072917D03*
X0353333Y0109167D03*
X0313333Y0192917D03*
X0323333Y0209167D03*
X0328333Y0227917D03*
X0338333Y0244167D03*
X0342083Y0264167D03*
X0345833Y0267917D03*
X0354583Y0260417D03*
X0364583Y0244167D03*
X0314583Y0267917D03*
X0309583Y0266667D03*
X0313333Y0276667D03*
X0297083Y0276667D03*
X0298333Y0284167D03*
X0287083Y0289167D03*
X0295833Y0252917D03*
X0293333Y0245417D03*
X0313333Y0245417D03*
X0267083Y0214167D03*
X0259583Y0221667D03*
X0250833Y0210417D03*
X0233333Y0196667D03*
X0244583Y0189167D03*
X0248333Y0185417D03*
X0244583Y0177917D03*
X0222083Y0150417D03*
X0242083Y0142917D03*
X0252083Y0139167D03*
X0198333Y0112917D03*
X0197083Y0080417D03*
X0205833Y0066667D03*
X0190833Y0061667D03*
X0165833Y0091667D03*
X0163333Y0165417D03*
X0177083Y0176667D03*
X0165833Y0186667D03*
X0138333Y0185417D03*
X0158333Y0214167D03*
X0162083Y0222917D03*
X0170833Y0226667D03*
X0145833Y0232917D03*
X0145833Y0254167D03*
X0163333Y0269167D03*
X0138333Y0287917D03*
X0148333Y0297917D03*
X0153333Y0306667D03*
X0202083Y0270417D03*
X0212083Y0286667D03*
X0223333Y0285417D03*
X0218333Y0262917D03*
X0240833Y0246667D03*
X0228333Y0232917D03*
X0263333Y0250417D03*
X0247083Y0267917D03*
X0100833Y0286667D03*
X0443333Y0219167D03*
X0458333Y0215417D03*
D24*
X0343333Y0028167D03*
X0325833Y0030917D03*
X0318833Y0025167D03*
X0194333Y0048667D03*
X0141333Y0074667D03*
X0131333Y0064667D03*
X0131833Y0014667D03*
X0132333Y0266167D03*
X0154833Y0270667D03*
M02*
