G75*
%MOIN*%
%OFA0B0*%
%FSLAX25Y25*%
%IPPOS*%
%LPD*%
%AMOC8*
5,1,8,0,0,1.08239X$1,22.5*
%
%ADD10C,0.00000*%
%ADD11R,0.04331X0.03937*%
%ADD12OC8,0.06300*%
%ADD13C,0.06300*%
%ADD14R,0.03937X0.04331*%
%ADD15R,0.05512X0.06299*%
%ADD16R,0.06299X0.05512*%
%ADD17R,0.11811X0.05512*%
%ADD18R,0.05000X0.05787*%
%ADD19C,0.06000*%
%ADD20R,0.03937X0.07087*%
%ADD21R,0.03200X0.06000*%
%ADD22R,0.12300X0.07500*%
%ADD23C,0.05600*%
%ADD24R,0.05512X0.04724*%
%ADD25R,0.04724X0.05512*%
%ADD26R,0.04724X0.04724*%
%ADD27C,0.03969*%
%ADD28R,0.03543X0.03150*%
%ADD29R,0.02756X0.02756*%
%ADD30OC8,0.07500*%
%ADD31OC8,0.05200*%
%ADD32C,0.05000*%
%ADD33R,0.09843X0.01969*%
%ADD34R,0.09843X0.07874*%
%ADD35C,0.07800*%
%ADD36R,0.01500X0.04500*%
%ADD37R,0.02165X0.04724*%
%ADD38R,0.06693X0.02756*%
%ADD39C,0.06000*%
%ADD40OC8,0.06000*%
%ADD41C,0.00500*%
%ADD42C,0.07874*%
%ADD43C,0.05200*%
%ADD44C,0.01500*%
%ADD45C,0.04000*%
%ADD46C,0.03000*%
%ADD47OC8,0.04000*%
%ADD48C,0.01600*%
%ADD49C,0.02000*%
D10*
X0085833Y0004167D02*
X0085833Y0325627D01*
X0479534Y0325627D01*
X0479534Y0004167D01*
X0085833Y0004167D01*
X0109061Y0287005D02*
X0109063Y0287089D01*
X0109069Y0287172D01*
X0109079Y0287255D01*
X0109093Y0287338D01*
X0109110Y0287420D01*
X0109132Y0287501D01*
X0109157Y0287580D01*
X0109186Y0287659D01*
X0109219Y0287736D01*
X0109255Y0287811D01*
X0109295Y0287885D01*
X0109338Y0287957D01*
X0109385Y0288026D01*
X0109435Y0288093D01*
X0109488Y0288158D01*
X0109544Y0288220D01*
X0109602Y0288280D01*
X0109664Y0288337D01*
X0109728Y0288390D01*
X0109795Y0288441D01*
X0109864Y0288488D01*
X0109935Y0288533D01*
X0110008Y0288573D01*
X0110083Y0288610D01*
X0110160Y0288644D01*
X0110238Y0288674D01*
X0110317Y0288700D01*
X0110398Y0288723D01*
X0110480Y0288741D01*
X0110562Y0288756D01*
X0110645Y0288767D01*
X0110728Y0288774D01*
X0110812Y0288777D01*
X0110896Y0288776D01*
X0110979Y0288771D01*
X0111063Y0288762D01*
X0111145Y0288749D01*
X0111227Y0288733D01*
X0111308Y0288712D01*
X0111389Y0288688D01*
X0111467Y0288660D01*
X0111545Y0288628D01*
X0111621Y0288592D01*
X0111695Y0288553D01*
X0111767Y0288511D01*
X0111837Y0288465D01*
X0111905Y0288416D01*
X0111970Y0288364D01*
X0112033Y0288309D01*
X0112093Y0288251D01*
X0112151Y0288190D01*
X0112205Y0288126D01*
X0112257Y0288060D01*
X0112305Y0287992D01*
X0112350Y0287921D01*
X0112391Y0287848D01*
X0112430Y0287774D01*
X0112464Y0287698D01*
X0112495Y0287620D01*
X0112522Y0287541D01*
X0112546Y0287460D01*
X0112565Y0287379D01*
X0112581Y0287297D01*
X0112593Y0287214D01*
X0112601Y0287130D01*
X0112605Y0287047D01*
X0112605Y0286963D01*
X0112601Y0286880D01*
X0112593Y0286796D01*
X0112581Y0286713D01*
X0112565Y0286631D01*
X0112546Y0286550D01*
X0112522Y0286469D01*
X0112495Y0286390D01*
X0112464Y0286312D01*
X0112430Y0286236D01*
X0112391Y0286162D01*
X0112350Y0286089D01*
X0112305Y0286018D01*
X0112257Y0285950D01*
X0112205Y0285884D01*
X0112151Y0285820D01*
X0112093Y0285759D01*
X0112033Y0285701D01*
X0111970Y0285646D01*
X0111905Y0285594D01*
X0111837Y0285545D01*
X0111767Y0285499D01*
X0111695Y0285457D01*
X0111621Y0285418D01*
X0111545Y0285382D01*
X0111467Y0285350D01*
X0111389Y0285322D01*
X0111308Y0285298D01*
X0111227Y0285277D01*
X0111145Y0285261D01*
X0111063Y0285248D01*
X0110979Y0285239D01*
X0110896Y0285234D01*
X0110812Y0285233D01*
X0110728Y0285236D01*
X0110645Y0285243D01*
X0110562Y0285254D01*
X0110480Y0285269D01*
X0110398Y0285287D01*
X0110317Y0285310D01*
X0110238Y0285336D01*
X0110160Y0285366D01*
X0110083Y0285400D01*
X0110008Y0285437D01*
X0109935Y0285477D01*
X0109864Y0285522D01*
X0109795Y0285569D01*
X0109728Y0285620D01*
X0109664Y0285673D01*
X0109602Y0285730D01*
X0109544Y0285790D01*
X0109488Y0285852D01*
X0109435Y0285917D01*
X0109385Y0285984D01*
X0109338Y0286053D01*
X0109295Y0286125D01*
X0109255Y0286199D01*
X0109219Y0286274D01*
X0109186Y0286351D01*
X0109157Y0286430D01*
X0109132Y0286509D01*
X0109110Y0286590D01*
X0109093Y0286672D01*
X0109079Y0286755D01*
X0109069Y0286838D01*
X0109063Y0286921D01*
X0109061Y0287005D01*
X0109061Y0304328D02*
X0109063Y0304412D01*
X0109069Y0304495D01*
X0109079Y0304578D01*
X0109093Y0304661D01*
X0109110Y0304743D01*
X0109132Y0304824D01*
X0109157Y0304903D01*
X0109186Y0304982D01*
X0109219Y0305059D01*
X0109255Y0305134D01*
X0109295Y0305208D01*
X0109338Y0305280D01*
X0109385Y0305349D01*
X0109435Y0305416D01*
X0109488Y0305481D01*
X0109544Y0305543D01*
X0109602Y0305603D01*
X0109664Y0305660D01*
X0109728Y0305713D01*
X0109795Y0305764D01*
X0109864Y0305811D01*
X0109935Y0305856D01*
X0110008Y0305896D01*
X0110083Y0305933D01*
X0110160Y0305967D01*
X0110238Y0305997D01*
X0110317Y0306023D01*
X0110398Y0306046D01*
X0110480Y0306064D01*
X0110562Y0306079D01*
X0110645Y0306090D01*
X0110728Y0306097D01*
X0110812Y0306100D01*
X0110896Y0306099D01*
X0110979Y0306094D01*
X0111063Y0306085D01*
X0111145Y0306072D01*
X0111227Y0306056D01*
X0111308Y0306035D01*
X0111389Y0306011D01*
X0111467Y0305983D01*
X0111545Y0305951D01*
X0111621Y0305915D01*
X0111695Y0305876D01*
X0111767Y0305834D01*
X0111837Y0305788D01*
X0111905Y0305739D01*
X0111970Y0305687D01*
X0112033Y0305632D01*
X0112093Y0305574D01*
X0112151Y0305513D01*
X0112205Y0305449D01*
X0112257Y0305383D01*
X0112305Y0305315D01*
X0112350Y0305244D01*
X0112391Y0305171D01*
X0112430Y0305097D01*
X0112464Y0305021D01*
X0112495Y0304943D01*
X0112522Y0304864D01*
X0112546Y0304783D01*
X0112565Y0304702D01*
X0112581Y0304620D01*
X0112593Y0304537D01*
X0112601Y0304453D01*
X0112605Y0304370D01*
X0112605Y0304286D01*
X0112601Y0304203D01*
X0112593Y0304119D01*
X0112581Y0304036D01*
X0112565Y0303954D01*
X0112546Y0303873D01*
X0112522Y0303792D01*
X0112495Y0303713D01*
X0112464Y0303635D01*
X0112430Y0303559D01*
X0112391Y0303485D01*
X0112350Y0303412D01*
X0112305Y0303341D01*
X0112257Y0303273D01*
X0112205Y0303207D01*
X0112151Y0303143D01*
X0112093Y0303082D01*
X0112033Y0303024D01*
X0111970Y0302969D01*
X0111905Y0302917D01*
X0111837Y0302868D01*
X0111767Y0302822D01*
X0111695Y0302780D01*
X0111621Y0302741D01*
X0111545Y0302705D01*
X0111467Y0302673D01*
X0111389Y0302645D01*
X0111308Y0302621D01*
X0111227Y0302600D01*
X0111145Y0302584D01*
X0111063Y0302571D01*
X0110979Y0302562D01*
X0110896Y0302557D01*
X0110812Y0302556D01*
X0110728Y0302559D01*
X0110645Y0302566D01*
X0110562Y0302577D01*
X0110480Y0302592D01*
X0110398Y0302610D01*
X0110317Y0302633D01*
X0110238Y0302659D01*
X0110160Y0302689D01*
X0110083Y0302723D01*
X0110008Y0302760D01*
X0109935Y0302800D01*
X0109864Y0302845D01*
X0109795Y0302892D01*
X0109728Y0302943D01*
X0109664Y0302996D01*
X0109602Y0303053D01*
X0109544Y0303113D01*
X0109488Y0303175D01*
X0109435Y0303240D01*
X0109385Y0303307D01*
X0109338Y0303376D01*
X0109295Y0303448D01*
X0109255Y0303522D01*
X0109219Y0303597D01*
X0109186Y0303674D01*
X0109157Y0303753D01*
X0109132Y0303832D01*
X0109110Y0303913D01*
X0109093Y0303995D01*
X0109079Y0304078D01*
X0109069Y0304161D01*
X0109063Y0304244D01*
X0109061Y0304328D01*
D11*
X0150487Y0275667D03*
X0157180Y0275667D03*
X0158680Y0264667D03*
X0151987Y0264667D03*
X0152987Y0253667D03*
X0159680Y0253667D03*
X0159680Y0241167D03*
X0152987Y0241167D03*
X0156180Y0227667D03*
X0149487Y0227667D03*
X0198987Y0276167D03*
X0205680Y0276167D03*
X0167180Y0290167D03*
X0160487Y0290167D03*
X0160487Y0307667D03*
X0167180Y0307667D03*
X0252987Y0266667D03*
X0259680Y0266667D03*
X0269987Y0266667D03*
X0276680Y0266667D03*
X0276180Y0255667D03*
X0269487Y0255667D03*
X0259680Y0255167D03*
X0252987Y0255167D03*
X0318487Y0281667D03*
X0325180Y0281667D03*
X0324987Y0121167D03*
X0331680Y0121167D03*
X0342487Y0120167D03*
X0349180Y0120167D03*
X0323180Y0105167D03*
X0316487Y0105167D03*
X0200680Y0088667D03*
X0193987Y0088667D03*
X0194487Y0071167D03*
X0201180Y0071167D03*
X0157680Y0015167D03*
X0150987Y0015167D03*
D12*
X0286833Y0083167D03*
D13*
X0296833Y0083167D03*
D14*
X0221833Y0080820D03*
X0221833Y0087513D03*
X0152833Y0211320D03*
X0152833Y0218013D03*
X0138333Y0271320D03*
X0138333Y0278013D03*
X0181833Y0287320D03*
X0181833Y0294013D03*
X0217333Y0286013D03*
X0217333Y0279320D03*
X0229333Y0293320D03*
X0229333Y0300013D03*
X0239333Y0300013D03*
X0239333Y0293320D03*
X0249333Y0293320D03*
X0249333Y0300013D03*
X0259333Y0300013D03*
X0259333Y0293320D03*
X0269333Y0293320D03*
X0269333Y0300013D03*
X0282833Y0284513D03*
X0282833Y0277820D03*
X0234833Y0246513D03*
X0234833Y0239820D03*
D15*
X0179845Y0203667D03*
X0168822Y0203667D03*
X0171322Y0182167D03*
X0182345Y0182167D03*
D16*
X0196333Y0024678D03*
X0196333Y0013655D03*
D17*
X0155782Y0083167D03*
X0136885Y0083167D03*
D18*
X0134869Y0042667D03*
X0151798Y0042667D03*
D19*
X0106933Y0056867D02*
X0106933Y0062867D01*
X0106933Y0078467D02*
X0106933Y0084467D01*
X0106433Y0095867D02*
X0106433Y0101867D01*
X0106433Y0117467D02*
X0106433Y0123467D01*
X0106433Y0136867D02*
X0106433Y0142867D01*
X0106433Y0158467D02*
X0106433Y0164467D01*
X0105933Y0177367D02*
X0105933Y0183367D01*
X0105933Y0198967D02*
X0105933Y0204967D01*
X0105933Y0214867D02*
X0105933Y0220867D01*
X0105933Y0236467D02*
X0105933Y0242467D01*
X0127333Y0177167D02*
X0133333Y0177167D01*
X0133333Y0167167D02*
X0127333Y0167167D01*
X0127333Y0157167D02*
X0133333Y0157167D01*
X0133333Y0147167D02*
X0127333Y0147167D01*
X0127333Y0137167D02*
X0133333Y0137167D01*
X0168033Y0124567D02*
X0174033Y0124567D01*
X0174033Y0106767D02*
X0168033Y0106767D01*
X0193633Y0106767D02*
X0199633Y0106767D01*
X0199633Y0124567D02*
X0193633Y0124567D01*
X0281833Y0017167D02*
X0281833Y0011167D01*
X0291833Y0011167D02*
X0291833Y0017167D01*
X0301833Y0017167D02*
X0301833Y0011167D01*
X0316333Y0011167D02*
X0316333Y0017167D01*
X0326333Y0017167D02*
X0326333Y0011167D01*
X0336333Y0011167D02*
X0336333Y0017167D01*
X0346333Y0017167D02*
X0346333Y0011167D01*
X0356333Y0011167D02*
X0356333Y0017167D01*
X0366333Y0017167D02*
X0366333Y0011167D01*
X0376333Y0011167D02*
X0376333Y0017167D01*
X0386333Y0017167D02*
X0386333Y0011167D01*
X0401833Y0011167D02*
X0401833Y0017167D01*
X0411833Y0017167D02*
X0411833Y0011167D01*
X0421833Y0011167D02*
X0421833Y0017167D01*
X0431833Y0017167D02*
X0431833Y0011167D01*
X0441833Y0011167D02*
X0441833Y0017167D01*
X0451833Y0017167D02*
X0451833Y0011167D01*
X0465333Y0065167D02*
X0471333Y0065167D01*
X0471333Y0075167D02*
X0465333Y0075167D01*
X0465333Y0085167D02*
X0471333Y0085167D01*
X0471333Y0095167D02*
X0465333Y0095167D01*
X0465333Y0105167D02*
X0471333Y0105167D01*
X0471333Y0115167D02*
X0465333Y0115167D01*
X0465333Y0125167D02*
X0471333Y0125167D01*
X0471333Y0135167D02*
X0465333Y0135167D01*
X0465333Y0145167D02*
X0471333Y0145167D01*
X0471333Y0155167D02*
X0465333Y0155167D01*
X0465333Y0165167D02*
X0471333Y0165167D01*
X0471333Y0175167D02*
X0465333Y0175167D01*
X0465333Y0185167D02*
X0471333Y0185167D01*
X0471333Y0195167D02*
X0465333Y0195167D01*
X0465333Y0205167D02*
X0471333Y0205167D01*
X0471333Y0215167D02*
X0465333Y0215167D01*
X0446333Y0131667D02*
X0440333Y0131667D01*
X0440333Y0121667D02*
X0446333Y0121667D01*
X0446333Y0111667D02*
X0440333Y0111667D01*
X0440333Y0101667D02*
X0446333Y0101667D01*
X0446333Y0091667D02*
X0440333Y0091667D01*
X0440333Y0081667D02*
X0446333Y0081667D01*
X0446333Y0071667D02*
X0440333Y0071667D01*
X0436333Y0308667D02*
X0436333Y0314667D01*
X0426333Y0314667D02*
X0426333Y0308667D01*
X0416333Y0308667D02*
X0416333Y0314667D01*
X0406333Y0314667D02*
X0406333Y0308667D01*
X0396333Y0308667D02*
X0396333Y0314667D01*
X0386333Y0314667D02*
X0386333Y0308667D01*
X0372333Y0308167D02*
X0372333Y0314167D01*
X0362333Y0314167D02*
X0362333Y0308167D01*
X0352333Y0308167D02*
X0352333Y0314167D01*
X0342333Y0314167D02*
X0342333Y0308167D01*
X0332333Y0308167D02*
X0332333Y0314167D01*
X0322333Y0314167D02*
X0322333Y0308167D01*
X0312333Y0308167D02*
X0312333Y0314167D01*
X0302333Y0314167D02*
X0302333Y0308167D01*
X0292333Y0308167D02*
X0292333Y0314167D01*
X0282333Y0314167D02*
X0282333Y0308167D01*
X0269333Y0308167D02*
X0269333Y0314167D01*
X0259333Y0314167D02*
X0259333Y0308167D01*
X0249333Y0308167D02*
X0249333Y0314167D01*
X0239333Y0314167D02*
X0239333Y0308167D01*
X0229333Y0308167D02*
X0229333Y0314167D01*
X0446333Y0314667D02*
X0446333Y0308667D01*
X0456333Y0308667D02*
X0456333Y0314667D01*
D20*
X0148345Y0307167D03*
X0137322Y0307167D03*
D21*
X0167823Y0060556D03*
X0176833Y0060556D03*
X0185773Y0060556D03*
D22*
X0176833Y0037167D03*
D23*
X0134133Y0213667D02*
X0128533Y0213667D01*
X0128533Y0223667D02*
X0134133Y0223667D01*
X0134133Y0233667D02*
X0128533Y0233667D01*
X0111833Y0254867D02*
X0111833Y0260467D01*
X0101833Y0260467D02*
X0101833Y0254867D01*
D24*
X0285333Y0228072D03*
X0285333Y0216261D03*
D25*
X0219739Y0223667D03*
X0207928Y0223667D03*
X0194239Y0223667D03*
X0182428Y0223667D03*
X0182239Y0085167D03*
X0170428Y0085167D03*
D26*
X0228833Y0278033D03*
X0228833Y0286301D03*
X0239333Y0286301D03*
X0239333Y0278033D03*
X0248833Y0278033D03*
X0248833Y0286301D03*
X0259333Y0286301D03*
X0259333Y0278033D03*
X0269333Y0278033D03*
X0269333Y0286301D03*
D27*
X0287471Y0047592D03*
X0292196Y0047592D03*
D28*
X0219770Y0064427D03*
X0219770Y0071907D03*
X0211503Y0068167D03*
D29*
X0202392Y0307525D03*
X0197274Y0307525D03*
X0199833Y0314808D03*
D30*
X0322333Y0056167D03*
X0340333Y0056167D03*
D31*
X0343333Y0097167D03*
X0338333Y0104667D03*
X0348333Y0104667D03*
D32*
X0154333Y0125667D03*
X0154333Y0135667D03*
X0154333Y0145667D03*
X0154333Y0155667D03*
X0154333Y0165667D03*
X0153333Y0174667D03*
D33*
X0120676Y0289367D03*
X0120676Y0292517D03*
X0120676Y0295667D03*
X0120676Y0298816D03*
X0120676Y0301966D03*
D34*
X0120676Y0313383D03*
X0099022Y0313383D03*
X0099022Y0277950D03*
X0120676Y0277950D03*
D35*
X0248333Y0086567D02*
X0248333Y0078767D01*
X0268333Y0078767D02*
X0268333Y0086567D01*
X0262233Y0042667D02*
X0254433Y0042667D01*
X0401933Y0195167D02*
X0409733Y0195167D01*
X0409733Y0215167D02*
X0401933Y0215167D01*
X0445833Y0209067D02*
X0445833Y0201267D01*
D36*
X0259583Y0195117D03*
X0257083Y0195117D03*
X0254583Y0195117D03*
X0252083Y0195117D03*
X0249583Y0195117D03*
X0247083Y0195117D03*
X0244583Y0195117D03*
X0242083Y0195117D03*
X0239583Y0195117D03*
X0237083Y0195117D03*
X0237083Y0216217D03*
X0239583Y0216217D03*
X0242083Y0216217D03*
X0244583Y0216217D03*
X0247083Y0216217D03*
X0249583Y0216217D03*
X0252083Y0216217D03*
X0254583Y0216217D03*
X0257083Y0216217D03*
X0259583Y0216217D03*
D37*
X0183573Y0308548D03*
X0179833Y0308548D03*
X0176093Y0308548D03*
X0176093Y0318785D03*
X0183573Y0318785D03*
D38*
X0286333Y0250391D03*
X0286333Y0245667D03*
X0286333Y0240942D03*
D39*
X0173333Y0145667D03*
D40*
X0183333Y0145667D03*
X0193333Y0145667D03*
X0193333Y0155667D03*
X0183333Y0155667D03*
X0173333Y0155667D03*
D41*
X0119333Y0037167D02*
X0115833Y0037167D01*
X0115833Y0024167D01*
X0119333Y0024167D01*
X0119333Y0037167D01*
X0095333Y0036167D02*
X0095333Y0025167D01*
X0091333Y0025167D01*
X0091333Y0036167D01*
X0095333Y0036167D01*
X0099833Y0013667D02*
X0110833Y0013667D01*
X0110833Y0009667D01*
X0099833Y0009667D01*
X0099833Y0013667D01*
D42*
X0101396Y0011769D02*
X0109270Y0011769D01*
X0117538Y0026730D02*
X0117538Y0034604D01*
X0093522Y0034604D02*
X0093522Y0026730D01*
D43*
X0288833Y0142067D02*
X0288833Y0147267D01*
X0298833Y0147267D02*
X0298833Y0142067D01*
X0308833Y0142067D02*
X0308833Y0147267D01*
X0318833Y0147267D02*
X0318833Y0142067D01*
X0328833Y0142067D02*
X0328833Y0147267D01*
X0338833Y0147267D02*
X0338833Y0142067D01*
X0348833Y0142067D02*
X0348833Y0147267D01*
X0358833Y0147267D02*
X0358833Y0142067D01*
X0368833Y0142067D02*
X0368833Y0147267D01*
X0378833Y0147267D02*
X0378833Y0142067D01*
X0388833Y0142067D02*
X0388833Y0147267D01*
X0398833Y0147267D02*
X0398833Y0142067D01*
X0408833Y0142067D02*
X0408833Y0147267D01*
X0418833Y0147267D02*
X0418833Y0142067D01*
X0418833Y0172067D02*
X0418833Y0177267D01*
X0408833Y0177267D02*
X0408833Y0172067D01*
X0398833Y0172067D02*
X0398833Y0177267D01*
X0388833Y0177267D02*
X0388833Y0172067D01*
X0378833Y0172067D02*
X0378833Y0177267D01*
X0368833Y0177267D02*
X0368833Y0172067D01*
X0358833Y0172067D02*
X0358833Y0177267D01*
X0348833Y0177267D02*
X0348833Y0172067D01*
X0338833Y0172067D02*
X0338833Y0177267D01*
X0328833Y0177267D02*
X0328833Y0172067D01*
X0318833Y0172067D02*
X0318833Y0177267D01*
X0308833Y0177267D02*
X0308833Y0172067D01*
X0298833Y0172067D02*
X0298833Y0177267D01*
X0288833Y0177267D02*
X0288833Y0172067D01*
D44*
X0293333Y0179167D02*
X0293333Y0140417D01*
X0297083Y0136667D01*
X0320833Y0136667D01*
X0328833Y0144667D01*
X0332083Y0151667D02*
X0338333Y0145417D01*
X0338833Y0144667D01*
X0343333Y0139167D02*
X0343333Y0159167D01*
X0353333Y0169167D01*
X0353333Y0249167D01*
X0363333Y0259167D01*
X0363333Y0310417D01*
X0362333Y0311167D01*
X0357083Y0316667D02*
X0357083Y0270417D01*
X0360833Y0266667D01*
X0360833Y0260417D01*
X0328333Y0227917D01*
X0338333Y0244167D02*
X0314583Y0267917D01*
X0312083Y0271667D02*
X0328333Y0271667D01*
X0339583Y0260417D01*
X0354583Y0260417D01*
X0349583Y0265417D02*
X0348333Y0264167D01*
X0343333Y0264167D01*
X0342083Y0265417D01*
X0342083Y0264167D01*
X0342083Y0265417D02*
X0325833Y0281667D01*
X0325180Y0281667D01*
X0328333Y0285417D02*
X0302083Y0285417D01*
X0302083Y0275417D01*
X0289583Y0262917D01*
X0273333Y0262917D01*
X0270833Y0265417D01*
X0270833Y0266667D01*
X0269987Y0266667D01*
X0269583Y0262917D02*
X0264583Y0262917D01*
X0260833Y0266667D01*
X0259680Y0266667D01*
X0260833Y0266667D02*
X0257083Y0262917D01*
X0253333Y0262917D01*
X0248333Y0257917D01*
X0248333Y0252917D01*
X0242083Y0246667D01*
X0240833Y0246667D01*
X0242083Y0246667D02*
X0235833Y0240417D01*
X0234833Y0239820D01*
X0230833Y0236667D02*
X0232083Y0235417D01*
X0252083Y0235417D01*
X0252083Y0254167D01*
X0252987Y0255167D01*
X0259680Y0255167D02*
X0260833Y0255417D01*
X0263333Y0255417D01*
X0263333Y0250417D01*
X0263333Y0255417D02*
X0268333Y0255417D01*
X0269487Y0255667D01*
X0275833Y0256667D02*
X0269583Y0262917D01*
X0276680Y0266667D02*
X0277083Y0266667D01*
X0273333Y0270417D01*
X0277083Y0274167D01*
X0277083Y0285417D01*
X0287083Y0295417D01*
X0287083Y0316667D01*
X0289583Y0319167D01*
X0304583Y0319167D01*
X0312083Y0311667D01*
X0312333Y0311167D01*
X0302333Y0311167D02*
X0302083Y0310417D01*
X0302083Y0285417D01*
X0298333Y0284167D02*
X0293333Y0289167D01*
X0293333Y0310417D01*
X0292333Y0311167D01*
X0274583Y0316667D02*
X0274583Y0275417D01*
X0272083Y0272917D01*
X0252083Y0272917D01*
X0247083Y0267917D01*
X0235833Y0256667D01*
X0235833Y0246667D01*
X0234833Y0246513D01*
X0230833Y0236667D02*
X0230833Y0277917D01*
X0228833Y0278033D01*
X0229583Y0277917D01*
X0230833Y0277917D01*
X0238333Y0277917D01*
X0239333Y0278033D01*
X0239583Y0277917D01*
X0248333Y0277917D01*
X0248833Y0278033D01*
X0249583Y0277917D01*
X0258333Y0277917D01*
X0259333Y0278033D01*
X0259583Y0277917D01*
X0268333Y0277917D01*
X0269333Y0278033D01*
X0273333Y0270417D02*
X0255833Y0270417D01*
X0253333Y0267917D01*
X0253333Y0266667D01*
X0252987Y0266667D01*
X0248833Y0286301D02*
X0249583Y0286667D01*
X0249583Y0292917D01*
X0249333Y0293320D01*
X0249333Y0300013D02*
X0249583Y0300417D01*
X0249583Y0310417D01*
X0249333Y0311167D01*
X0239583Y0310417D02*
X0239583Y0300417D01*
X0239333Y0300013D01*
X0239333Y0293320D02*
X0239583Y0292917D01*
X0239583Y0286667D01*
X0239333Y0286301D01*
X0229583Y0286667D02*
X0229583Y0292917D01*
X0229333Y0293320D01*
X0229333Y0300013D02*
X0229583Y0300417D01*
X0229583Y0310417D01*
X0229333Y0311167D01*
X0223333Y0315417D02*
X0227083Y0319167D01*
X0272083Y0319167D01*
X0274583Y0316667D01*
X0269333Y0311167D02*
X0269583Y0310417D01*
X0269583Y0300417D01*
X0269333Y0300013D01*
X0269333Y0293320D02*
X0269583Y0292917D01*
X0269583Y0286667D01*
X0269333Y0286301D01*
X0259583Y0286667D02*
X0259583Y0292917D01*
X0259333Y0293320D01*
X0259333Y0300013D02*
X0259583Y0300417D01*
X0259583Y0310417D01*
X0259333Y0311167D01*
X0239583Y0310417D02*
X0239333Y0311167D01*
X0223333Y0315417D02*
X0200833Y0315417D01*
X0199833Y0314808D01*
X0200833Y0311667D02*
X0197083Y0307917D01*
X0197274Y0307525D01*
X0198333Y0306667D01*
X0198333Y0276667D01*
X0198987Y0276167D01*
X0203333Y0277917D02*
X0204583Y0276667D01*
X0205680Y0276167D01*
X0205833Y0275417D01*
X0218333Y0262917D01*
X0228333Y0259167D02*
X0228333Y0232917D01*
X0223333Y0231667D02*
X0202083Y0231667D01*
X0194583Y0224167D01*
X0194239Y0223667D01*
X0202083Y0217917D02*
X0207083Y0222917D01*
X0207928Y0223667D01*
X0214583Y0226667D02*
X0214583Y0220417D01*
X0228333Y0206667D01*
X0243333Y0206667D01*
X0249583Y0200417D01*
X0249583Y0195117D01*
X0247083Y0195117D02*
X0247083Y0199167D01*
X0245833Y0200417D01*
X0229583Y0200417D01*
X0217083Y0212917D01*
X0180833Y0212917D01*
X0170833Y0222917D01*
X0162083Y0222917D01*
X0147083Y0222917D01*
X0142083Y0227917D01*
X0142083Y0275417D01*
X0140833Y0275417D01*
X0138333Y0277917D01*
X0138333Y0278013D01*
X0138333Y0287917D01*
X0148333Y0297917D02*
X0148333Y0306667D01*
X0148345Y0307167D01*
X0153333Y0306667D02*
X0159583Y0306667D01*
X0160487Y0307667D01*
X0162083Y0312917D02*
X0120833Y0312917D01*
X0120676Y0313383D01*
X0119583Y0312917D01*
X0120877Y0302167D02*
X0120676Y0301966D01*
X0120676Y0295667D02*
X0119583Y0295417D01*
X0109583Y0295417D01*
X0100833Y0286667D01*
X0097083Y0280417D02*
X0098333Y0279167D01*
X0099022Y0277950D01*
X0099583Y0277917D01*
X0119583Y0277917D02*
X0120676Y0277950D01*
X0120833Y0277917D01*
X0127083Y0271667D01*
X0133833Y0271667D01*
X0132333Y0270167D01*
X0132333Y0266167D01*
X0133833Y0271667D02*
X0138333Y0271667D01*
X0138333Y0271320D01*
X0138333Y0236667D01*
X0139583Y0235417D01*
X0139583Y0217917D01*
X0153333Y0204167D01*
X0168333Y0204167D01*
X0168822Y0203667D01*
X0169583Y0202917D01*
X0170833Y0201667D01*
X0170833Y0182917D01*
X0171322Y0182167D01*
X0170833Y0181667D01*
X0153333Y0181667D01*
X0148333Y0176667D01*
X0148333Y0151667D01*
X0154333Y0145667D01*
X0154583Y0145417D01*
X0173333Y0145417D01*
X0173333Y0145667D01*
X0170833Y0150417D02*
X0187083Y0150417D01*
X0193333Y0156667D01*
X0193333Y0155667D01*
X0193333Y0155417D01*
X0223333Y0155417D01*
X0239583Y0139167D01*
X0252083Y0139167D01*
X0242083Y0142917D02*
X0239583Y0142917D01*
X0222083Y0160417D01*
X0187083Y0160417D01*
X0183333Y0156667D01*
X0183333Y0155667D01*
X0183333Y0146667D02*
X0183333Y0145667D01*
X0183333Y0145417D01*
X0174583Y0136667D01*
X0154583Y0136667D01*
X0154333Y0135667D01*
X0145833Y0134167D02*
X0154333Y0125667D01*
X0153333Y0125417D01*
X0128333Y0100417D01*
X0128333Y0080417D01*
X0139583Y0069167D01*
X0139583Y0045417D01*
X0162083Y0022917D01*
X0158333Y0019167D01*
X0158333Y0015417D01*
X0157680Y0015167D01*
X0154583Y0010417D02*
X0150833Y0014167D01*
X0150987Y0015167D01*
X0154583Y0010417D02*
X0163333Y0010417D01*
X0217083Y0064167D01*
X0219583Y0064167D01*
X0219770Y0064427D01*
X0224583Y0061667D02*
X0250833Y0061667D01*
X0252083Y0062917D01*
X0252083Y0067917D01*
X0249583Y0070417D01*
X0222083Y0070417D01*
X0220833Y0071667D01*
X0219770Y0071907D01*
X0219583Y0071667D01*
X0217083Y0071667D01*
X0217083Y0082917D01*
X0220833Y0086667D01*
X0221833Y0087513D01*
X0222083Y0087917D01*
X0227083Y0082917D01*
X0248333Y0082917D01*
X0248333Y0082667D01*
X0245833Y0072917D02*
X0275833Y0072917D01*
X0287083Y0061667D01*
X0287083Y0047917D01*
X0287471Y0047592D01*
X0292083Y0046667D02*
X0288333Y0042917D01*
X0285833Y0042917D01*
X0273333Y0055417D01*
X0242083Y0055417D01*
X0212083Y0025417D01*
X0197083Y0025417D01*
X0196333Y0024678D01*
X0190833Y0021667D02*
X0190833Y0027917D01*
X0224583Y0061667D01*
X0217083Y0071667D02*
X0202083Y0071667D01*
X0201180Y0071167D01*
X0200833Y0070417D01*
X0197083Y0066667D01*
X0184583Y0066667D01*
X0179583Y0061667D01*
X0177083Y0061667D01*
X0176833Y0060556D01*
X0185773Y0060556D02*
X0185833Y0061667D01*
X0190833Y0061667D01*
X0194487Y0071167D02*
X0193333Y0071667D01*
X0183333Y0071667D01*
X0170833Y0084167D01*
X0170428Y0085167D01*
X0172083Y0091667D02*
X0165833Y0091667D01*
X0172083Y0091667D02*
X0177083Y0086667D01*
X0177083Y0081667D01*
X0178333Y0080417D01*
X0197083Y0080417D01*
X0200833Y0084167D02*
X0190833Y0084167D01*
X0189583Y0085417D01*
X0189583Y0099167D01*
X0177083Y0111667D01*
X0173333Y0111667D01*
X0162083Y0122917D01*
X0162083Y0126667D01*
X0154583Y0126667D01*
X0154333Y0125667D01*
X0162083Y0126667D02*
X0163333Y0126667D01*
X0170833Y0134167D01*
X0182083Y0134167D01*
X0193333Y0145417D01*
X0193333Y0145667D01*
X0190833Y0150417D02*
X0187083Y0146667D01*
X0183333Y0146667D01*
X0190833Y0150417D02*
X0222083Y0150417D01*
X0239583Y0124167D02*
X0197083Y0124167D01*
X0196633Y0124567D01*
X0195833Y0124167D01*
X0188333Y0116667D01*
X0180833Y0124167D01*
X0172083Y0124167D01*
X0171033Y0124567D01*
X0188333Y0116667D02*
X0188333Y0104167D01*
X0193333Y0099167D01*
X0193333Y0089167D01*
X0193987Y0088667D01*
X0200680Y0088667D02*
X0200833Y0087917D01*
X0200833Y0084167D01*
X0200833Y0071667D01*
X0201180Y0071167D01*
X0205833Y0066667D02*
X0207083Y0067917D01*
X0210833Y0067917D01*
X0211503Y0068167D01*
X0222083Y0080417D02*
X0221833Y0080820D01*
X0222083Y0080417D02*
X0238333Y0080417D01*
X0245833Y0072917D01*
X0260833Y0082917D02*
X0237083Y0106667D01*
X0197083Y0106667D01*
X0196633Y0106767D01*
X0198333Y0112917D02*
X0247083Y0112917D01*
X0257083Y0102917D01*
X0312083Y0102917D01*
X0314583Y0100417D01*
X0325833Y0100417D01*
X0338333Y0112917D01*
X0338333Y0122917D01*
X0347083Y0131667D01*
X0375833Y0131667D01*
X0383333Y0139167D01*
X0383333Y0149167D01*
X0385833Y0151667D01*
X0400833Y0151667D01*
X0403333Y0149167D01*
X0403333Y0140417D01*
X0407083Y0136667D01*
X0410833Y0136667D01*
X0418833Y0144667D01*
X0408833Y0144667D02*
X0434583Y0170417D01*
X0434583Y0206667D01*
X0443333Y0215417D01*
X0443333Y0219167D01*
X0432083Y0214167D02*
X0432083Y0197917D01*
X0408833Y0174667D01*
X0400833Y0166667D01*
X0390833Y0166667D01*
X0373333Y0149167D01*
X0373333Y0139167D01*
X0368333Y0134167D01*
X0345833Y0134167D01*
X0338333Y0126667D01*
X0335833Y0126667D01*
X0334583Y0131667D02*
X0339583Y0131667D01*
X0344583Y0136667D01*
X0350833Y0136667D01*
X0358833Y0144667D01*
X0348833Y0144667D02*
X0373333Y0169167D01*
X0373333Y0209167D01*
X0364583Y0217917D01*
X0364583Y0244167D01*
X0360833Y0252917D02*
X0415833Y0307917D01*
X0415833Y0311667D01*
X0416333Y0311667D01*
X0426333Y0311667D02*
X0427083Y0311667D01*
X0379583Y0264167D01*
X0379583Y0175417D01*
X0378833Y0174667D01*
X0368833Y0174667D02*
X0368333Y0175417D01*
X0368333Y0210417D01*
X0360833Y0217917D01*
X0360833Y0252917D01*
X0349583Y0265417D02*
X0349583Y0284167D01*
X0323333Y0310417D01*
X0322333Y0311167D01*
X0332333Y0311167D02*
X0333333Y0311667D01*
X0337083Y0315417D01*
X0337083Y0316667D01*
X0339583Y0319167D01*
X0354583Y0319167D01*
X0357083Y0316667D01*
X0328333Y0285417D02*
X0345833Y0267917D01*
X0318487Y0281667D02*
X0312083Y0281667D01*
X0284583Y0254167D01*
X0282083Y0254167D01*
X0278333Y0250417D01*
X0278333Y0222917D01*
X0284583Y0216667D01*
X0285333Y0216261D01*
X0288333Y0211667D02*
X0275833Y0211667D01*
X0262083Y0225417D01*
X0252083Y0225417D01*
X0247083Y0220417D01*
X0247083Y0216217D01*
X0247083Y0212917D01*
X0245833Y0211667D01*
X0235833Y0211667D01*
X0230833Y0216667D01*
X0230833Y0220417D01*
X0222083Y0229167D01*
X0217083Y0229167D01*
X0214583Y0226667D01*
X0219739Y0223667D02*
X0220833Y0222917D01*
X0234583Y0209167D01*
X0244583Y0209167D01*
X0252083Y0201667D01*
X0252083Y0195117D01*
X0259583Y0195117D02*
X0259583Y0190417D01*
X0250833Y0181667D01*
X0235833Y0181667D01*
X0207083Y0210417D01*
X0153333Y0210417D01*
X0152833Y0211320D01*
X0157083Y0214167D02*
X0158333Y0214167D01*
X0157083Y0214167D02*
X0153333Y0217917D01*
X0152833Y0218013D01*
X0157083Y0226667D02*
X0156180Y0227667D01*
X0157083Y0226667D02*
X0170833Y0226667D01*
X0177083Y0226667D02*
X0177083Y0220417D01*
X0179583Y0217917D01*
X0202083Y0217917D01*
X0183333Y0224167D02*
X0182428Y0223667D01*
X0183333Y0224167D02*
X0160833Y0246667D01*
X0160833Y0252917D01*
X0159680Y0253667D01*
X0153333Y0252917D02*
X0152987Y0253667D01*
X0152083Y0254167D01*
X0145833Y0254167D01*
X0153333Y0252917D02*
X0153333Y0241667D01*
X0152987Y0241167D01*
X0159680Y0241167D02*
X0160833Y0240417D01*
X0163333Y0240417D01*
X0177083Y0226667D01*
X0179845Y0203667D02*
X0180833Y0202917D01*
X0204583Y0179167D01*
X0244583Y0179167D01*
X0244583Y0177917D01*
X0244583Y0179167D02*
X0252083Y0179167D01*
X0252083Y0167917D01*
X0309583Y0110417D01*
X0312083Y0110417D01*
X0315833Y0105417D02*
X0316487Y0105167D01*
X0315833Y0105417D02*
X0258333Y0105417D01*
X0239583Y0124167D01*
X0282083Y0141667D02*
X0282083Y0199167D01*
X0267083Y0214167D01*
X0259583Y0216217D02*
X0259583Y0221667D01*
X0252083Y0225417D02*
X0252083Y0235417D01*
X0233333Y0221667D02*
X0233333Y0220417D01*
X0237083Y0216667D01*
X0237083Y0216217D01*
X0233333Y0221667D02*
X0223333Y0231667D01*
X0250833Y0211667D02*
X0252083Y0212917D01*
X0252083Y0216217D01*
X0254583Y0216217D02*
X0254583Y0206667D01*
X0262083Y0199167D01*
X0262083Y0189167D01*
X0252083Y0179167D01*
X0248333Y0185417D02*
X0242083Y0185417D01*
X0239583Y0187917D01*
X0239583Y0195117D01*
X0237083Y0195117D02*
X0237083Y0195417D01*
X0235833Y0196667D01*
X0233333Y0196667D01*
X0242083Y0195417D02*
X0242083Y0195117D01*
X0242083Y0195417D02*
X0244583Y0195417D01*
X0244583Y0195117D01*
X0244583Y0189167D01*
X0250833Y0210417D02*
X0250833Y0211667D01*
X0284583Y0229167D02*
X0285333Y0228072D01*
X0285833Y0227917D01*
X0285833Y0224167D01*
X0290833Y0219167D01*
X0290833Y0214167D01*
X0288333Y0211667D01*
X0284583Y0229167D02*
X0284583Y0235417D01*
X0280833Y0239167D01*
X0280833Y0242917D01*
X0283333Y0245417D01*
X0285833Y0245417D01*
X0286333Y0245667D01*
X0287083Y0245417D01*
X0293333Y0245417D01*
X0295833Y0249167D02*
X0287083Y0249167D01*
X0286333Y0250391D01*
X0286333Y0240942D02*
X0287083Y0240417D01*
X0300833Y0240417D01*
X0335833Y0205417D01*
X0335833Y0181667D01*
X0328833Y0174667D01*
X0338333Y0175417D02*
X0338833Y0174667D01*
X0338333Y0175417D02*
X0338333Y0206667D01*
X0295833Y0249167D01*
X0295833Y0252917D02*
X0348333Y0200417D01*
X0348333Y0175417D01*
X0348833Y0174667D01*
X0332083Y0151667D02*
X0303333Y0151667D01*
X0299583Y0155417D02*
X0313333Y0169167D01*
X0313333Y0192917D01*
X0323333Y0209167D02*
X0293333Y0179167D01*
X0299583Y0155417D02*
X0299583Y0145417D01*
X0298833Y0144667D01*
X0289583Y0144167D02*
X0289583Y0140417D01*
X0295833Y0134167D01*
X0338333Y0134167D01*
X0343333Y0139167D01*
X0334583Y0131667D02*
X0325833Y0122917D01*
X0325833Y0121667D01*
X0324987Y0121167D01*
X0330833Y0120417D02*
X0331680Y0121167D01*
X0330833Y0120417D02*
X0330833Y0114167D01*
X0322083Y0106667D02*
X0322083Y0105417D01*
X0323180Y0105167D01*
X0322083Y0106667D02*
X0297083Y0131667D01*
X0292083Y0131667D01*
X0282083Y0141667D01*
X0288833Y0144667D02*
X0289583Y0144167D01*
X0292083Y0100417D02*
X0310833Y0100417D01*
X0313333Y0097917D01*
X0338333Y0097917D01*
X0338333Y0095417D01*
X0365833Y0067917D01*
X0365833Y0014167D01*
X0366333Y0014167D01*
X0376333Y0014167D01*
X0389583Y0046667D02*
X0422083Y0014167D01*
X0421833Y0014167D01*
X0431833Y0014167D02*
X0432083Y0014167D01*
X0399583Y0046667D01*
X0399583Y0144167D01*
X0398833Y0144667D01*
X0389583Y0144167D02*
X0388833Y0144667D01*
X0389583Y0144167D02*
X0389583Y0046667D01*
X0354583Y0072917D02*
X0318333Y0072917D01*
X0294583Y0096667D01*
X0292083Y0100417D02*
X0274583Y0082917D01*
X0268333Y0082917D01*
X0268333Y0082667D01*
X0268333Y0082917D02*
X0260833Y0082917D01*
X0275833Y0072917D02*
X0285833Y0082917D01*
X0286833Y0083167D01*
X0296833Y0083167D02*
X0297083Y0082917D01*
X0297083Y0046667D01*
X0292083Y0041667D01*
X0292083Y0014167D01*
X0291833Y0014167D01*
X0281833Y0014167D02*
X0280833Y0014167D01*
X0280833Y0019167D01*
X0258333Y0041667D01*
X0258333Y0042667D01*
X0292083Y0046667D02*
X0292196Y0047592D01*
X0301833Y0014167D02*
X0302083Y0014167D01*
X0329583Y0041667D01*
X0329583Y0054167D01*
X0336333Y0041667D02*
X0340833Y0041667D01*
X0336333Y0041667D02*
X0325833Y0031167D01*
X0325833Y0030917D01*
X0318333Y0092917D02*
X0304583Y0092917D01*
X0338333Y0097917D02*
X0338333Y0104667D01*
X0343333Y0097917D02*
X0343333Y0097167D01*
X0343333Y0097917D02*
X0348333Y0097917D01*
X0357083Y0106667D01*
X0357083Y0111667D01*
X0349583Y0119167D01*
X0349180Y0120167D01*
X0343333Y0119167D02*
X0342487Y0120167D01*
X0343333Y0119167D02*
X0353333Y0109167D01*
X0388833Y0174667D02*
X0389583Y0175417D01*
X0389583Y0264167D01*
X0437083Y0311667D01*
X0436333Y0311667D01*
X0446333Y0311667D02*
X0447083Y0311667D01*
X0429583Y0294167D01*
X0429583Y0205417D01*
X0398833Y0174667D01*
X0443333Y0160417D02*
X0468333Y0185417D01*
X0468333Y0185167D01*
X0468333Y0175417D02*
X0468333Y0175167D01*
X0468333Y0175417D02*
X0457083Y0164167D01*
X0457083Y0135417D01*
X0443333Y0121667D01*
X0443333Y0131667D02*
X0443333Y0160417D01*
X0459583Y0156667D02*
X0468333Y0165417D01*
X0468333Y0165167D01*
X0468333Y0155167D02*
X0468333Y0145167D01*
X0468333Y0135167D01*
X0468333Y0125417D01*
X0468333Y0125167D01*
X0468333Y0125417D02*
X0449583Y0106667D01*
X0438333Y0106667D01*
X0434583Y0102917D01*
X0434583Y0070417D01*
X0439583Y0065417D01*
X0468333Y0065417D01*
X0468333Y0065167D01*
X0454583Y0071667D02*
X0468333Y0085417D01*
X0468333Y0085167D01*
X0468333Y0095167D02*
X0468333Y0095417D01*
X0454583Y0081667D01*
X0443333Y0081667D01*
X0443333Y0091667D02*
X0454583Y0091667D01*
X0468333Y0105417D01*
X0468333Y0105167D01*
X0468333Y0115417D02*
X0454583Y0101667D01*
X0443333Y0101667D01*
X0443333Y0111667D02*
X0459583Y0127917D01*
X0459583Y0156667D01*
X0454583Y0195417D02*
X0445833Y0204167D01*
X0445833Y0205167D01*
X0454583Y0195417D02*
X0468333Y0195417D01*
X0468333Y0195167D01*
X0468333Y0205167D02*
X0468333Y0205417D01*
X0458333Y0215417D01*
X0455833Y0237917D02*
X0432083Y0214167D01*
X0455833Y0237917D02*
X0455833Y0311667D01*
X0456333Y0311667D01*
X0313333Y0276667D02*
X0305833Y0269167D01*
X0305833Y0264167D01*
X0313333Y0256667D01*
X0313333Y0245417D01*
X0309583Y0266667D02*
X0309583Y0269167D01*
X0312083Y0271667D01*
X0297083Y0276667D02*
X0283333Y0276667D01*
X0282833Y0277820D01*
X0282833Y0284513D02*
X0283333Y0285417D01*
X0287083Y0289167D01*
X0259583Y0286667D02*
X0259333Y0286301D01*
X0229583Y0286667D02*
X0228833Y0286301D01*
X0223333Y0285417D02*
X0218333Y0285417D01*
X0217333Y0286013D01*
X0217083Y0286667D01*
X0217083Y0299167D01*
X0204583Y0311667D01*
X0200833Y0311667D01*
X0202392Y0307525D02*
X0203333Y0306667D01*
X0203333Y0277917D01*
X0202083Y0270417D02*
X0197083Y0265417D01*
X0159583Y0265417D01*
X0158680Y0264667D01*
X0163333Y0269167D02*
X0180833Y0286667D01*
X0181833Y0287320D01*
X0182083Y0286667D01*
X0185833Y0290417D01*
X0185833Y0296667D01*
X0184583Y0297917D01*
X0184583Y0307917D01*
X0183573Y0308548D01*
X0179833Y0308548D02*
X0179583Y0309167D01*
X0179583Y0311667D01*
X0178333Y0312917D01*
X0173333Y0312917D01*
X0168333Y0307917D01*
X0167180Y0307667D01*
X0167083Y0307917D01*
X0162083Y0312917D01*
X0167180Y0307667D02*
X0167083Y0306667D01*
X0167083Y0290417D01*
X0167180Y0290167D01*
X0167083Y0289167D01*
X0158333Y0280417D01*
X0158333Y0276667D01*
X0157180Y0275667D01*
X0157180Y0273013D01*
X0154833Y0270667D01*
X0150833Y0275417D02*
X0150833Y0265417D01*
X0151987Y0264667D01*
X0150833Y0275417D02*
X0150487Y0275667D01*
X0159583Y0290417D02*
X0160487Y0290167D01*
X0175833Y0292917D02*
X0175833Y0307917D01*
X0176093Y0308548D01*
X0179583Y0307917D02*
X0179833Y0308548D01*
X0179583Y0307917D02*
X0179583Y0305417D01*
X0180833Y0304167D01*
X0180833Y0294167D01*
X0181833Y0294013D01*
X0175833Y0292917D02*
X0180833Y0287917D01*
X0181833Y0287320D01*
X0190833Y0307917D02*
X0184583Y0314167D01*
X0180833Y0314167D01*
X0177083Y0317917D01*
X0176093Y0318785D01*
X0190833Y0307917D02*
X0197083Y0307917D01*
X0212083Y0286667D02*
X0212083Y0275417D01*
X0228333Y0259167D01*
X0228833Y0278033D02*
X0228333Y0279167D01*
X0218333Y0279167D01*
X0217333Y0279320D01*
X0275833Y0256667D02*
X0276180Y0255667D01*
X0182345Y0182167D02*
X0182083Y0181667D01*
X0177083Y0176667D01*
X0165833Y0186667D02*
X0164583Y0185417D01*
X0138333Y0185417D01*
X0134583Y0182917D02*
X0134583Y0187917D01*
X0112083Y0210417D01*
X0112083Y0256667D01*
X0111833Y0257667D01*
X0145833Y0232917D02*
X0148333Y0230417D01*
X0148333Y0227917D01*
X0149487Y0227667D01*
X0129583Y0189167D02*
X0107083Y0211667D01*
X0107083Y0216667D01*
X0105933Y0217867D01*
X0129583Y0189167D02*
X0129583Y0177917D01*
X0130333Y0177167D01*
X0134583Y0182917D02*
X0145833Y0171667D01*
X0145833Y0134167D01*
X0130333Y0147167D02*
X0129583Y0146667D01*
X0123333Y0140417D01*
X0107083Y0140417D01*
X0106433Y0139867D01*
X0106433Y0120467D02*
X0107083Y0120417D01*
X0107083Y0109167D01*
X0112083Y0104167D01*
X0112083Y0086667D01*
X0107083Y0081667D01*
X0106933Y0081467D01*
X0136885Y0083167D02*
X0137083Y0084167D01*
X0142333Y0084167D01*
X0144583Y0084167D01*
X0167083Y0106667D01*
X0170833Y0106667D01*
X0171033Y0106767D01*
X0172083Y0106667D01*
X0182083Y0096667D01*
X0182083Y0085417D01*
X0182239Y0085167D01*
X0167823Y0060556D02*
X0167083Y0060417D01*
X0152083Y0045417D01*
X0152083Y0042917D01*
X0151798Y0042667D01*
X0162083Y0022917D02*
X0175833Y0036667D01*
X0176833Y0037167D01*
X0190833Y0021667D02*
X0195833Y0016667D01*
X0195833Y0014167D01*
X0196333Y0013655D01*
X0170833Y0150417D02*
X0165833Y0155417D01*
X0154583Y0155417D01*
X0154333Y0155667D01*
X0154583Y0165417D02*
X0154333Y0165667D01*
X0154583Y0165417D02*
X0163333Y0165417D01*
X0160833Y0174167D02*
X0153333Y0174167D01*
X0153333Y0174667D01*
X0160833Y0174167D02*
X0173333Y0161667D01*
X0173333Y0155667D01*
X0130333Y0167167D02*
X0129583Y0167917D01*
X0118333Y0167917D01*
X0107083Y0179167D01*
X0105933Y0180367D01*
X0138333Y0306667D02*
X0137322Y0307167D01*
X0099583Y0312917D02*
X0099022Y0313383D01*
X0098333Y0312917D01*
X0443333Y0071667D02*
X0454583Y0071667D01*
X0468333Y0115167D02*
X0468333Y0115417D01*
D45*
X0458333Y0215417D03*
X0443333Y0219167D03*
X0364583Y0244167D03*
X0354583Y0260417D03*
X0345833Y0267917D03*
X0342083Y0264167D03*
X0338333Y0244167D03*
X0328333Y0227917D03*
X0323333Y0209167D03*
X0313333Y0192917D03*
X0303333Y0151667D03*
X0335833Y0126667D03*
X0330833Y0114167D03*
X0312083Y0110417D03*
X0318333Y0092917D03*
X0304583Y0092917D03*
X0294583Y0096667D03*
X0329583Y0054167D03*
X0354583Y0072917D03*
X0353333Y0109167D03*
X0252083Y0139167D03*
X0242083Y0142917D03*
X0222083Y0150417D03*
X0244583Y0177917D03*
X0248333Y0185417D03*
X0244583Y0189167D03*
X0233333Y0196667D03*
X0250833Y0210417D03*
X0259583Y0221667D03*
X0267083Y0214167D03*
X0293333Y0245417D03*
X0295833Y0252917D03*
X0313333Y0245417D03*
X0309583Y0266667D03*
X0314583Y0267917D03*
X0313333Y0276667D03*
X0297083Y0276667D03*
X0298333Y0284167D03*
X0287083Y0289167D03*
X0247083Y0267917D03*
X0263333Y0250417D03*
X0240833Y0246667D03*
X0228333Y0232917D03*
X0218333Y0262917D03*
X0202083Y0270417D03*
X0212083Y0286667D03*
X0223333Y0285417D03*
X0163333Y0269167D03*
X0145833Y0254167D03*
X0145833Y0232917D03*
X0162083Y0222917D03*
X0170833Y0226667D03*
X0158333Y0214167D03*
X0165833Y0186667D03*
X0177083Y0176667D03*
X0163333Y0165417D03*
X0138333Y0185417D03*
X0198333Y0112917D03*
X0197083Y0080417D03*
X0205833Y0066667D03*
X0190833Y0061667D03*
X0165833Y0091667D03*
X0100833Y0286667D03*
X0138333Y0287917D03*
X0148333Y0297917D03*
X0153333Y0306667D03*
D46*
X0155782Y0083167D02*
X0155782Y0072598D01*
X0167823Y0060556D01*
X0167823Y0059677D01*
X0178333Y0049167D01*
X0193833Y0049167D01*
X0194333Y0048667D01*
X0150987Y0015167D02*
X0150487Y0014667D01*
X0131833Y0014667D01*
X0122869Y0030667D02*
X0117538Y0030667D01*
X0122869Y0030667D02*
X0134869Y0042667D01*
X0131333Y0064667D02*
X0105833Y0039167D01*
X0105833Y0012269D01*
X0105333Y0011769D01*
X0318833Y0025167D02*
X0327833Y0025167D01*
X0330833Y0028167D01*
X0343333Y0028167D01*
X0349333Y0032167D02*
X0349333Y0023917D01*
X0348333Y0022917D01*
X0354583Y0022917D01*
X0356333Y0021167D01*
X0356333Y0014167D01*
X0349333Y0032167D02*
X0340833Y0040667D01*
X0340833Y0041667D01*
X0340833Y0055667D01*
X0340333Y0056167D01*
D47*
X0343333Y0028167D03*
X0325833Y0030917D03*
X0318833Y0025167D03*
X0194333Y0048667D03*
X0141333Y0074667D03*
X0131333Y0064667D03*
X0131833Y0014667D03*
X0132333Y0266167D03*
X0154833Y0270667D03*
D48*
X0142333Y0084167D02*
X0141333Y0083167D01*
X0141333Y0074667D01*
D49*
X0150487Y0275667D02*
X0150487Y0282513D01*
X0136333Y0296667D01*
X0129333Y0296667D01*
X0127333Y0298667D01*
X0120825Y0298667D01*
X0120676Y0298816D01*
X0120877Y0302167D02*
X0132322Y0302167D01*
X0137322Y0307167D01*
X0138333Y0306667D02*
X0138333Y0301667D01*
X0149833Y0290167D01*
X0160487Y0290167D01*
X0120676Y0289367D02*
X0120676Y0277950D01*
X0119583Y0277917D02*
X0099056Y0277917D01*
X0099022Y0277950D01*
X0099583Y0312917D02*
X0120209Y0312917D01*
X0120676Y0313383D01*
M02*
