%
M48
M72
T01C0.03150
T02C0.03200
T03C0.03937
T04C0.04400
%
T01
X20500Y81000
X30500Y81000
X30500Y106000
X20500Y106000
X20500Y131000
X30500Y131000
X30500Y155000
X20500Y155000
T02
X47500Y75000
X47500Y105000
X140500Y102000
X155500Y103000
X147500Y84000
X147500Y74000
X147500Y64000
X147500Y54000
X147500Y44000
X173500Y54000
X187500Y38000
X197500Y38000
X203500Y54000
X182500Y125000
X172500Y125000
X155500Y133000
X140500Y132000
X150000Y174000
X150000Y184000
X150000Y194000
X150000Y204000
X150000Y214000
X171500Y192000
X178500Y203000
X201500Y192000
X201500Y174000
X171500Y174000
X178500Y233000
X49500Y243000
X49500Y213000
T03
X194295Y219000
X206500Y237898
X218311Y219000
T04
X201000Y147500
X161000Y147500
X169500Y105000
X169906Y83508
X209500Y105000
X209906Y83508
X210000Y20500
X170000Y20500
M30
