%
M48
M72
T01C0.03200
T02C0.03937
T03C0.04000
%
T01
X152500Y172000
X152500Y182000
X152500Y192000
X152500Y202000
X152500Y212000
X179000Y146000
X179000Y136000
X209000Y136000
X209000Y146000
X215000Y92000
X185000Y92000
X153000Y85500
X153000Y75500
X153000Y65500
X153000Y55500
X153000Y45500
X185000Y57000
X215000Y57000
T02
X198811Y237000
X187000Y255898
X174795Y237000
T03
X48000Y80000
X32000Y94000
X19000Y94000
X19000Y120000
X32000Y120000
X48000Y110000
X32000Y148000
X19000Y148000
X20000Y175000
X33000Y175000
X52000Y222000
X52000Y252000
X152000Y138000
X165000Y138000
X175000Y119000
X175000Y104000
X145000Y104000
X145000Y119000
X180000Y173000
X180000Y188000
X180000Y204000
X210000Y204000
X210000Y188000
X210000Y173000
X212000Y39000
X182000Y39000
X183000Y17000
X170000Y17000
M30
