G75*
%MOIN*%
%OFA0B0*%
%FSLAX25Y25*%
%IPPOS*%
%LPD*%
%AMOC8*
5,1,8,0,0,1.08239X$1,22.5*
%
%ADD10R,0.06115X0.03753*%
%ADD11C,0.08674*%
%ADD12R,0.07099X0.01784*%
%ADD13R,0.06706X0.06706*%
%ADD14OC8,0.08800*%
%ADD15R,0.06706X0.11036*%
%ADD16C,0.06000*%
D10*
X0019520Y0034500D03*
X0019520Y0048000D03*
X0019520Y0062000D03*
X0019020Y0075000D03*
X0033980Y0075000D03*
X0034480Y0062000D03*
X0034480Y0048000D03*
X0034480Y0034500D03*
D11*
X0174795Y0233063D02*
X0174795Y0240937D01*
X0183063Y0255898D02*
X0190937Y0255898D01*
X0198811Y0240937D02*
X0198811Y0233063D01*
D12*
X0107748Y0204146D03*
X0107748Y0201587D03*
X0107748Y0199028D03*
X0107748Y0196469D03*
X0107748Y0193909D03*
X0107748Y0191350D03*
X0107748Y0188791D03*
X0107748Y0186232D03*
X0107748Y0183673D03*
X0107748Y0181114D03*
X0083339Y0181114D03*
X0083339Y0183673D03*
X0083339Y0186232D03*
X0083339Y0188791D03*
X0083339Y0191350D03*
X0083339Y0193909D03*
X0083339Y0196469D03*
X0083339Y0199028D03*
X0083339Y0201587D03*
X0083339Y0204146D03*
X0081945Y0074913D03*
X0081945Y0072354D03*
X0081945Y0069795D03*
X0081945Y0067236D03*
X0081945Y0064677D03*
X0081945Y0062118D03*
X0081945Y0059559D03*
X0081945Y0057000D03*
X0081945Y0054441D03*
X0081945Y0051882D03*
X0106354Y0051882D03*
X0106354Y0054441D03*
X0106354Y0057000D03*
X0106354Y0059559D03*
X0106354Y0062118D03*
X0106354Y0064677D03*
X0106354Y0067236D03*
X0106354Y0069795D03*
X0106354Y0072354D03*
X0106354Y0074913D03*
D13*
X0032890Y0230000D03*
X0019110Y0230000D03*
X0019110Y0245500D03*
X0032890Y0245500D03*
D14*
X0052000Y0252000D03*
X0052000Y0222000D03*
X0033000Y0175000D03*
X0020000Y0175000D03*
X0019000Y0148000D03*
X0032000Y0148000D03*
X0032000Y0120000D03*
X0019000Y0120000D03*
X0019000Y0094000D03*
X0032000Y0094000D03*
X0048000Y0080000D03*
X0048000Y0110000D03*
X0145000Y0104000D03*
X0145000Y0119000D03*
X0152000Y0138000D03*
X0165000Y0138000D03*
X0175000Y0119000D03*
X0175000Y0104000D03*
X0182000Y0039000D03*
X0183000Y0017000D03*
X0170000Y0017000D03*
X0212000Y0039000D03*
X0210000Y0173000D03*
X0210000Y0188000D03*
X0210000Y0204000D03*
X0180000Y0204000D03*
X0180000Y0188000D03*
X0180000Y0173000D03*
D15*
X0031906Y0195500D03*
X0020094Y0195500D03*
X0020094Y0212500D03*
X0031906Y0212500D03*
D16*
X0149900Y0212000D02*
X0155100Y0212000D01*
X0155100Y0202000D02*
X0149900Y0202000D01*
X0149900Y0192000D02*
X0155100Y0192000D01*
X0155100Y0182000D02*
X0149900Y0182000D01*
X0149900Y0172000D02*
X0155100Y0172000D01*
X0176400Y0146000D02*
X0181600Y0146000D01*
X0181600Y0136000D02*
X0176400Y0136000D01*
X0206400Y0136000D02*
X0211600Y0136000D01*
X0211600Y0146000D02*
X0206400Y0146000D01*
X0212400Y0092000D02*
X0217600Y0092000D01*
X0187600Y0092000D02*
X0182400Y0092000D01*
X0155600Y0085500D02*
X0150400Y0085500D01*
X0150400Y0075500D02*
X0155600Y0075500D01*
X0155600Y0065500D02*
X0150400Y0065500D01*
X0150400Y0055500D02*
X0155600Y0055500D01*
X0155600Y0045500D02*
X0150400Y0045500D01*
X0182400Y0057000D02*
X0187600Y0057000D01*
X0212400Y0057000D02*
X0217600Y0057000D01*
M02*
