G75*
%MOIN*%
%OFA0B0*%
%FSLAX25Y25*%
%IPPOS*%
%LPD*%
%AMOC8*
5,1,8,0,0,1.08239X$1,22.5*
%
%ADD10C,0.00394*%
%ADD11C,0.00600*%
%ADD12R,0.02000X0.10000*%
%ADD13R,0.07500X0.03000*%
%ADD14C,0.00800*%
%ADD15C,0.00500*%
%ADD16C,0.00197*%
%ADD17R,0.02000X0.01500*%
%ADD18R,0.01500X0.02000*%
%ADD19C,0.01200*%
D10*
X0022669Y0030169D02*
X0022669Y0037256D01*
X0024244Y0038831D01*
X0031331Y0038831D01*
X0031331Y0030169D01*
X0022669Y0030169D01*
X0023457Y0034500D02*
X0023459Y0034618D01*
X0023465Y0034737D01*
X0023475Y0034855D01*
X0023489Y0034972D01*
X0023506Y0035089D01*
X0023528Y0035206D01*
X0023554Y0035321D01*
X0023583Y0035436D01*
X0023616Y0035550D01*
X0023653Y0035662D01*
X0023694Y0035773D01*
X0023738Y0035883D01*
X0023786Y0035991D01*
X0023838Y0036098D01*
X0023893Y0036203D01*
X0023952Y0036306D01*
X0024014Y0036406D01*
X0024079Y0036505D01*
X0024148Y0036602D01*
X0024219Y0036696D01*
X0024294Y0036787D01*
X0024372Y0036877D01*
X0024453Y0036963D01*
X0024537Y0037047D01*
X0024623Y0037128D01*
X0024713Y0037206D01*
X0024804Y0037281D01*
X0024898Y0037352D01*
X0024995Y0037421D01*
X0025094Y0037486D01*
X0025194Y0037548D01*
X0025297Y0037607D01*
X0025402Y0037662D01*
X0025509Y0037714D01*
X0025617Y0037762D01*
X0025727Y0037806D01*
X0025838Y0037847D01*
X0025950Y0037884D01*
X0026064Y0037917D01*
X0026179Y0037946D01*
X0026294Y0037972D01*
X0026411Y0037994D01*
X0026528Y0038011D01*
X0026645Y0038025D01*
X0026763Y0038035D01*
X0026882Y0038041D01*
X0027000Y0038043D01*
X0027118Y0038041D01*
X0027237Y0038035D01*
X0027355Y0038025D01*
X0027472Y0038011D01*
X0027589Y0037994D01*
X0027706Y0037972D01*
X0027821Y0037946D01*
X0027936Y0037917D01*
X0028050Y0037884D01*
X0028162Y0037847D01*
X0028273Y0037806D01*
X0028383Y0037762D01*
X0028491Y0037714D01*
X0028598Y0037662D01*
X0028703Y0037607D01*
X0028806Y0037548D01*
X0028906Y0037486D01*
X0029005Y0037421D01*
X0029102Y0037352D01*
X0029196Y0037281D01*
X0029287Y0037206D01*
X0029377Y0037128D01*
X0029463Y0037047D01*
X0029547Y0036963D01*
X0029628Y0036877D01*
X0029706Y0036787D01*
X0029781Y0036696D01*
X0029852Y0036602D01*
X0029921Y0036505D01*
X0029986Y0036406D01*
X0030048Y0036306D01*
X0030107Y0036203D01*
X0030162Y0036098D01*
X0030214Y0035991D01*
X0030262Y0035883D01*
X0030306Y0035773D01*
X0030347Y0035662D01*
X0030384Y0035550D01*
X0030417Y0035436D01*
X0030446Y0035321D01*
X0030472Y0035206D01*
X0030494Y0035089D01*
X0030511Y0034972D01*
X0030525Y0034855D01*
X0030535Y0034737D01*
X0030541Y0034618D01*
X0030543Y0034500D01*
X0030541Y0034382D01*
X0030535Y0034263D01*
X0030525Y0034145D01*
X0030511Y0034028D01*
X0030494Y0033911D01*
X0030472Y0033794D01*
X0030446Y0033679D01*
X0030417Y0033564D01*
X0030384Y0033450D01*
X0030347Y0033338D01*
X0030306Y0033227D01*
X0030262Y0033117D01*
X0030214Y0033009D01*
X0030162Y0032902D01*
X0030107Y0032797D01*
X0030048Y0032694D01*
X0029986Y0032594D01*
X0029921Y0032495D01*
X0029852Y0032398D01*
X0029781Y0032304D01*
X0029706Y0032213D01*
X0029628Y0032123D01*
X0029547Y0032037D01*
X0029463Y0031953D01*
X0029377Y0031872D01*
X0029287Y0031794D01*
X0029196Y0031719D01*
X0029102Y0031648D01*
X0029005Y0031579D01*
X0028906Y0031514D01*
X0028806Y0031452D01*
X0028703Y0031393D01*
X0028598Y0031338D01*
X0028491Y0031286D01*
X0028383Y0031238D01*
X0028273Y0031194D01*
X0028162Y0031153D01*
X0028050Y0031116D01*
X0027936Y0031083D01*
X0027821Y0031054D01*
X0027706Y0031028D01*
X0027589Y0031006D01*
X0027472Y0030989D01*
X0027355Y0030975D01*
X0027237Y0030965D01*
X0027118Y0030959D01*
X0027000Y0030957D01*
X0026882Y0030959D01*
X0026763Y0030965D01*
X0026645Y0030975D01*
X0026528Y0030989D01*
X0026411Y0031006D01*
X0026294Y0031028D01*
X0026179Y0031054D01*
X0026064Y0031083D01*
X0025950Y0031116D01*
X0025838Y0031153D01*
X0025727Y0031194D01*
X0025617Y0031238D01*
X0025509Y0031286D01*
X0025402Y0031338D01*
X0025297Y0031393D01*
X0025194Y0031452D01*
X0025094Y0031514D01*
X0024995Y0031579D01*
X0024898Y0031648D01*
X0024804Y0031719D01*
X0024713Y0031794D01*
X0024623Y0031872D01*
X0024537Y0031953D01*
X0024453Y0032037D01*
X0024372Y0032123D01*
X0024294Y0032213D01*
X0024219Y0032304D01*
X0024148Y0032398D01*
X0024079Y0032495D01*
X0024014Y0032594D01*
X0023952Y0032694D01*
X0023893Y0032797D01*
X0023838Y0032902D01*
X0023786Y0033009D01*
X0023738Y0033117D01*
X0023694Y0033227D01*
X0023653Y0033338D01*
X0023616Y0033450D01*
X0023583Y0033564D01*
X0023554Y0033679D01*
X0023528Y0033794D01*
X0023506Y0033911D01*
X0023489Y0034028D01*
X0023475Y0034145D01*
X0023465Y0034263D01*
X0023459Y0034382D01*
X0023457Y0034500D01*
X0022669Y0037256D02*
X0022669Y0038831D01*
X0024244Y0038831D01*
X0022669Y0043669D02*
X0022669Y0050756D01*
X0024244Y0052331D01*
X0031331Y0052331D01*
X0031331Y0043669D01*
X0022669Y0043669D01*
X0023457Y0048000D02*
X0023459Y0048118D01*
X0023465Y0048237D01*
X0023475Y0048355D01*
X0023489Y0048472D01*
X0023506Y0048589D01*
X0023528Y0048706D01*
X0023554Y0048821D01*
X0023583Y0048936D01*
X0023616Y0049050D01*
X0023653Y0049162D01*
X0023694Y0049273D01*
X0023738Y0049383D01*
X0023786Y0049491D01*
X0023838Y0049598D01*
X0023893Y0049703D01*
X0023952Y0049806D01*
X0024014Y0049906D01*
X0024079Y0050005D01*
X0024148Y0050102D01*
X0024219Y0050196D01*
X0024294Y0050287D01*
X0024372Y0050377D01*
X0024453Y0050463D01*
X0024537Y0050547D01*
X0024623Y0050628D01*
X0024713Y0050706D01*
X0024804Y0050781D01*
X0024898Y0050852D01*
X0024995Y0050921D01*
X0025094Y0050986D01*
X0025194Y0051048D01*
X0025297Y0051107D01*
X0025402Y0051162D01*
X0025509Y0051214D01*
X0025617Y0051262D01*
X0025727Y0051306D01*
X0025838Y0051347D01*
X0025950Y0051384D01*
X0026064Y0051417D01*
X0026179Y0051446D01*
X0026294Y0051472D01*
X0026411Y0051494D01*
X0026528Y0051511D01*
X0026645Y0051525D01*
X0026763Y0051535D01*
X0026882Y0051541D01*
X0027000Y0051543D01*
X0027118Y0051541D01*
X0027237Y0051535D01*
X0027355Y0051525D01*
X0027472Y0051511D01*
X0027589Y0051494D01*
X0027706Y0051472D01*
X0027821Y0051446D01*
X0027936Y0051417D01*
X0028050Y0051384D01*
X0028162Y0051347D01*
X0028273Y0051306D01*
X0028383Y0051262D01*
X0028491Y0051214D01*
X0028598Y0051162D01*
X0028703Y0051107D01*
X0028806Y0051048D01*
X0028906Y0050986D01*
X0029005Y0050921D01*
X0029102Y0050852D01*
X0029196Y0050781D01*
X0029287Y0050706D01*
X0029377Y0050628D01*
X0029463Y0050547D01*
X0029547Y0050463D01*
X0029628Y0050377D01*
X0029706Y0050287D01*
X0029781Y0050196D01*
X0029852Y0050102D01*
X0029921Y0050005D01*
X0029986Y0049906D01*
X0030048Y0049806D01*
X0030107Y0049703D01*
X0030162Y0049598D01*
X0030214Y0049491D01*
X0030262Y0049383D01*
X0030306Y0049273D01*
X0030347Y0049162D01*
X0030384Y0049050D01*
X0030417Y0048936D01*
X0030446Y0048821D01*
X0030472Y0048706D01*
X0030494Y0048589D01*
X0030511Y0048472D01*
X0030525Y0048355D01*
X0030535Y0048237D01*
X0030541Y0048118D01*
X0030543Y0048000D01*
X0030541Y0047882D01*
X0030535Y0047763D01*
X0030525Y0047645D01*
X0030511Y0047528D01*
X0030494Y0047411D01*
X0030472Y0047294D01*
X0030446Y0047179D01*
X0030417Y0047064D01*
X0030384Y0046950D01*
X0030347Y0046838D01*
X0030306Y0046727D01*
X0030262Y0046617D01*
X0030214Y0046509D01*
X0030162Y0046402D01*
X0030107Y0046297D01*
X0030048Y0046194D01*
X0029986Y0046094D01*
X0029921Y0045995D01*
X0029852Y0045898D01*
X0029781Y0045804D01*
X0029706Y0045713D01*
X0029628Y0045623D01*
X0029547Y0045537D01*
X0029463Y0045453D01*
X0029377Y0045372D01*
X0029287Y0045294D01*
X0029196Y0045219D01*
X0029102Y0045148D01*
X0029005Y0045079D01*
X0028906Y0045014D01*
X0028806Y0044952D01*
X0028703Y0044893D01*
X0028598Y0044838D01*
X0028491Y0044786D01*
X0028383Y0044738D01*
X0028273Y0044694D01*
X0028162Y0044653D01*
X0028050Y0044616D01*
X0027936Y0044583D01*
X0027821Y0044554D01*
X0027706Y0044528D01*
X0027589Y0044506D01*
X0027472Y0044489D01*
X0027355Y0044475D01*
X0027237Y0044465D01*
X0027118Y0044459D01*
X0027000Y0044457D01*
X0026882Y0044459D01*
X0026763Y0044465D01*
X0026645Y0044475D01*
X0026528Y0044489D01*
X0026411Y0044506D01*
X0026294Y0044528D01*
X0026179Y0044554D01*
X0026064Y0044583D01*
X0025950Y0044616D01*
X0025838Y0044653D01*
X0025727Y0044694D01*
X0025617Y0044738D01*
X0025509Y0044786D01*
X0025402Y0044838D01*
X0025297Y0044893D01*
X0025194Y0044952D01*
X0025094Y0045014D01*
X0024995Y0045079D01*
X0024898Y0045148D01*
X0024804Y0045219D01*
X0024713Y0045294D01*
X0024623Y0045372D01*
X0024537Y0045453D01*
X0024453Y0045537D01*
X0024372Y0045623D01*
X0024294Y0045713D01*
X0024219Y0045804D01*
X0024148Y0045898D01*
X0024079Y0045995D01*
X0024014Y0046094D01*
X0023952Y0046194D01*
X0023893Y0046297D01*
X0023838Y0046402D01*
X0023786Y0046509D01*
X0023738Y0046617D01*
X0023694Y0046727D01*
X0023653Y0046838D01*
X0023616Y0046950D01*
X0023583Y0047064D01*
X0023554Y0047179D01*
X0023528Y0047294D01*
X0023506Y0047411D01*
X0023489Y0047528D01*
X0023475Y0047645D01*
X0023465Y0047763D01*
X0023459Y0047882D01*
X0023457Y0048000D01*
X0022669Y0050756D02*
X0022669Y0052331D01*
X0024244Y0052331D01*
X0022669Y0057669D02*
X0022669Y0064756D01*
X0024244Y0066331D01*
X0031331Y0066331D01*
X0031331Y0057669D01*
X0022669Y0057669D01*
X0023457Y0062000D02*
X0023459Y0062118D01*
X0023465Y0062237D01*
X0023475Y0062355D01*
X0023489Y0062472D01*
X0023506Y0062589D01*
X0023528Y0062706D01*
X0023554Y0062821D01*
X0023583Y0062936D01*
X0023616Y0063050D01*
X0023653Y0063162D01*
X0023694Y0063273D01*
X0023738Y0063383D01*
X0023786Y0063491D01*
X0023838Y0063598D01*
X0023893Y0063703D01*
X0023952Y0063806D01*
X0024014Y0063906D01*
X0024079Y0064005D01*
X0024148Y0064102D01*
X0024219Y0064196D01*
X0024294Y0064287D01*
X0024372Y0064377D01*
X0024453Y0064463D01*
X0024537Y0064547D01*
X0024623Y0064628D01*
X0024713Y0064706D01*
X0024804Y0064781D01*
X0024898Y0064852D01*
X0024995Y0064921D01*
X0025094Y0064986D01*
X0025194Y0065048D01*
X0025297Y0065107D01*
X0025402Y0065162D01*
X0025509Y0065214D01*
X0025617Y0065262D01*
X0025727Y0065306D01*
X0025838Y0065347D01*
X0025950Y0065384D01*
X0026064Y0065417D01*
X0026179Y0065446D01*
X0026294Y0065472D01*
X0026411Y0065494D01*
X0026528Y0065511D01*
X0026645Y0065525D01*
X0026763Y0065535D01*
X0026882Y0065541D01*
X0027000Y0065543D01*
X0027118Y0065541D01*
X0027237Y0065535D01*
X0027355Y0065525D01*
X0027472Y0065511D01*
X0027589Y0065494D01*
X0027706Y0065472D01*
X0027821Y0065446D01*
X0027936Y0065417D01*
X0028050Y0065384D01*
X0028162Y0065347D01*
X0028273Y0065306D01*
X0028383Y0065262D01*
X0028491Y0065214D01*
X0028598Y0065162D01*
X0028703Y0065107D01*
X0028806Y0065048D01*
X0028906Y0064986D01*
X0029005Y0064921D01*
X0029102Y0064852D01*
X0029196Y0064781D01*
X0029287Y0064706D01*
X0029377Y0064628D01*
X0029463Y0064547D01*
X0029547Y0064463D01*
X0029628Y0064377D01*
X0029706Y0064287D01*
X0029781Y0064196D01*
X0029852Y0064102D01*
X0029921Y0064005D01*
X0029986Y0063906D01*
X0030048Y0063806D01*
X0030107Y0063703D01*
X0030162Y0063598D01*
X0030214Y0063491D01*
X0030262Y0063383D01*
X0030306Y0063273D01*
X0030347Y0063162D01*
X0030384Y0063050D01*
X0030417Y0062936D01*
X0030446Y0062821D01*
X0030472Y0062706D01*
X0030494Y0062589D01*
X0030511Y0062472D01*
X0030525Y0062355D01*
X0030535Y0062237D01*
X0030541Y0062118D01*
X0030543Y0062000D01*
X0030541Y0061882D01*
X0030535Y0061763D01*
X0030525Y0061645D01*
X0030511Y0061528D01*
X0030494Y0061411D01*
X0030472Y0061294D01*
X0030446Y0061179D01*
X0030417Y0061064D01*
X0030384Y0060950D01*
X0030347Y0060838D01*
X0030306Y0060727D01*
X0030262Y0060617D01*
X0030214Y0060509D01*
X0030162Y0060402D01*
X0030107Y0060297D01*
X0030048Y0060194D01*
X0029986Y0060094D01*
X0029921Y0059995D01*
X0029852Y0059898D01*
X0029781Y0059804D01*
X0029706Y0059713D01*
X0029628Y0059623D01*
X0029547Y0059537D01*
X0029463Y0059453D01*
X0029377Y0059372D01*
X0029287Y0059294D01*
X0029196Y0059219D01*
X0029102Y0059148D01*
X0029005Y0059079D01*
X0028906Y0059014D01*
X0028806Y0058952D01*
X0028703Y0058893D01*
X0028598Y0058838D01*
X0028491Y0058786D01*
X0028383Y0058738D01*
X0028273Y0058694D01*
X0028162Y0058653D01*
X0028050Y0058616D01*
X0027936Y0058583D01*
X0027821Y0058554D01*
X0027706Y0058528D01*
X0027589Y0058506D01*
X0027472Y0058489D01*
X0027355Y0058475D01*
X0027237Y0058465D01*
X0027118Y0058459D01*
X0027000Y0058457D01*
X0026882Y0058459D01*
X0026763Y0058465D01*
X0026645Y0058475D01*
X0026528Y0058489D01*
X0026411Y0058506D01*
X0026294Y0058528D01*
X0026179Y0058554D01*
X0026064Y0058583D01*
X0025950Y0058616D01*
X0025838Y0058653D01*
X0025727Y0058694D01*
X0025617Y0058738D01*
X0025509Y0058786D01*
X0025402Y0058838D01*
X0025297Y0058893D01*
X0025194Y0058952D01*
X0025094Y0059014D01*
X0024995Y0059079D01*
X0024898Y0059148D01*
X0024804Y0059219D01*
X0024713Y0059294D01*
X0024623Y0059372D01*
X0024537Y0059453D01*
X0024453Y0059537D01*
X0024372Y0059623D01*
X0024294Y0059713D01*
X0024219Y0059804D01*
X0024148Y0059898D01*
X0024079Y0059995D01*
X0024014Y0060094D01*
X0023952Y0060194D01*
X0023893Y0060297D01*
X0023838Y0060402D01*
X0023786Y0060509D01*
X0023738Y0060617D01*
X0023694Y0060727D01*
X0023653Y0060838D01*
X0023616Y0060950D01*
X0023583Y0061064D01*
X0023554Y0061179D01*
X0023528Y0061294D01*
X0023506Y0061411D01*
X0023489Y0061528D01*
X0023475Y0061645D01*
X0023465Y0061763D01*
X0023459Y0061882D01*
X0023457Y0062000D01*
X0022669Y0064756D02*
X0022669Y0066331D01*
X0024244Y0066331D01*
X0022169Y0070669D02*
X0022169Y0077756D01*
X0023744Y0079331D01*
X0030831Y0079331D01*
X0030831Y0070669D01*
X0022169Y0070669D01*
X0022957Y0075000D02*
X0022959Y0075118D01*
X0022965Y0075237D01*
X0022975Y0075355D01*
X0022989Y0075472D01*
X0023006Y0075589D01*
X0023028Y0075706D01*
X0023054Y0075821D01*
X0023083Y0075936D01*
X0023116Y0076050D01*
X0023153Y0076162D01*
X0023194Y0076273D01*
X0023238Y0076383D01*
X0023286Y0076491D01*
X0023338Y0076598D01*
X0023393Y0076703D01*
X0023452Y0076806D01*
X0023514Y0076906D01*
X0023579Y0077005D01*
X0023648Y0077102D01*
X0023719Y0077196D01*
X0023794Y0077287D01*
X0023872Y0077377D01*
X0023953Y0077463D01*
X0024037Y0077547D01*
X0024123Y0077628D01*
X0024213Y0077706D01*
X0024304Y0077781D01*
X0024398Y0077852D01*
X0024495Y0077921D01*
X0024594Y0077986D01*
X0024694Y0078048D01*
X0024797Y0078107D01*
X0024902Y0078162D01*
X0025009Y0078214D01*
X0025117Y0078262D01*
X0025227Y0078306D01*
X0025338Y0078347D01*
X0025450Y0078384D01*
X0025564Y0078417D01*
X0025679Y0078446D01*
X0025794Y0078472D01*
X0025911Y0078494D01*
X0026028Y0078511D01*
X0026145Y0078525D01*
X0026263Y0078535D01*
X0026382Y0078541D01*
X0026500Y0078543D01*
X0026618Y0078541D01*
X0026737Y0078535D01*
X0026855Y0078525D01*
X0026972Y0078511D01*
X0027089Y0078494D01*
X0027206Y0078472D01*
X0027321Y0078446D01*
X0027436Y0078417D01*
X0027550Y0078384D01*
X0027662Y0078347D01*
X0027773Y0078306D01*
X0027883Y0078262D01*
X0027991Y0078214D01*
X0028098Y0078162D01*
X0028203Y0078107D01*
X0028306Y0078048D01*
X0028406Y0077986D01*
X0028505Y0077921D01*
X0028602Y0077852D01*
X0028696Y0077781D01*
X0028787Y0077706D01*
X0028877Y0077628D01*
X0028963Y0077547D01*
X0029047Y0077463D01*
X0029128Y0077377D01*
X0029206Y0077287D01*
X0029281Y0077196D01*
X0029352Y0077102D01*
X0029421Y0077005D01*
X0029486Y0076906D01*
X0029548Y0076806D01*
X0029607Y0076703D01*
X0029662Y0076598D01*
X0029714Y0076491D01*
X0029762Y0076383D01*
X0029806Y0076273D01*
X0029847Y0076162D01*
X0029884Y0076050D01*
X0029917Y0075936D01*
X0029946Y0075821D01*
X0029972Y0075706D01*
X0029994Y0075589D01*
X0030011Y0075472D01*
X0030025Y0075355D01*
X0030035Y0075237D01*
X0030041Y0075118D01*
X0030043Y0075000D01*
X0030041Y0074882D01*
X0030035Y0074763D01*
X0030025Y0074645D01*
X0030011Y0074528D01*
X0029994Y0074411D01*
X0029972Y0074294D01*
X0029946Y0074179D01*
X0029917Y0074064D01*
X0029884Y0073950D01*
X0029847Y0073838D01*
X0029806Y0073727D01*
X0029762Y0073617D01*
X0029714Y0073509D01*
X0029662Y0073402D01*
X0029607Y0073297D01*
X0029548Y0073194D01*
X0029486Y0073094D01*
X0029421Y0072995D01*
X0029352Y0072898D01*
X0029281Y0072804D01*
X0029206Y0072713D01*
X0029128Y0072623D01*
X0029047Y0072537D01*
X0028963Y0072453D01*
X0028877Y0072372D01*
X0028787Y0072294D01*
X0028696Y0072219D01*
X0028602Y0072148D01*
X0028505Y0072079D01*
X0028406Y0072014D01*
X0028306Y0071952D01*
X0028203Y0071893D01*
X0028098Y0071838D01*
X0027991Y0071786D01*
X0027883Y0071738D01*
X0027773Y0071694D01*
X0027662Y0071653D01*
X0027550Y0071616D01*
X0027436Y0071583D01*
X0027321Y0071554D01*
X0027206Y0071528D01*
X0027089Y0071506D01*
X0026972Y0071489D01*
X0026855Y0071475D01*
X0026737Y0071465D01*
X0026618Y0071459D01*
X0026500Y0071457D01*
X0026382Y0071459D01*
X0026263Y0071465D01*
X0026145Y0071475D01*
X0026028Y0071489D01*
X0025911Y0071506D01*
X0025794Y0071528D01*
X0025679Y0071554D01*
X0025564Y0071583D01*
X0025450Y0071616D01*
X0025338Y0071653D01*
X0025227Y0071694D01*
X0025117Y0071738D01*
X0025009Y0071786D01*
X0024902Y0071838D01*
X0024797Y0071893D01*
X0024694Y0071952D01*
X0024594Y0072014D01*
X0024495Y0072079D01*
X0024398Y0072148D01*
X0024304Y0072219D01*
X0024213Y0072294D01*
X0024123Y0072372D01*
X0024037Y0072453D01*
X0023953Y0072537D01*
X0023872Y0072623D01*
X0023794Y0072713D01*
X0023719Y0072804D01*
X0023648Y0072898D01*
X0023579Y0072995D01*
X0023514Y0073094D01*
X0023452Y0073194D01*
X0023393Y0073297D01*
X0023338Y0073402D01*
X0023286Y0073509D01*
X0023238Y0073617D01*
X0023194Y0073727D01*
X0023153Y0073838D01*
X0023116Y0073950D01*
X0023083Y0074064D01*
X0023054Y0074179D01*
X0023028Y0074294D01*
X0023006Y0074411D01*
X0022989Y0074528D01*
X0022975Y0074645D01*
X0022965Y0074763D01*
X0022959Y0074882D01*
X0022957Y0075000D01*
X0022169Y0077756D02*
X0022169Y0079331D01*
X0023744Y0079331D01*
D11*
X0043000Y0081000D02*
X0043000Y0082500D01*
X0043500Y0083000D01*
X0043500Y0097000D01*
X0043000Y0097500D01*
X0043000Y0099000D01*
X0043002Y0099060D01*
X0043007Y0099121D01*
X0043016Y0099180D01*
X0043029Y0099239D01*
X0043045Y0099298D01*
X0043065Y0099355D01*
X0043088Y0099410D01*
X0043115Y0099465D01*
X0043144Y0099517D01*
X0043177Y0099568D01*
X0043213Y0099617D01*
X0043251Y0099663D01*
X0043293Y0099707D01*
X0043337Y0099749D01*
X0043383Y0099787D01*
X0043432Y0099823D01*
X0043483Y0099856D01*
X0043535Y0099885D01*
X0043590Y0099912D01*
X0043645Y0099935D01*
X0043702Y0099955D01*
X0043761Y0099971D01*
X0043820Y0099984D01*
X0043879Y0099993D01*
X0043940Y0099998D01*
X0044000Y0100000D01*
X0050000Y0100000D01*
X0050060Y0099998D01*
X0050121Y0099993D01*
X0050180Y0099984D01*
X0050239Y0099971D01*
X0050298Y0099955D01*
X0050355Y0099935D01*
X0050410Y0099912D01*
X0050465Y0099885D01*
X0050517Y0099856D01*
X0050568Y0099823D01*
X0050617Y0099787D01*
X0050663Y0099749D01*
X0050707Y0099707D01*
X0050749Y0099663D01*
X0050787Y0099617D01*
X0050823Y0099568D01*
X0050856Y0099517D01*
X0050885Y0099465D01*
X0050912Y0099410D01*
X0050935Y0099355D01*
X0050955Y0099298D01*
X0050971Y0099239D01*
X0050984Y0099180D01*
X0050993Y0099121D01*
X0050998Y0099060D01*
X0051000Y0099000D01*
X0051000Y0097500D01*
X0050500Y0097000D01*
X0050500Y0083000D01*
X0051000Y0082500D01*
X0051000Y0081000D01*
X0050998Y0080940D01*
X0050993Y0080879D01*
X0050984Y0080820D01*
X0050971Y0080761D01*
X0050955Y0080702D01*
X0050935Y0080645D01*
X0050912Y0080590D01*
X0050885Y0080535D01*
X0050856Y0080483D01*
X0050823Y0080432D01*
X0050787Y0080383D01*
X0050749Y0080337D01*
X0050707Y0080293D01*
X0050663Y0080251D01*
X0050617Y0080213D01*
X0050568Y0080177D01*
X0050517Y0080144D01*
X0050465Y0080115D01*
X0050410Y0080088D01*
X0050355Y0080065D01*
X0050298Y0080045D01*
X0050239Y0080029D01*
X0050180Y0080016D01*
X0050121Y0080007D01*
X0050060Y0080002D01*
X0050000Y0080000D01*
X0044000Y0080000D01*
X0043940Y0080002D01*
X0043879Y0080007D01*
X0043820Y0080016D01*
X0043761Y0080029D01*
X0043702Y0080045D01*
X0043645Y0080065D01*
X0043590Y0080088D01*
X0043535Y0080115D01*
X0043483Y0080144D01*
X0043432Y0080177D01*
X0043383Y0080213D01*
X0043337Y0080251D01*
X0043293Y0080293D01*
X0043251Y0080337D01*
X0043213Y0080383D01*
X0043177Y0080432D01*
X0043144Y0080483D01*
X0043115Y0080535D01*
X0043088Y0080590D01*
X0043065Y0080645D01*
X0043045Y0080702D01*
X0043029Y0080761D01*
X0043016Y0080820D01*
X0043007Y0080879D01*
X0043002Y0080940D01*
X0043000Y0081000D01*
X0136000Y0108000D02*
X0136000Y0109500D01*
X0136500Y0110000D01*
X0136500Y0124000D01*
X0136000Y0124500D01*
X0136000Y0126000D01*
X0136002Y0126060D01*
X0136007Y0126121D01*
X0136016Y0126180D01*
X0136029Y0126239D01*
X0136045Y0126298D01*
X0136065Y0126355D01*
X0136088Y0126410D01*
X0136115Y0126465D01*
X0136144Y0126517D01*
X0136177Y0126568D01*
X0136213Y0126617D01*
X0136251Y0126663D01*
X0136293Y0126707D01*
X0136337Y0126749D01*
X0136383Y0126787D01*
X0136432Y0126823D01*
X0136483Y0126856D01*
X0136535Y0126885D01*
X0136590Y0126912D01*
X0136645Y0126935D01*
X0136702Y0126955D01*
X0136761Y0126971D01*
X0136820Y0126984D01*
X0136879Y0126993D01*
X0136940Y0126998D01*
X0137000Y0127000D01*
X0143000Y0127000D01*
X0143060Y0126998D01*
X0143121Y0126993D01*
X0143180Y0126984D01*
X0143239Y0126971D01*
X0143298Y0126955D01*
X0143355Y0126935D01*
X0143410Y0126912D01*
X0143465Y0126885D01*
X0143517Y0126856D01*
X0143568Y0126823D01*
X0143617Y0126787D01*
X0143663Y0126749D01*
X0143707Y0126707D01*
X0143749Y0126663D01*
X0143787Y0126617D01*
X0143823Y0126568D01*
X0143856Y0126517D01*
X0143885Y0126465D01*
X0143912Y0126410D01*
X0143935Y0126355D01*
X0143955Y0126298D01*
X0143971Y0126239D01*
X0143984Y0126180D01*
X0143993Y0126121D01*
X0143998Y0126060D01*
X0144000Y0126000D01*
X0144000Y0124500D01*
X0143500Y0124000D01*
X0143500Y0110000D01*
X0144000Y0109500D01*
X0144000Y0108000D01*
X0143998Y0107940D01*
X0143993Y0107879D01*
X0143984Y0107820D01*
X0143971Y0107761D01*
X0143955Y0107702D01*
X0143935Y0107645D01*
X0143912Y0107590D01*
X0143885Y0107535D01*
X0143856Y0107483D01*
X0143823Y0107432D01*
X0143787Y0107383D01*
X0143749Y0107337D01*
X0143707Y0107293D01*
X0143663Y0107251D01*
X0143617Y0107213D01*
X0143568Y0107177D01*
X0143517Y0107144D01*
X0143465Y0107115D01*
X0143410Y0107088D01*
X0143355Y0107065D01*
X0143298Y0107045D01*
X0143239Y0107029D01*
X0143180Y0107016D01*
X0143121Y0107007D01*
X0143060Y0107002D01*
X0143000Y0107000D01*
X0137000Y0107000D01*
X0136940Y0107002D01*
X0136879Y0107007D01*
X0136820Y0107016D01*
X0136761Y0107029D01*
X0136702Y0107045D01*
X0136645Y0107065D01*
X0136590Y0107088D01*
X0136535Y0107115D01*
X0136483Y0107144D01*
X0136432Y0107177D01*
X0136383Y0107213D01*
X0136337Y0107251D01*
X0136293Y0107293D01*
X0136251Y0107337D01*
X0136213Y0107383D01*
X0136177Y0107432D01*
X0136144Y0107483D01*
X0136115Y0107535D01*
X0136088Y0107590D01*
X0136065Y0107645D01*
X0136045Y0107702D01*
X0136029Y0107761D01*
X0136016Y0107820D01*
X0136007Y0107879D01*
X0136002Y0107940D01*
X0136000Y0108000D01*
X0148000Y0090500D02*
X0148000Y0081500D01*
X0149000Y0080500D01*
X0148000Y0079500D01*
X0148000Y0071500D01*
X0149000Y0070500D01*
X0148000Y0069500D01*
X0148000Y0061500D01*
X0149000Y0060500D01*
X0148000Y0059500D01*
X0148000Y0051500D01*
X0149000Y0050500D01*
X0148000Y0049500D01*
X0148000Y0040500D01*
X0158000Y0040500D01*
X0158000Y0049500D01*
X0157000Y0050500D01*
X0158000Y0051500D01*
X0158000Y0059500D01*
X0157000Y0060500D01*
X0158000Y0061500D01*
X0158000Y0069500D01*
X0157000Y0070500D01*
X0158000Y0071500D01*
X0158000Y0079500D01*
X0157000Y0080500D01*
X0158000Y0081500D01*
X0158000Y0090500D01*
X0148000Y0090500D01*
X0152000Y0108000D02*
X0158000Y0108000D01*
X0158060Y0108002D01*
X0158121Y0108007D01*
X0158180Y0108016D01*
X0158239Y0108029D01*
X0158298Y0108045D01*
X0158355Y0108065D01*
X0158410Y0108088D01*
X0158465Y0108115D01*
X0158517Y0108144D01*
X0158568Y0108177D01*
X0158617Y0108213D01*
X0158663Y0108251D01*
X0158707Y0108293D01*
X0158749Y0108337D01*
X0158787Y0108383D01*
X0158823Y0108432D01*
X0158856Y0108483D01*
X0158885Y0108535D01*
X0158912Y0108590D01*
X0158935Y0108645D01*
X0158955Y0108702D01*
X0158971Y0108761D01*
X0158984Y0108820D01*
X0158993Y0108879D01*
X0158998Y0108940D01*
X0159000Y0109000D01*
X0159000Y0110500D01*
X0158500Y0111000D01*
X0158500Y0125000D01*
X0159000Y0125500D01*
X0159000Y0127000D01*
X0158998Y0127060D01*
X0158993Y0127121D01*
X0158984Y0127180D01*
X0158971Y0127239D01*
X0158955Y0127298D01*
X0158935Y0127355D01*
X0158912Y0127410D01*
X0158885Y0127465D01*
X0158856Y0127517D01*
X0158823Y0127568D01*
X0158787Y0127617D01*
X0158749Y0127663D01*
X0158707Y0127707D01*
X0158663Y0127749D01*
X0158617Y0127787D01*
X0158568Y0127823D01*
X0158517Y0127856D01*
X0158465Y0127885D01*
X0158410Y0127912D01*
X0158355Y0127935D01*
X0158298Y0127955D01*
X0158239Y0127971D01*
X0158180Y0127984D01*
X0158121Y0127993D01*
X0158060Y0127998D01*
X0158000Y0128000D01*
X0152000Y0128000D01*
X0151940Y0127998D01*
X0151879Y0127993D01*
X0151820Y0127984D01*
X0151761Y0127971D01*
X0151702Y0127955D01*
X0151645Y0127935D01*
X0151590Y0127912D01*
X0151535Y0127885D01*
X0151483Y0127856D01*
X0151432Y0127823D01*
X0151383Y0127787D01*
X0151337Y0127749D01*
X0151293Y0127707D01*
X0151251Y0127663D01*
X0151213Y0127617D01*
X0151177Y0127568D01*
X0151144Y0127517D01*
X0151115Y0127465D01*
X0151088Y0127410D01*
X0151065Y0127355D01*
X0151045Y0127298D01*
X0151029Y0127239D01*
X0151016Y0127180D01*
X0151007Y0127121D01*
X0151002Y0127060D01*
X0151000Y0127000D01*
X0151000Y0125500D01*
X0151500Y0125000D01*
X0151500Y0111000D01*
X0151000Y0110500D01*
X0151000Y0109000D01*
X0151002Y0108940D01*
X0151007Y0108879D01*
X0151016Y0108820D01*
X0151029Y0108761D01*
X0151045Y0108702D01*
X0151065Y0108645D01*
X0151088Y0108590D01*
X0151115Y0108535D01*
X0151144Y0108483D01*
X0151177Y0108432D01*
X0151213Y0108383D01*
X0151251Y0108337D01*
X0151293Y0108293D01*
X0151337Y0108251D01*
X0151383Y0108213D01*
X0151432Y0108177D01*
X0151483Y0108144D01*
X0151535Y0108115D01*
X0151590Y0108088D01*
X0151645Y0108065D01*
X0151702Y0108045D01*
X0151761Y0108029D01*
X0151820Y0108016D01*
X0151879Y0108007D01*
X0151940Y0108002D01*
X0152000Y0108000D01*
X0185000Y0070000D02*
X0185000Y0065000D01*
X0185002Y0064913D01*
X0185008Y0064826D01*
X0185017Y0064739D01*
X0185030Y0064653D01*
X0185047Y0064567D01*
X0185068Y0064482D01*
X0185093Y0064399D01*
X0185121Y0064316D01*
X0185152Y0064235D01*
X0185187Y0064155D01*
X0185226Y0064077D01*
X0185268Y0064000D01*
X0185313Y0063925D01*
X0185362Y0063853D01*
X0185413Y0063782D01*
X0185468Y0063714D01*
X0185525Y0063649D01*
X0185586Y0063586D01*
X0185649Y0063525D01*
X0185714Y0063468D01*
X0185782Y0063413D01*
X0185853Y0063362D01*
X0185925Y0063313D01*
X0186000Y0063268D01*
X0186077Y0063226D01*
X0186155Y0063187D01*
X0186235Y0063152D01*
X0186316Y0063121D01*
X0186399Y0063093D01*
X0186482Y0063068D01*
X0186567Y0063047D01*
X0186653Y0063030D01*
X0186739Y0063017D01*
X0186826Y0063008D01*
X0186913Y0063002D01*
X0187000Y0063000D01*
X0200000Y0063000D01*
X0200087Y0063002D01*
X0200174Y0063008D01*
X0200261Y0063017D01*
X0200347Y0063030D01*
X0200433Y0063047D01*
X0200518Y0063068D01*
X0200601Y0063093D01*
X0200684Y0063121D01*
X0200765Y0063152D01*
X0200845Y0063187D01*
X0200923Y0063226D01*
X0201000Y0063268D01*
X0201075Y0063313D01*
X0201147Y0063362D01*
X0201218Y0063413D01*
X0201286Y0063468D01*
X0201351Y0063525D01*
X0201414Y0063586D01*
X0201475Y0063649D01*
X0201532Y0063714D01*
X0201587Y0063782D01*
X0201638Y0063853D01*
X0201687Y0063925D01*
X0201732Y0064000D01*
X0201774Y0064077D01*
X0201813Y0064155D01*
X0201848Y0064235D01*
X0201879Y0064316D01*
X0201907Y0064399D01*
X0201932Y0064482D01*
X0201953Y0064567D01*
X0201970Y0064653D01*
X0201983Y0064739D01*
X0201992Y0064826D01*
X0201998Y0064913D01*
X0202000Y0065000D01*
X0202000Y0070000D01*
X0201998Y0070087D01*
X0201992Y0070174D01*
X0201983Y0070261D01*
X0201970Y0070347D01*
X0201953Y0070433D01*
X0201932Y0070518D01*
X0201907Y0070601D01*
X0201879Y0070684D01*
X0201848Y0070765D01*
X0201813Y0070845D01*
X0201774Y0070923D01*
X0201732Y0071000D01*
X0201687Y0071075D01*
X0201638Y0071147D01*
X0201587Y0071218D01*
X0201532Y0071286D01*
X0201475Y0071351D01*
X0201414Y0071414D01*
X0201351Y0071475D01*
X0201286Y0071532D01*
X0201218Y0071587D01*
X0201147Y0071638D01*
X0201075Y0071687D01*
X0201000Y0071732D01*
X0200923Y0071774D01*
X0200845Y0071813D01*
X0200765Y0071848D01*
X0200684Y0071879D01*
X0200601Y0071907D01*
X0200518Y0071932D01*
X0200433Y0071953D01*
X0200347Y0071970D01*
X0200261Y0071983D01*
X0200174Y0071992D01*
X0200087Y0071998D01*
X0200000Y0072000D01*
X0187000Y0072000D01*
X0186913Y0071998D01*
X0186826Y0071992D01*
X0186739Y0071983D01*
X0186653Y0071970D01*
X0186567Y0071953D01*
X0186482Y0071932D01*
X0186399Y0071907D01*
X0186316Y0071879D01*
X0186235Y0071848D01*
X0186155Y0071813D01*
X0186077Y0071774D01*
X0186000Y0071732D01*
X0185925Y0071687D01*
X0185853Y0071638D01*
X0185782Y0071587D01*
X0185714Y0071532D01*
X0185649Y0071475D01*
X0185586Y0071414D01*
X0185525Y0071351D01*
X0185468Y0071286D01*
X0185413Y0071218D01*
X0185362Y0071147D01*
X0185313Y0071075D01*
X0185268Y0071000D01*
X0185226Y0070923D01*
X0185187Y0070845D01*
X0185152Y0070765D01*
X0185121Y0070684D01*
X0185093Y0070601D01*
X0185068Y0070518D01*
X0185047Y0070433D01*
X0185030Y0070347D01*
X0185017Y0070261D01*
X0185008Y0070174D01*
X0185002Y0070087D01*
X0185000Y0070000D01*
X0186406Y0090508D02*
X0186406Y0100508D01*
X0202406Y0100508D01*
X0202406Y0090508D01*
X0186406Y0090508D01*
X0191906Y0095508D02*
X0194406Y0095508D01*
X0194406Y0093008D01*
X0194406Y0095508D02*
X0194406Y0098008D01*
X0194406Y0095508D02*
X0198406Y0098008D01*
X0198406Y0093008D01*
X0194406Y0095508D01*
X0200406Y0095508D01*
X0202500Y0115500D02*
X0186500Y0115500D01*
X0186500Y0125500D01*
X0202500Y0125500D01*
X0202500Y0115500D01*
X0198500Y0118000D02*
X0194500Y0120500D01*
X0194500Y0118000D01*
X0194500Y0120500D02*
X0192000Y0120500D01*
X0194500Y0120500D02*
X0194500Y0123000D01*
X0194500Y0120500D02*
X0198500Y0123000D01*
X0198500Y0118000D01*
X0200500Y0120500D02*
X0194500Y0120500D01*
X0187000Y0141000D02*
X0187000Y0151000D01*
X0203000Y0151000D01*
X0203000Y0141000D01*
X0187000Y0141000D01*
X0192500Y0146000D02*
X0195000Y0146000D01*
X0195000Y0143500D01*
X0195000Y0146000D02*
X0195000Y0148500D01*
X0195000Y0146000D02*
X0199000Y0148500D01*
X0199000Y0143500D01*
X0195000Y0146000D01*
X0201000Y0146000D01*
X0201500Y0165500D02*
X0200000Y0165500D01*
X0199500Y0166000D01*
X0185500Y0166000D01*
X0185000Y0165500D01*
X0183500Y0165500D01*
X0183440Y0165502D01*
X0183379Y0165507D01*
X0183320Y0165516D01*
X0183261Y0165529D01*
X0183202Y0165545D01*
X0183145Y0165565D01*
X0183090Y0165588D01*
X0183035Y0165615D01*
X0182983Y0165644D01*
X0182932Y0165677D01*
X0182883Y0165713D01*
X0182837Y0165751D01*
X0182793Y0165793D01*
X0182751Y0165837D01*
X0182713Y0165883D01*
X0182677Y0165932D01*
X0182644Y0165983D01*
X0182615Y0166035D01*
X0182588Y0166090D01*
X0182565Y0166145D01*
X0182545Y0166202D01*
X0182529Y0166261D01*
X0182516Y0166320D01*
X0182507Y0166379D01*
X0182502Y0166440D01*
X0182500Y0166500D01*
X0182500Y0172500D01*
X0182502Y0172560D01*
X0182507Y0172621D01*
X0182516Y0172680D01*
X0182529Y0172739D01*
X0182545Y0172798D01*
X0182565Y0172855D01*
X0182588Y0172910D01*
X0182615Y0172965D01*
X0182644Y0173017D01*
X0182677Y0173068D01*
X0182713Y0173117D01*
X0182751Y0173163D01*
X0182793Y0173207D01*
X0182837Y0173249D01*
X0182883Y0173287D01*
X0182932Y0173323D01*
X0182983Y0173356D01*
X0183035Y0173385D01*
X0183090Y0173412D01*
X0183145Y0173435D01*
X0183202Y0173455D01*
X0183261Y0173471D01*
X0183320Y0173484D01*
X0183379Y0173493D01*
X0183440Y0173498D01*
X0183500Y0173500D01*
X0185000Y0173500D01*
X0185500Y0173000D01*
X0199500Y0173000D01*
X0200000Y0173500D01*
X0201500Y0173500D01*
X0201560Y0173498D01*
X0201621Y0173493D01*
X0201680Y0173484D01*
X0201739Y0173471D01*
X0201798Y0173455D01*
X0201855Y0173435D01*
X0201910Y0173412D01*
X0201965Y0173385D01*
X0202017Y0173356D01*
X0202068Y0173323D01*
X0202117Y0173287D01*
X0202163Y0173249D01*
X0202207Y0173207D01*
X0202249Y0173163D01*
X0202287Y0173117D01*
X0202323Y0173068D01*
X0202356Y0173017D01*
X0202385Y0172965D01*
X0202412Y0172910D01*
X0202435Y0172855D01*
X0202455Y0172798D01*
X0202471Y0172739D01*
X0202484Y0172680D01*
X0202493Y0172621D01*
X0202498Y0172560D01*
X0202500Y0172500D01*
X0202500Y0166500D01*
X0202498Y0166440D01*
X0202493Y0166379D01*
X0202484Y0166320D01*
X0202471Y0166261D01*
X0202455Y0166202D01*
X0202435Y0166145D01*
X0202412Y0166090D01*
X0202385Y0166035D01*
X0202356Y0165983D01*
X0202323Y0165932D01*
X0202287Y0165883D01*
X0202249Y0165837D01*
X0202207Y0165793D01*
X0202163Y0165751D01*
X0202117Y0165713D01*
X0202068Y0165677D01*
X0202017Y0165644D01*
X0201965Y0165615D01*
X0201910Y0165588D01*
X0201855Y0165565D01*
X0201798Y0165545D01*
X0201739Y0165529D01*
X0201680Y0165516D01*
X0201621Y0165507D01*
X0201560Y0165502D01*
X0201500Y0165500D01*
X0201000Y0183500D02*
X0200500Y0184000D01*
X0186500Y0184000D01*
X0186000Y0183500D01*
X0184500Y0183500D01*
X0184440Y0183502D01*
X0184379Y0183507D01*
X0184320Y0183516D01*
X0184261Y0183529D01*
X0184202Y0183545D01*
X0184145Y0183565D01*
X0184090Y0183588D01*
X0184035Y0183615D01*
X0183983Y0183644D01*
X0183932Y0183677D01*
X0183883Y0183713D01*
X0183837Y0183751D01*
X0183793Y0183793D01*
X0183751Y0183837D01*
X0183713Y0183883D01*
X0183677Y0183932D01*
X0183644Y0183983D01*
X0183615Y0184035D01*
X0183588Y0184090D01*
X0183565Y0184145D01*
X0183545Y0184202D01*
X0183529Y0184261D01*
X0183516Y0184320D01*
X0183507Y0184379D01*
X0183502Y0184440D01*
X0183500Y0184500D01*
X0183500Y0190500D01*
X0183502Y0190560D01*
X0183507Y0190621D01*
X0183516Y0190680D01*
X0183529Y0190739D01*
X0183545Y0190798D01*
X0183565Y0190855D01*
X0183588Y0190910D01*
X0183615Y0190965D01*
X0183644Y0191017D01*
X0183677Y0191068D01*
X0183713Y0191117D01*
X0183751Y0191163D01*
X0183793Y0191207D01*
X0183837Y0191249D01*
X0183883Y0191287D01*
X0183932Y0191323D01*
X0183983Y0191356D01*
X0184035Y0191385D01*
X0184090Y0191412D01*
X0184145Y0191435D01*
X0184202Y0191455D01*
X0184261Y0191471D01*
X0184320Y0191484D01*
X0184379Y0191493D01*
X0184440Y0191498D01*
X0184500Y0191500D01*
X0186000Y0191500D01*
X0186500Y0191000D01*
X0200500Y0191000D01*
X0201000Y0191500D01*
X0202500Y0191500D01*
X0202560Y0191498D01*
X0202621Y0191493D01*
X0202680Y0191484D01*
X0202739Y0191471D01*
X0202798Y0191455D01*
X0202855Y0191435D01*
X0202910Y0191412D01*
X0202965Y0191385D01*
X0203017Y0191356D01*
X0203068Y0191323D01*
X0203117Y0191287D01*
X0203163Y0191249D01*
X0203207Y0191207D01*
X0203249Y0191163D01*
X0203287Y0191117D01*
X0203323Y0191068D01*
X0203356Y0191017D01*
X0203385Y0190965D01*
X0203412Y0190910D01*
X0203435Y0190855D01*
X0203455Y0190798D01*
X0203471Y0190739D01*
X0203484Y0190680D01*
X0203493Y0190621D01*
X0203498Y0190560D01*
X0203500Y0190500D01*
X0203500Y0184500D01*
X0203498Y0184440D01*
X0203493Y0184379D01*
X0203484Y0184320D01*
X0203471Y0184261D01*
X0203455Y0184202D01*
X0203435Y0184145D01*
X0203412Y0184090D01*
X0203385Y0184035D01*
X0203356Y0183983D01*
X0203323Y0183932D01*
X0203287Y0183883D01*
X0203249Y0183837D01*
X0203207Y0183793D01*
X0203163Y0183751D01*
X0203117Y0183713D01*
X0203068Y0183677D01*
X0203017Y0183644D01*
X0202965Y0183615D01*
X0202910Y0183588D01*
X0202855Y0183565D01*
X0202798Y0183545D01*
X0202739Y0183529D01*
X0202680Y0183516D01*
X0202621Y0183507D01*
X0202560Y0183502D01*
X0202500Y0183500D01*
X0201000Y0183500D01*
X0202000Y0201000D02*
X0201500Y0201500D01*
X0187500Y0201500D01*
X0187000Y0201000D01*
X0185500Y0201000D01*
X0185440Y0201002D01*
X0185379Y0201007D01*
X0185320Y0201016D01*
X0185261Y0201029D01*
X0185202Y0201045D01*
X0185145Y0201065D01*
X0185090Y0201088D01*
X0185035Y0201115D01*
X0184983Y0201144D01*
X0184932Y0201177D01*
X0184883Y0201213D01*
X0184837Y0201251D01*
X0184793Y0201293D01*
X0184751Y0201337D01*
X0184713Y0201383D01*
X0184677Y0201432D01*
X0184644Y0201483D01*
X0184615Y0201535D01*
X0184588Y0201590D01*
X0184565Y0201645D01*
X0184545Y0201702D01*
X0184529Y0201761D01*
X0184516Y0201820D01*
X0184507Y0201879D01*
X0184502Y0201940D01*
X0184500Y0202000D01*
X0184500Y0208000D01*
X0184502Y0208060D01*
X0184507Y0208121D01*
X0184516Y0208180D01*
X0184529Y0208239D01*
X0184545Y0208298D01*
X0184565Y0208355D01*
X0184588Y0208410D01*
X0184615Y0208465D01*
X0184644Y0208517D01*
X0184677Y0208568D01*
X0184713Y0208617D01*
X0184751Y0208663D01*
X0184793Y0208707D01*
X0184837Y0208749D01*
X0184883Y0208787D01*
X0184932Y0208823D01*
X0184983Y0208856D01*
X0185035Y0208885D01*
X0185090Y0208912D01*
X0185145Y0208935D01*
X0185202Y0208955D01*
X0185261Y0208971D01*
X0185320Y0208984D01*
X0185379Y0208993D01*
X0185440Y0208998D01*
X0185500Y0209000D01*
X0187000Y0209000D01*
X0187500Y0208500D01*
X0201500Y0208500D01*
X0202000Y0209000D01*
X0203500Y0209000D01*
X0203560Y0208998D01*
X0203621Y0208993D01*
X0203680Y0208984D01*
X0203739Y0208971D01*
X0203798Y0208955D01*
X0203855Y0208935D01*
X0203910Y0208912D01*
X0203965Y0208885D01*
X0204017Y0208856D01*
X0204068Y0208823D01*
X0204117Y0208787D01*
X0204163Y0208749D01*
X0204207Y0208707D01*
X0204249Y0208663D01*
X0204287Y0208617D01*
X0204323Y0208568D01*
X0204356Y0208517D01*
X0204385Y0208465D01*
X0204412Y0208410D01*
X0204435Y0208355D01*
X0204455Y0208298D01*
X0204471Y0208239D01*
X0204484Y0208180D01*
X0204493Y0208121D01*
X0204498Y0208060D01*
X0204500Y0208000D01*
X0204500Y0202000D01*
X0204498Y0201940D01*
X0204493Y0201879D01*
X0204484Y0201820D01*
X0204471Y0201761D01*
X0204455Y0201702D01*
X0204435Y0201645D01*
X0204412Y0201590D01*
X0204385Y0201535D01*
X0204356Y0201483D01*
X0204323Y0201432D01*
X0204287Y0201383D01*
X0204249Y0201337D01*
X0204207Y0201293D01*
X0204163Y0201251D01*
X0204117Y0201213D01*
X0204068Y0201177D01*
X0204017Y0201144D01*
X0203965Y0201115D01*
X0203910Y0201088D01*
X0203855Y0201065D01*
X0203798Y0201045D01*
X0203739Y0201029D01*
X0203680Y0201016D01*
X0203621Y0201007D01*
X0203560Y0201002D01*
X0203500Y0201000D01*
X0202000Y0201000D01*
X0164500Y0158000D02*
X0151500Y0158000D01*
X0151413Y0157998D01*
X0151326Y0157992D01*
X0151239Y0157983D01*
X0151153Y0157970D01*
X0151067Y0157953D01*
X0150982Y0157932D01*
X0150899Y0157907D01*
X0150816Y0157879D01*
X0150735Y0157848D01*
X0150655Y0157813D01*
X0150577Y0157774D01*
X0150500Y0157732D01*
X0150425Y0157687D01*
X0150353Y0157638D01*
X0150282Y0157587D01*
X0150214Y0157532D01*
X0150149Y0157475D01*
X0150086Y0157414D01*
X0150025Y0157351D01*
X0149968Y0157286D01*
X0149913Y0157218D01*
X0149862Y0157147D01*
X0149813Y0157075D01*
X0149768Y0157000D01*
X0149726Y0156923D01*
X0149687Y0156845D01*
X0149652Y0156765D01*
X0149621Y0156684D01*
X0149593Y0156601D01*
X0149568Y0156518D01*
X0149547Y0156433D01*
X0149530Y0156347D01*
X0149517Y0156261D01*
X0149508Y0156174D01*
X0149502Y0156087D01*
X0149500Y0156000D01*
X0149500Y0151000D01*
X0149502Y0150913D01*
X0149508Y0150826D01*
X0149517Y0150739D01*
X0149530Y0150653D01*
X0149547Y0150567D01*
X0149568Y0150482D01*
X0149593Y0150399D01*
X0149621Y0150316D01*
X0149652Y0150235D01*
X0149687Y0150155D01*
X0149726Y0150077D01*
X0149768Y0150000D01*
X0149813Y0149925D01*
X0149862Y0149853D01*
X0149913Y0149782D01*
X0149968Y0149714D01*
X0150025Y0149649D01*
X0150086Y0149586D01*
X0150149Y0149525D01*
X0150214Y0149468D01*
X0150282Y0149413D01*
X0150353Y0149362D01*
X0150425Y0149313D01*
X0150500Y0149268D01*
X0150577Y0149226D01*
X0150655Y0149187D01*
X0150735Y0149152D01*
X0150816Y0149121D01*
X0150899Y0149093D01*
X0150982Y0149068D01*
X0151067Y0149047D01*
X0151153Y0149030D01*
X0151239Y0149017D01*
X0151326Y0149008D01*
X0151413Y0149002D01*
X0151500Y0149000D01*
X0164500Y0149000D01*
X0164587Y0149002D01*
X0164674Y0149008D01*
X0164761Y0149017D01*
X0164847Y0149030D01*
X0164933Y0149047D01*
X0165018Y0149068D01*
X0165101Y0149093D01*
X0165184Y0149121D01*
X0165265Y0149152D01*
X0165345Y0149187D01*
X0165423Y0149226D01*
X0165500Y0149268D01*
X0165575Y0149313D01*
X0165647Y0149362D01*
X0165718Y0149413D01*
X0165786Y0149468D01*
X0165851Y0149525D01*
X0165914Y0149586D01*
X0165975Y0149649D01*
X0166032Y0149714D01*
X0166087Y0149782D01*
X0166138Y0149853D01*
X0166187Y0149925D01*
X0166232Y0150000D01*
X0166274Y0150077D01*
X0166313Y0150155D01*
X0166348Y0150235D01*
X0166379Y0150316D01*
X0166407Y0150399D01*
X0166432Y0150482D01*
X0166453Y0150567D01*
X0166470Y0150653D01*
X0166483Y0150739D01*
X0166492Y0150826D01*
X0166498Y0150913D01*
X0166500Y0151000D01*
X0166500Y0156000D01*
X0166498Y0156087D01*
X0166492Y0156174D01*
X0166483Y0156261D01*
X0166470Y0156347D01*
X0166453Y0156433D01*
X0166432Y0156518D01*
X0166407Y0156601D01*
X0166379Y0156684D01*
X0166348Y0156765D01*
X0166313Y0156845D01*
X0166274Y0156923D01*
X0166232Y0157000D01*
X0166187Y0157075D01*
X0166138Y0157147D01*
X0166087Y0157218D01*
X0166032Y0157286D01*
X0165975Y0157351D01*
X0165914Y0157414D01*
X0165851Y0157475D01*
X0165786Y0157532D01*
X0165718Y0157587D01*
X0165647Y0157638D01*
X0165575Y0157687D01*
X0165500Y0157732D01*
X0165423Y0157774D01*
X0165345Y0157813D01*
X0165265Y0157848D01*
X0165184Y0157879D01*
X0165101Y0157907D01*
X0165018Y0157932D01*
X0164933Y0157953D01*
X0164847Y0157970D01*
X0164761Y0157983D01*
X0164674Y0157992D01*
X0164587Y0157998D01*
X0164500Y0158000D01*
X0157500Y0167000D02*
X0157500Y0176000D01*
X0156500Y0177000D01*
X0157500Y0178000D01*
X0157500Y0186000D01*
X0156500Y0187000D01*
X0157500Y0188000D01*
X0157500Y0196000D01*
X0156500Y0197000D01*
X0157500Y0198000D01*
X0157500Y0206000D01*
X0156500Y0207000D01*
X0157500Y0208000D01*
X0157500Y0217000D01*
X0147500Y0217000D01*
X0147500Y0208000D01*
X0148500Y0207000D01*
X0147500Y0206000D01*
X0147500Y0198000D01*
X0148500Y0197000D01*
X0147500Y0196000D01*
X0147500Y0188000D01*
X0148500Y0187000D01*
X0147500Y0186000D01*
X0147500Y0178000D01*
X0148500Y0177000D01*
X0147500Y0176000D01*
X0147500Y0167000D01*
X0157500Y0167000D01*
X0052000Y0228500D02*
X0052000Y0230000D01*
X0051500Y0230500D01*
X0051500Y0244500D01*
X0052000Y0245000D01*
X0052000Y0246500D01*
X0051998Y0246560D01*
X0051993Y0246621D01*
X0051984Y0246680D01*
X0051971Y0246739D01*
X0051955Y0246798D01*
X0051935Y0246855D01*
X0051912Y0246910D01*
X0051885Y0246965D01*
X0051856Y0247017D01*
X0051823Y0247068D01*
X0051787Y0247117D01*
X0051749Y0247163D01*
X0051707Y0247207D01*
X0051663Y0247249D01*
X0051617Y0247287D01*
X0051568Y0247323D01*
X0051517Y0247356D01*
X0051465Y0247385D01*
X0051410Y0247412D01*
X0051355Y0247435D01*
X0051298Y0247455D01*
X0051239Y0247471D01*
X0051180Y0247484D01*
X0051121Y0247493D01*
X0051060Y0247498D01*
X0051000Y0247500D01*
X0045000Y0247500D01*
X0044940Y0247498D01*
X0044879Y0247493D01*
X0044820Y0247484D01*
X0044761Y0247471D01*
X0044702Y0247455D01*
X0044645Y0247435D01*
X0044590Y0247412D01*
X0044535Y0247385D01*
X0044483Y0247356D01*
X0044432Y0247323D01*
X0044383Y0247287D01*
X0044337Y0247249D01*
X0044293Y0247207D01*
X0044251Y0247163D01*
X0044213Y0247117D01*
X0044177Y0247068D01*
X0044144Y0247017D01*
X0044115Y0246965D01*
X0044088Y0246910D01*
X0044065Y0246855D01*
X0044045Y0246798D01*
X0044029Y0246739D01*
X0044016Y0246680D01*
X0044007Y0246621D01*
X0044002Y0246560D01*
X0044000Y0246500D01*
X0044000Y0245000D01*
X0044500Y0244500D01*
X0044500Y0230500D01*
X0044000Y0230000D01*
X0044000Y0228500D01*
X0044002Y0228440D01*
X0044007Y0228379D01*
X0044016Y0228320D01*
X0044029Y0228261D01*
X0044045Y0228202D01*
X0044065Y0228145D01*
X0044088Y0228090D01*
X0044115Y0228035D01*
X0044144Y0227983D01*
X0044177Y0227932D01*
X0044213Y0227883D01*
X0044251Y0227837D01*
X0044293Y0227793D01*
X0044337Y0227751D01*
X0044383Y0227713D01*
X0044432Y0227677D01*
X0044483Y0227644D01*
X0044535Y0227615D01*
X0044590Y0227588D01*
X0044645Y0227565D01*
X0044702Y0227545D01*
X0044761Y0227529D01*
X0044820Y0227516D01*
X0044879Y0227507D01*
X0044940Y0227502D01*
X0045000Y0227500D01*
X0051000Y0227500D01*
X0051060Y0227502D01*
X0051121Y0227507D01*
X0051180Y0227516D01*
X0051239Y0227529D01*
X0051298Y0227545D01*
X0051355Y0227565D01*
X0051410Y0227588D01*
X0051465Y0227615D01*
X0051517Y0227644D01*
X0051568Y0227677D01*
X0051617Y0227713D01*
X0051663Y0227751D01*
X0051707Y0227793D01*
X0051749Y0227837D01*
X0051787Y0227883D01*
X0051823Y0227932D01*
X0051856Y0227983D01*
X0051885Y0228035D01*
X0051912Y0228090D01*
X0051935Y0228145D01*
X0051955Y0228202D01*
X0051971Y0228261D01*
X0051984Y0228320D01*
X0051993Y0228379D01*
X0051998Y0228440D01*
X0052000Y0228500D01*
X0184000Y0047000D02*
X0185500Y0047000D01*
X0186000Y0046500D01*
X0200000Y0046500D01*
X0200500Y0047000D01*
X0202000Y0047000D01*
X0202060Y0046998D01*
X0202121Y0046993D01*
X0202180Y0046984D01*
X0202239Y0046971D01*
X0202298Y0046955D01*
X0202355Y0046935D01*
X0202410Y0046912D01*
X0202465Y0046885D01*
X0202517Y0046856D01*
X0202568Y0046823D01*
X0202617Y0046787D01*
X0202663Y0046749D01*
X0202707Y0046707D01*
X0202749Y0046663D01*
X0202787Y0046617D01*
X0202823Y0046568D01*
X0202856Y0046517D01*
X0202885Y0046465D01*
X0202912Y0046410D01*
X0202935Y0046355D01*
X0202955Y0046298D01*
X0202971Y0046239D01*
X0202984Y0046180D01*
X0202993Y0046121D01*
X0202998Y0046060D01*
X0203000Y0046000D01*
X0203000Y0040000D01*
X0202998Y0039940D01*
X0202993Y0039879D01*
X0202984Y0039820D01*
X0202971Y0039761D01*
X0202955Y0039702D01*
X0202935Y0039645D01*
X0202912Y0039590D01*
X0202885Y0039535D01*
X0202856Y0039483D01*
X0202823Y0039432D01*
X0202787Y0039383D01*
X0202749Y0039337D01*
X0202707Y0039293D01*
X0202663Y0039251D01*
X0202617Y0039213D01*
X0202568Y0039177D01*
X0202517Y0039144D01*
X0202465Y0039115D01*
X0202410Y0039088D01*
X0202355Y0039065D01*
X0202298Y0039045D01*
X0202239Y0039029D01*
X0202180Y0039016D01*
X0202121Y0039007D01*
X0202060Y0039002D01*
X0202000Y0039000D01*
X0200500Y0039000D01*
X0200000Y0039500D01*
X0186000Y0039500D01*
X0185500Y0039000D01*
X0184000Y0039000D01*
X0183940Y0039002D01*
X0183879Y0039007D01*
X0183820Y0039016D01*
X0183761Y0039029D01*
X0183702Y0039045D01*
X0183645Y0039065D01*
X0183590Y0039088D01*
X0183535Y0039115D01*
X0183483Y0039144D01*
X0183432Y0039177D01*
X0183383Y0039213D01*
X0183337Y0039251D01*
X0183293Y0039293D01*
X0183251Y0039337D01*
X0183213Y0039383D01*
X0183177Y0039432D01*
X0183144Y0039483D01*
X0183115Y0039535D01*
X0183088Y0039590D01*
X0183065Y0039645D01*
X0183045Y0039702D01*
X0183029Y0039761D01*
X0183016Y0039820D01*
X0183007Y0039879D01*
X0183002Y0039940D01*
X0183000Y0040000D01*
X0183000Y0046000D01*
X0183002Y0046060D01*
X0183007Y0046121D01*
X0183016Y0046180D01*
X0183029Y0046239D01*
X0183045Y0046298D01*
X0183065Y0046355D01*
X0183088Y0046410D01*
X0183115Y0046465D01*
X0183144Y0046517D01*
X0183177Y0046568D01*
X0183213Y0046617D01*
X0183251Y0046663D01*
X0183293Y0046707D01*
X0183337Y0046749D01*
X0183383Y0046787D01*
X0183432Y0046823D01*
X0183483Y0046856D01*
X0183535Y0046885D01*
X0183590Y0046912D01*
X0183645Y0046935D01*
X0183702Y0046955D01*
X0183761Y0046971D01*
X0183820Y0046984D01*
X0183879Y0046993D01*
X0183940Y0046998D01*
X0184000Y0047000D01*
X0185500Y0025000D02*
X0185500Y0015000D01*
X0201500Y0015000D01*
X0201500Y0025000D01*
X0185500Y0025000D01*
X0191000Y0020000D02*
X0193500Y0020000D01*
X0193500Y0017500D01*
X0193500Y0020000D02*
X0193500Y0022500D01*
X0193500Y0020000D02*
X0197500Y0022500D01*
X0197500Y0017500D01*
X0193500Y0020000D01*
X0199500Y0020000D01*
D12*
X0188000Y0020000D03*
X0188906Y0095508D03*
X0189000Y0120500D03*
X0189500Y0146000D03*
D13*
X0183250Y0146000D03*
X0206750Y0146000D03*
X0206250Y0120500D03*
X0206156Y0095508D03*
X0182656Y0095508D03*
X0182750Y0120500D03*
X0181750Y0020000D03*
X0205250Y0020000D03*
D14*
X0227945Y0220071D02*
X0171646Y0220071D01*
X0171646Y0226370D01*
X0171646Y0247630D02*
X0171646Y0253929D01*
X0177945Y0253929D01*
X0196646Y0253929D02*
X0227945Y0253929D01*
X0227945Y0220071D01*
D15*
X0154750Y0220502D02*
X0154750Y0219001D01*
X0153999Y0218250D01*
X0152498Y0218250D02*
X0151747Y0219751D01*
X0151747Y0220502D01*
X0152498Y0221253D01*
X0153999Y0221253D01*
X0154750Y0220502D01*
X0152498Y0218250D02*
X0150246Y0218250D01*
X0150246Y0221253D01*
X0104205Y0205327D02*
X0087079Y0205327D01*
X0086882Y0205327D01*
X0086685Y0205327D01*
X0086685Y0179736D01*
X0104205Y0179736D01*
X0104205Y0204933D01*
X0101252Y0181902D02*
X0101254Y0181964D01*
X0101260Y0182027D01*
X0101270Y0182088D01*
X0101284Y0182149D01*
X0101301Y0182209D01*
X0101322Y0182268D01*
X0101348Y0182325D01*
X0101376Y0182380D01*
X0101408Y0182434D01*
X0101444Y0182485D01*
X0101482Y0182535D01*
X0101524Y0182581D01*
X0101568Y0182625D01*
X0101616Y0182666D01*
X0101665Y0182704D01*
X0101717Y0182738D01*
X0101771Y0182769D01*
X0101827Y0182797D01*
X0101885Y0182821D01*
X0101944Y0182842D01*
X0102004Y0182858D01*
X0102065Y0182871D01*
X0102127Y0182880D01*
X0102189Y0182885D01*
X0102252Y0182886D01*
X0102314Y0182883D01*
X0102376Y0182876D01*
X0102438Y0182865D01*
X0102498Y0182850D01*
X0102558Y0182832D01*
X0102616Y0182810D01*
X0102673Y0182784D01*
X0102728Y0182754D01*
X0102781Y0182721D01*
X0102832Y0182685D01*
X0102880Y0182646D01*
X0102926Y0182603D01*
X0102969Y0182558D01*
X0103009Y0182510D01*
X0103046Y0182460D01*
X0103080Y0182407D01*
X0103111Y0182353D01*
X0103137Y0182297D01*
X0103161Y0182239D01*
X0103180Y0182179D01*
X0103196Y0182119D01*
X0103208Y0182057D01*
X0103216Y0181996D01*
X0103220Y0181933D01*
X0103220Y0181871D01*
X0103216Y0181808D01*
X0103208Y0181747D01*
X0103196Y0181685D01*
X0103180Y0181625D01*
X0103161Y0181565D01*
X0103137Y0181507D01*
X0103111Y0181451D01*
X0103080Y0181397D01*
X0103046Y0181344D01*
X0103009Y0181294D01*
X0102969Y0181246D01*
X0102926Y0181201D01*
X0102880Y0181158D01*
X0102832Y0181119D01*
X0102781Y0181083D01*
X0102728Y0181050D01*
X0102673Y0181020D01*
X0102616Y0180994D01*
X0102558Y0180972D01*
X0102498Y0180954D01*
X0102438Y0180939D01*
X0102376Y0180928D01*
X0102314Y0180921D01*
X0102252Y0180918D01*
X0102189Y0180919D01*
X0102127Y0180924D01*
X0102065Y0180933D01*
X0102004Y0180946D01*
X0101944Y0180962D01*
X0101885Y0180983D01*
X0101827Y0181007D01*
X0101771Y0181035D01*
X0101717Y0181066D01*
X0101665Y0181100D01*
X0101616Y0181138D01*
X0101568Y0181179D01*
X0101524Y0181223D01*
X0101482Y0181269D01*
X0101444Y0181319D01*
X0101408Y0181370D01*
X0101376Y0181424D01*
X0101348Y0181479D01*
X0101322Y0181536D01*
X0101301Y0181595D01*
X0101284Y0181655D01*
X0101270Y0181716D01*
X0101260Y0181777D01*
X0101254Y0181840D01*
X0101252Y0181902D01*
X0150246Y0164251D02*
X0154750Y0164251D01*
X0154750Y0162750D02*
X0154750Y0165753D01*
X0151747Y0162750D02*
X0150246Y0164251D01*
X0150746Y0094753D02*
X0150746Y0091750D01*
X0152998Y0091750D01*
X0152247Y0093251D01*
X0152247Y0094002D01*
X0152998Y0094753D01*
X0154499Y0094753D01*
X0155250Y0094002D01*
X0155250Y0092501D01*
X0154499Y0091750D01*
X0155250Y0039253D02*
X0155250Y0036250D01*
X0155250Y0037751D02*
X0150746Y0037751D01*
X0152247Y0036250D01*
X0102811Y0050504D02*
X0102811Y0075701D01*
X0102811Y0076094D02*
X0085685Y0076094D01*
X0085488Y0076094D01*
X0085291Y0076094D01*
X0085291Y0050504D01*
X0102811Y0050504D01*
X0099859Y0052669D02*
X0099861Y0052731D01*
X0099867Y0052794D01*
X0099877Y0052855D01*
X0099891Y0052916D01*
X0099908Y0052976D01*
X0099929Y0053035D01*
X0099955Y0053092D01*
X0099983Y0053147D01*
X0100015Y0053201D01*
X0100051Y0053252D01*
X0100089Y0053302D01*
X0100131Y0053348D01*
X0100175Y0053392D01*
X0100223Y0053433D01*
X0100272Y0053471D01*
X0100324Y0053505D01*
X0100378Y0053536D01*
X0100434Y0053564D01*
X0100492Y0053588D01*
X0100551Y0053609D01*
X0100611Y0053625D01*
X0100672Y0053638D01*
X0100734Y0053647D01*
X0100796Y0053652D01*
X0100859Y0053653D01*
X0100921Y0053650D01*
X0100983Y0053643D01*
X0101045Y0053632D01*
X0101105Y0053617D01*
X0101165Y0053599D01*
X0101223Y0053577D01*
X0101280Y0053551D01*
X0101335Y0053521D01*
X0101388Y0053488D01*
X0101439Y0053452D01*
X0101487Y0053413D01*
X0101533Y0053370D01*
X0101576Y0053325D01*
X0101616Y0053277D01*
X0101653Y0053227D01*
X0101687Y0053174D01*
X0101718Y0053120D01*
X0101744Y0053064D01*
X0101768Y0053006D01*
X0101787Y0052946D01*
X0101803Y0052886D01*
X0101815Y0052824D01*
X0101823Y0052763D01*
X0101827Y0052700D01*
X0101827Y0052638D01*
X0101823Y0052575D01*
X0101815Y0052514D01*
X0101803Y0052452D01*
X0101787Y0052392D01*
X0101768Y0052332D01*
X0101744Y0052274D01*
X0101718Y0052218D01*
X0101687Y0052164D01*
X0101653Y0052111D01*
X0101616Y0052061D01*
X0101576Y0052013D01*
X0101533Y0051968D01*
X0101487Y0051925D01*
X0101439Y0051886D01*
X0101388Y0051850D01*
X0101335Y0051817D01*
X0101280Y0051787D01*
X0101223Y0051761D01*
X0101165Y0051739D01*
X0101105Y0051721D01*
X0101045Y0051706D01*
X0100983Y0051695D01*
X0100921Y0051688D01*
X0100859Y0051685D01*
X0100796Y0051686D01*
X0100734Y0051691D01*
X0100672Y0051700D01*
X0100611Y0051713D01*
X0100551Y0051729D01*
X0100492Y0051750D01*
X0100434Y0051774D01*
X0100378Y0051802D01*
X0100324Y0051833D01*
X0100272Y0051867D01*
X0100223Y0051905D01*
X0100175Y0051946D01*
X0100131Y0051990D01*
X0100089Y0052036D01*
X0100051Y0052086D01*
X0100015Y0052137D01*
X0099983Y0052191D01*
X0099955Y0052246D01*
X0099929Y0052303D01*
X0099908Y0052362D01*
X0099891Y0052422D01*
X0099877Y0052483D01*
X0099867Y0052544D01*
X0099861Y0052607D01*
X0099859Y0052669D01*
X0016339Y0100331D02*
X0016421Y0100535D01*
X0016509Y0100737D01*
X0016601Y0100938D01*
X0016697Y0101136D01*
X0016798Y0101332D01*
X0016903Y0101526D01*
X0017012Y0101717D01*
X0017126Y0101906D01*
X0016339Y0100331D02*
X0016339Y0091276D01*
X0016338Y0091276D02*
X0016457Y0091071D01*
X0016581Y0090869D01*
X0016710Y0090671D01*
X0016844Y0090475D01*
X0016982Y0090283D01*
X0017125Y0090094D01*
X0017126Y0101906D02*
X0017273Y0102097D01*
X0017424Y0102284D01*
X0017580Y0102468D01*
X0017741Y0102648D01*
X0017906Y0102823D01*
X0018075Y0102995D01*
X0018249Y0103163D01*
X0018426Y0103326D01*
X0018607Y0103485D01*
X0018793Y0103639D01*
X0018981Y0103789D01*
X0019174Y0103934D01*
X0019370Y0104074D01*
X0019569Y0104209D01*
X0019772Y0104340D01*
X0019978Y0104465D01*
X0020187Y0104586D01*
X0020398Y0104701D01*
X0020613Y0104811D01*
X0020830Y0104916D01*
X0021050Y0105015D01*
X0021272Y0105110D01*
X0021496Y0105198D01*
X0021722Y0105281D01*
X0021950Y0105359D01*
X0022180Y0105431D01*
X0022412Y0105497D01*
X0022646Y0105557D01*
X0022880Y0105612D01*
X0023116Y0105661D01*
X0023353Y0105704D01*
X0023592Y0105742D01*
X0023831Y0105773D01*
X0024070Y0105799D01*
X0024311Y0105819D01*
X0024551Y0105833D01*
X0024792Y0105841D01*
X0025033Y0105843D01*
X0025274Y0105839D01*
X0025515Y0105830D01*
X0025756Y0105814D01*
X0025996Y0105793D01*
X0026235Y0105765D01*
X0026474Y0105732D01*
X0026712Y0105693D01*
X0026949Y0105648D01*
X0027184Y0105598D01*
X0027419Y0105541D01*
X0027652Y0105479D01*
X0027883Y0105411D01*
X0028113Y0105338D01*
X0028340Y0105259D01*
X0028566Y0105174D01*
X0028790Y0105084D01*
X0029011Y0104989D01*
X0029230Y0104888D01*
X0029446Y0104782D01*
X0029660Y0104670D01*
X0029871Y0104553D01*
X0030079Y0104431D01*
X0030284Y0104305D01*
X0030486Y0104173D01*
X0030684Y0104036D01*
X0030879Y0103894D01*
X0031071Y0103748D01*
X0031259Y0103597D01*
X0031443Y0103441D01*
X0031623Y0103281D01*
X0031800Y0103117D01*
X0031972Y0102948D01*
X0032140Y0102776D01*
X0032304Y0102599D01*
X0032463Y0102418D01*
X0032618Y0102233D01*
X0032768Y0102045D01*
X0032914Y0101853D01*
X0033055Y0101657D01*
X0033191Y0101458D01*
X0033322Y0101256D01*
X0033448Y0101051D01*
X0033570Y0100842D01*
X0033686Y0100631D01*
X0033796Y0100417D01*
X0033902Y0100200D01*
X0034002Y0099981D01*
X0034097Y0099759D01*
X0034186Y0099535D01*
X0034270Y0099309D01*
X0034348Y0099081D01*
X0034421Y0098851D01*
X0034488Y0098620D01*
X0034549Y0098387D01*
X0034605Y0098152D01*
X0034655Y0097916D01*
X0034699Y0097679D01*
X0034737Y0097441D01*
X0034769Y0097202D01*
X0034796Y0096963D01*
X0034816Y0096723D01*
X0034831Y0096482D01*
X0034840Y0096241D01*
X0034843Y0096000D01*
X0034840Y0095759D01*
X0034831Y0095518D01*
X0034816Y0095277D01*
X0034796Y0095037D01*
X0034769Y0094798D01*
X0034737Y0094559D01*
X0034699Y0094321D01*
X0034655Y0094084D01*
X0034605Y0093848D01*
X0034549Y0093613D01*
X0034488Y0093380D01*
X0034421Y0093149D01*
X0034348Y0092919D01*
X0034270Y0092691D01*
X0034186Y0092465D01*
X0034097Y0092241D01*
X0034002Y0092019D01*
X0033902Y0091800D01*
X0033796Y0091583D01*
X0033686Y0091369D01*
X0033570Y0091158D01*
X0033448Y0090949D01*
X0033322Y0090744D01*
X0033191Y0090542D01*
X0033055Y0090343D01*
X0032914Y0090147D01*
X0032768Y0089955D01*
X0032618Y0089767D01*
X0032463Y0089582D01*
X0032304Y0089401D01*
X0032140Y0089224D01*
X0031972Y0089052D01*
X0031800Y0088883D01*
X0031623Y0088719D01*
X0031443Y0088559D01*
X0031259Y0088403D01*
X0031071Y0088252D01*
X0030879Y0088106D01*
X0030684Y0087964D01*
X0030486Y0087827D01*
X0030284Y0087695D01*
X0030079Y0087569D01*
X0029871Y0087447D01*
X0029660Y0087330D01*
X0029446Y0087218D01*
X0029230Y0087112D01*
X0029011Y0087011D01*
X0028790Y0086916D01*
X0028566Y0086826D01*
X0028340Y0086741D01*
X0028113Y0086662D01*
X0027883Y0086589D01*
X0027652Y0086521D01*
X0027419Y0086459D01*
X0027184Y0086402D01*
X0026949Y0086352D01*
X0026712Y0086307D01*
X0026474Y0086268D01*
X0026235Y0086235D01*
X0025996Y0086207D01*
X0025756Y0086186D01*
X0025515Y0086170D01*
X0025274Y0086161D01*
X0025033Y0086157D01*
X0024792Y0086159D01*
X0024551Y0086167D01*
X0024311Y0086181D01*
X0024070Y0086201D01*
X0023831Y0086227D01*
X0023592Y0086258D01*
X0023353Y0086296D01*
X0023116Y0086339D01*
X0022880Y0086388D01*
X0022646Y0086443D01*
X0022412Y0086503D01*
X0022180Y0086569D01*
X0021950Y0086641D01*
X0021722Y0086719D01*
X0021496Y0086802D01*
X0021272Y0086890D01*
X0021050Y0086985D01*
X0020830Y0087084D01*
X0020613Y0087189D01*
X0020398Y0087299D01*
X0020187Y0087414D01*
X0019978Y0087535D01*
X0019772Y0087660D01*
X0019569Y0087791D01*
X0019370Y0087926D01*
X0019174Y0088066D01*
X0018981Y0088211D01*
X0018793Y0088361D01*
X0018607Y0088515D01*
X0018426Y0088674D01*
X0018249Y0088837D01*
X0018075Y0089005D01*
X0017906Y0089177D01*
X0017741Y0089352D01*
X0017580Y0089532D01*
X0017424Y0089716D01*
X0017273Y0089903D01*
X0017126Y0090094D01*
X0016339Y0117276D02*
X0016339Y0126331D01*
X0016338Y0117276D02*
X0016457Y0117071D01*
X0016581Y0116869D01*
X0016710Y0116671D01*
X0016844Y0116475D01*
X0016982Y0116283D01*
X0017125Y0116094D01*
X0017126Y0127906D02*
X0017273Y0128097D01*
X0017424Y0128284D01*
X0017580Y0128468D01*
X0017741Y0128648D01*
X0017906Y0128823D01*
X0018075Y0128995D01*
X0018249Y0129163D01*
X0018426Y0129326D01*
X0018607Y0129485D01*
X0018793Y0129639D01*
X0018981Y0129789D01*
X0019174Y0129934D01*
X0019370Y0130074D01*
X0019569Y0130209D01*
X0019772Y0130340D01*
X0019978Y0130465D01*
X0020187Y0130586D01*
X0020398Y0130701D01*
X0020613Y0130811D01*
X0020830Y0130916D01*
X0021050Y0131015D01*
X0021272Y0131110D01*
X0021496Y0131198D01*
X0021722Y0131281D01*
X0021950Y0131359D01*
X0022180Y0131431D01*
X0022412Y0131497D01*
X0022646Y0131557D01*
X0022880Y0131612D01*
X0023116Y0131661D01*
X0023353Y0131704D01*
X0023592Y0131742D01*
X0023831Y0131773D01*
X0024070Y0131799D01*
X0024311Y0131819D01*
X0024551Y0131833D01*
X0024792Y0131841D01*
X0025033Y0131843D01*
X0025274Y0131839D01*
X0025515Y0131830D01*
X0025756Y0131814D01*
X0025996Y0131793D01*
X0026235Y0131765D01*
X0026474Y0131732D01*
X0026712Y0131693D01*
X0026949Y0131648D01*
X0027184Y0131598D01*
X0027419Y0131541D01*
X0027652Y0131479D01*
X0027883Y0131411D01*
X0028113Y0131338D01*
X0028340Y0131259D01*
X0028566Y0131174D01*
X0028790Y0131084D01*
X0029011Y0130989D01*
X0029230Y0130888D01*
X0029446Y0130782D01*
X0029660Y0130670D01*
X0029871Y0130553D01*
X0030079Y0130431D01*
X0030284Y0130305D01*
X0030486Y0130173D01*
X0030684Y0130036D01*
X0030879Y0129894D01*
X0031071Y0129748D01*
X0031259Y0129597D01*
X0031443Y0129441D01*
X0031623Y0129281D01*
X0031800Y0129117D01*
X0031972Y0128948D01*
X0032140Y0128776D01*
X0032304Y0128599D01*
X0032463Y0128418D01*
X0032618Y0128233D01*
X0032768Y0128045D01*
X0032914Y0127853D01*
X0033055Y0127657D01*
X0033191Y0127458D01*
X0033322Y0127256D01*
X0033448Y0127051D01*
X0033570Y0126842D01*
X0033686Y0126631D01*
X0033796Y0126417D01*
X0033902Y0126200D01*
X0034002Y0125981D01*
X0034097Y0125759D01*
X0034186Y0125535D01*
X0034270Y0125309D01*
X0034348Y0125081D01*
X0034421Y0124851D01*
X0034488Y0124620D01*
X0034549Y0124387D01*
X0034605Y0124152D01*
X0034655Y0123916D01*
X0034699Y0123679D01*
X0034737Y0123441D01*
X0034769Y0123202D01*
X0034796Y0122963D01*
X0034816Y0122723D01*
X0034831Y0122482D01*
X0034840Y0122241D01*
X0034843Y0122000D01*
X0017126Y0127906D02*
X0017012Y0127717D01*
X0016903Y0127526D01*
X0016798Y0127332D01*
X0016697Y0127136D01*
X0016601Y0126938D01*
X0016509Y0126737D01*
X0016421Y0126535D01*
X0016339Y0126331D01*
X0017126Y0116094D02*
X0017273Y0115903D01*
X0017424Y0115716D01*
X0017580Y0115532D01*
X0017741Y0115352D01*
X0017906Y0115177D01*
X0018075Y0115005D01*
X0018249Y0114837D01*
X0018426Y0114674D01*
X0018607Y0114515D01*
X0018793Y0114361D01*
X0018981Y0114211D01*
X0019174Y0114066D01*
X0019370Y0113926D01*
X0019569Y0113791D01*
X0019772Y0113660D01*
X0019978Y0113535D01*
X0020187Y0113414D01*
X0020398Y0113299D01*
X0020613Y0113189D01*
X0020830Y0113084D01*
X0021050Y0112985D01*
X0021272Y0112890D01*
X0021496Y0112802D01*
X0021722Y0112719D01*
X0021950Y0112641D01*
X0022180Y0112569D01*
X0022412Y0112503D01*
X0022646Y0112443D01*
X0022880Y0112388D01*
X0023116Y0112339D01*
X0023353Y0112296D01*
X0023592Y0112258D01*
X0023831Y0112227D01*
X0024070Y0112201D01*
X0024311Y0112181D01*
X0024551Y0112167D01*
X0024792Y0112159D01*
X0025033Y0112157D01*
X0025274Y0112161D01*
X0025515Y0112170D01*
X0025756Y0112186D01*
X0025996Y0112207D01*
X0026235Y0112235D01*
X0026474Y0112268D01*
X0026712Y0112307D01*
X0026949Y0112352D01*
X0027184Y0112402D01*
X0027419Y0112459D01*
X0027652Y0112521D01*
X0027883Y0112589D01*
X0028113Y0112662D01*
X0028340Y0112741D01*
X0028566Y0112826D01*
X0028790Y0112916D01*
X0029011Y0113011D01*
X0029230Y0113112D01*
X0029446Y0113218D01*
X0029660Y0113330D01*
X0029871Y0113447D01*
X0030079Y0113569D01*
X0030284Y0113695D01*
X0030486Y0113827D01*
X0030684Y0113964D01*
X0030879Y0114106D01*
X0031071Y0114252D01*
X0031259Y0114403D01*
X0031443Y0114559D01*
X0031623Y0114719D01*
X0031800Y0114883D01*
X0031972Y0115052D01*
X0032140Y0115224D01*
X0032304Y0115401D01*
X0032463Y0115582D01*
X0032618Y0115767D01*
X0032768Y0115955D01*
X0032914Y0116147D01*
X0033055Y0116343D01*
X0033191Y0116542D01*
X0033322Y0116744D01*
X0033448Y0116949D01*
X0033570Y0117158D01*
X0033686Y0117369D01*
X0033796Y0117583D01*
X0033902Y0117800D01*
X0034002Y0118019D01*
X0034097Y0118241D01*
X0034186Y0118465D01*
X0034270Y0118691D01*
X0034348Y0118919D01*
X0034421Y0119149D01*
X0034488Y0119380D01*
X0034549Y0119613D01*
X0034605Y0119848D01*
X0034655Y0120084D01*
X0034699Y0120321D01*
X0034737Y0120559D01*
X0034769Y0120798D01*
X0034796Y0121037D01*
X0034816Y0121277D01*
X0034831Y0121518D01*
X0034840Y0121759D01*
X0034843Y0122000D01*
X0034343Y0146000D02*
X0034340Y0146241D01*
X0034331Y0146482D01*
X0034316Y0146723D01*
X0034296Y0146963D01*
X0034269Y0147202D01*
X0034237Y0147441D01*
X0034199Y0147679D01*
X0034155Y0147916D01*
X0034105Y0148152D01*
X0034049Y0148387D01*
X0033988Y0148620D01*
X0033921Y0148851D01*
X0033848Y0149081D01*
X0033770Y0149309D01*
X0033686Y0149535D01*
X0033597Y0149759D01*
X0033502Y0149981D01*
X0033402Y0150200D01*
X0033296Y0150417D01*
X0033186Y0150631D01*
X0033070Y0150842D01*
X0032948Y0151051D01*
X0032822Y0151256D01*
X0032691Y0151458D01*
X0032555Y0151657D01*
X0032414Y0151853D01*
X0032268Y0152045D01*
X0032118Y0152233D01*
X0031963Y0152418D01*
X0031804Y0152599D01*
X0031640Y0152776D01*
X0031472Y0152948D01*
X0031300Y0153117D01*
X0031123Y0153281D01*
X0030943Y0153441D01*
X0030759Y0153597D01*
X0030571Y0153748D01*
X0030379Y0153894D01*
X0030184Y0154036D01*
X0029986Y0154173D01*
X0029784Y0154305D01*
X0029579Y0154431D01*
X0029371Y0154553D01*
X0029160Y0154670D01*
X0028946Y0154782D01*
X0028730Y0154888D01*
X0028511Y0154989D01*
X0028290Y0155084D01*
X0028066Y0155174D01*
X0027840Y0155259D01*
X0027613Y0155338D01*
X0027383Y0155411D01*
X0027152Y0155479D01*
X0026919Y0155541D01*
X0026684Y0155598D01*
X0026449Y0155648D01*
X0026212Y0155693D01*
X0025974Y0155732D01*
X0025735Y0155765D01*
X0025496Y0155793D01*
X0025256Y0155814D01*
X0025015Y0155830D01*
X0024774Y0155839D01*
X0024533Y0155843D01*
X0024292Y0155841D01*
X0024051Y0155833D01*
X0023811Y0155819D01*
X0023570Y0155799D01*
X0023331Y0155773D01*
X0023092Y0155742D01*
X0022853Y0155704D01*
X0022616Y0155661D01*
X0022380Y0155612D01*
X0022146Y0155557D01*
X0021912Y0155497D01*
X0021680Y0155431D01*
X0021450Y0155359D01*
X0021222Y0155281D01*
X0020996Y0155198D01*
X0020772Y0155110D01*
X0020550Y0155015D01*
X0020330Y0154916D01*
X0020113Y0154811D01*
X0019898Y0154701D01*
X0019687Y0154586D01*
X0019478Y0154465D01*
X0019272Y0154340D01*
X0019069Y0154209D01*
X0018870Y0154074D01*
X0018674Y0153934D01*
X0018481Y0153789D01*
X0018293Y0153639D01*
X0018107Y0153485D01*
X0017926Y0153326D01*
X0017749Y0153163D01*
X0017575Y0152995D01*
X0017406Y0152823D01*
X0017241Y0152648D01*
X0017080Y0152468D01*
X0016924Y0152284D01*
X0016773Y0152097D01*
X0016626Y0151906D01*
X0015839Y0150331D02*
X0015839Y0141276D01*
X0015838Y0141276D02*
X0015957Y0141071D01*
X0016081Y0140869D01*
X0016210Y0140671D01*
X0016344Y0140475D01*
X0016482Y0140283D01*
X0016625Y0140094D01*
X0016626Y0140094D02*
X0016773Y0139903D01*
X0016924Y0139716D01*
X0017080Y0139532D01*
X0017241Y0139352D01*
X0017406Y0139177D01*
X0017575Y0139005D01*
X0017749Y0138837D01*
X0017926Y0138674D01*
X0018107Y0138515D01*
X0018293Y0138361D01*
X0018481Y0138211D01*
X0018674Y0138066D01*
X0018870Y0137926D01*
X0019069Y0137791D01*
X0019272Y0137660D01*
X0019478Y0137535D01*
X0019687Y0137414D01*
X0019898Y0137299D01*
X0020113Y0137189D01*
X0020330Y0137084D01*
X0020550Y0136985D01*
X0020772Y0136890D01*
X0020996Y0136802D01*
X0021222Y0136719D01*
X0021450Y0136641D01*
X0021680Y0136569D01*
X0021912Y0136503D01*
X0022146Y0136443D01*
X0022380Y0136388D01*
X0022616Y0136339D01*
X0022853Y0136296D01*
X0023092Y0136258D01*
X0023331Y0136227D01*
X0023570Y0136201D01*
X0023811Y0136181D01*
X0024051Y0136167D01*
X0024292Y0136159D01*
X0024533Y0136157D01*
X0024774Y0136161D01*
X0025015Y0136170D01*
X0025256Y0136186D01*
X0025496Y0136207D01*
X0025735Y0136235D01*
X0025974Y0136268D01*
X0026212Y0136307D01*
X0026449Y0136352D01*
X0026684Y0136402D01*
X0026919Y0136459D01*
X0027152Y0136521D01*
X0027383Y0136589D01*
X0027613Y0136662D01*
X0027840Y0136741D01*
X0028066Y0136826D01*
X0028290Y0136916D01*
X0028511Y0137011D01*
X0028730Y0137112D01*
X0028946Y0137218D01*
X0029160Y0137330D01*
X0029371Y0137447D01*
X0029579Y0137569D01*
X0029784Y0137695D01*
X0029986Y0137827D01*
X0030184Y0137964D01*
X0030379Y0138106D01*
X0030571Y0138252D01*
X0030759Y0138403D01*
X0030943Y0138559D01*
X0031123Y0138719D01*
X0031300Y0138883D01*
X0031472Y0139052D01*
X0031640Y0139224D01*
X0031804Y0139401D01*
X0031963Y0139582D01*
X0032118Y0139767D01*
X0032268Y0139955D01*
X0032414Y0140147D01*
X0032555Y0140343D01*
X0032691Y0140542D01*
X0032822Y0140744D01*
X0032948Y0140949D01*
X0033070Y0141158D01*
X0033186Y0141369D01*
X0033296Y0141583D01*
X0033402Y0141800D01*
X0033502Y0142019D01*
X0033597Y0142241D01*
X0033686Y0142465D01*
X0033770Y0142691D01*
X0033848Y0142919D01*
X0033921Y0143149D01*
X0033988Y0143380D01*
X0034049Y0143613D01*
X0034105Y0143848D01*
X0034155Y0144084D01*
X0034199Y0144321D01*
X0034237Y0144559D01*
X0034269Y0144798D01*
X0034296Y0145037D01*
X0034316Y0145277D01*
X0034331Y0145518D01*
X0034340Y0145759D01*
X0034343Y0146000D01*
X0016626Y0151906D02*
X0016512Y0151717D01*
X0016403Y0151526D01*
X0016298Y0151332D01*
X0016197Y0151136D01*
X0016101Y0150938D01*
X0016009Y0150737D01*
X0015921Y0150535D01*
X0015839Y0150331D01*
X0015839Y0165776D02*
X0015839Y0174831D01*
X0015838Y0165776D02*
X0015957Y0165571D01*
X0016081Y0165369D01*
X0016210Y0165171D01*
X0016344Y0164975D01*
X0016482Y0164783D01*
X0016625Y0164594D01*
X0016626Y0176406D02*
X0016773Y0176597D01*
X0016924Y0176784D01*
X0017080Y0176968D01*
X0017241Y0177148D01*
X0017406Y0177323D01*
X0017575Y0177495D01*
X0017749Y0177663D01*
X0017926Y0177826D01*
X0018107Y0177985D01*
X0018293Y0178139D01*
X0018481Y0178289D01*
X0018674Y0178434D01*
X0018870Y0178574D01*
X0019069Y0178709D01*
X0019272Y0178840D01*
X0019478Y0178965D01*
X0019687Y0179086D01*
X0019898Y0179201D01*
X0020113Y0179311D01*
X0020330Y0179416D01*
X0020550Y0179515D01*
X0020772Y0179610D01*
X0020996Y0179698D01*
X0021222Y0179781D01*
X0021450Y0179859D01*
X0021680Y0179931D01*
X0021912Y0179997D01*
X0022146Y0180057D01*
X0022380Y0180112D01*
X0022616Y0180161D01*
X0022853Y0180204D01*
X0023092Y0180242D01*
X0023331Y0180273D01*
X0023570Y0180299D01*
X0023811Y0180319D01*
X0024051Y0180333D01*
X0024292Y0180341D01*
X0024533Y0180343D01*
X0024774Y0180339D01*
X0025015Y0180330D01*
X0025256Y0180314D01*
X0025496Y0180293D01*
X0025735Y0180265D01*
X0025974Y0180232D01*
X0026212Y0180193D01*
X0026449Y0180148D01*
X0026684Y0180098D01*
X0026919Y0180041D01*
X0027152Y0179979D01*
X0027383Y0179911D01*
X0027613Y0179838D01*
X0027840Y0179759D01*
X0028066Y0179674D01*
X0028290Y0179584D01*
X0028511Y0179489D01*
X0028730Y0179388D01*
X0028946Y0179282D01*
X0029160Y0179170D01*
X0029371Y0179053D01*
X0029579Y0178931D01*
X0029784Y0178805D01*
X0029986Y0178673D01*
X0030184Y0178536D01*
X0030379Y0178394D01*
X0030571Y0178248D01*
X0030759Y0178097D01*
X0030943Y0177941D01*
X0031123Y0177781D01*
X0031300Y0177617D01*
X0031472Y0177448D01*
X0031640Y0177276D01*
X0031804Y0177099D01*
X0031963Y0176918D01*
X0032118Y0176733D01*
X0032268Y0176545D01*
X0032414Y0176353D01*
X0032555Y0176157D01*
X0032691Y0175958D01*
X0032822Y0175756D01*
X0032948Y0175551D01*
X0033070Y0175342D01*
X0033186Y0175131D01*
X0033296Y0174917D01*
X0033402Y0174700D01*
X0033502Y0174481D01*
X0033597Y0174259D01*
X0033686Y0174035D01*
X0033770Y0173809D01*
X0033848Y0173581D01*
X0033921Y0173351D01*
X0033988Y0173120D01*
X0034049Y0172887D01*
X0034105Y0172652D01*
X0034155Y0172416D01*
X0034199Y0172179D01*
X0034237Y0171941D01*
X0034269Y0171702D01*
X0034296Y0171463D01*
X0034316Y0171223D01*
X0034331Y0170982D01*
X0034340Y0170741D01*
X0034343Y0170500D01*
X0016626Y0176406D02*
X0016512Y0176217D01*
X0016403Y0176026D01*
X0016298Y0175832D01*
X0016197Y0175636D01*
X0016101Y0175438D01*
X0016009Y0175237D01*
X0015921Y0175035D01*
X0015839Y0174831D01*
X0016626Y0164594D02*
X0016773Y0164403D01*
X0016924Y0164216D01*
X0017080Y0164032D01*
X0017241Y0163852D01*
X0017406Y0163677D01*
X0017575Y0163505D01*
X0017749Y0163337D01*
X0017926Y0163174D01*
X0018107Y0163015D01*
X0018293Y0162861D01*
X0018481Y0162711D01*
X0018674Y0162566D01*
X0018870Y0162426D01*
X0019069Y0162291D01*
X0019272Y0162160D01*
X0019478Y0162035D01*
X0019687Y0161914D01*
X0019898Y0161799D01*
X0020113Y0161689D01*
X0020330Y0161584D01*
X0020550Y0161485D01*
X0020772Y0161390D01*
X0020996Y0161302D01*
X0021222Y0161219D01*
X0021450Y0161141D01*
X0021680Y0161069D01*
X0021912Y0161003D01*
X0022146Y0160943D01*
X0022380Y0160888D01*
X0022616Y0160839D01*
X0022853Y0160796D01*
X0023092Y0160758D01*
X0023331Y0160727D01*
X0023570Y0160701D01*
X0023811Y0160681D01*
X0024051Y0160667D01*
X0024292Y0160659D01*
X0024533Y0160657D01*
X0024774Y0160661D01*
X0025015Y0160670D01*
X0025256Y0160686D01*
X0025496Y0160707D01*
X0025735Y0160735D01*
X0025974Y0160768D01*
X0026212Y0160807D01*
X0026449Y0160852D01*
X0026684Y0160902D01*
X0026919Y0160959D01*
X0027152Y0161021D01*
X0027383Y0161089D01*
X0027613Y0161162D01*
X0027840Y0161241D01*
X0028066Y0161326D01*
X0028290Y0161416D01*
X0028511Y0161511D01*
X0028730Y0161612D01*
X0028946Y0161718D01*
X0029160Y0161830D01*
X0029371Y0161947D01*
X0029579Y0162069D01*
X0029784Y0162195D01*
X0029986Y0162327D01*
X0030184Y0162464D01*
X0030379Y0162606D01*
X0030571Y0162752D01*
X0030759Y0162903D01*
X0030943Y0163059D01*
X0031123Y0163219D01*
X0031300Y0163383D01*
X0031472Y0163552D01*
X0031640Y0163724D01*
X0031804Y0163901D01*
X0031963Y0164082D01*
X0032118Y0164267D01*
X0032268Y0164455D01*
X0032414Y0164647D01*
X0032555Y0164843D01*
X0032691Y0165042D01*
X0032822Y0165244D01*
X0032948Y0165449D01*
X0033070Y0165658D01*
X0033186Y0165869D01*
X0033296Y0166083D01*
X0033402Y0166300D01*
X0033502Y0166519D01*
X0033597Y0166741D01*
X0033686Y0166965D01*
X0033770Y0167191D01*
X0033848Y0167419D01*
X0033921Y0167649D01*
X0033988Y0167880D01*
X0034049Y0168113D01*
X0034105Y0168348D01*
X0034155Y0168584D01*
X0034199Y0168821D01*
X0034237Y0169059D01*
X0034269Y0169298D01*
X0034296Y0169537D01*
X0034316Y0169777D01*
X0034331Y0170018D01*
X0034340Y0170259D01*
X0034343Y0170500D01*
X0031890Y0186594D02*
X0031890Y0198406D01*
X0021063Y0198406D01*
X0018110Y0195453D01*
X0018110Y0198406D01*
X0021063Y0198406D01*
X0019110Y0206594D02*
X0032890Y0206594D01*
X0032890Y0218406D01*
X0022063Y0218406D01*
X0019110Y0215453D01*
X0019110Y0218406D01*
X0022063Y0218406D01*
X0022457Y0226457D02*
X0022457Y0233543D01*
X0029543Y0233543D01*
X0029543Y0226457D01*
X0022457Y0226457D01*
X0023002Y0230000D02*
X0023004Y0230109D01*
X0023010Y0230218D01*
X0023020Y0230326D01*
X0023034Y0230434D01*
X0023051Y0230541D01*
X0023073Y0230648D01*
X0023098Y0230754D01*
X0023128Y0230859D01*
X0023161Y0230963D01*
X0023198Y0231065D01*
X0023238Y0231166D01*
X0023282Y0231266D01*
X0023330Y0231363D01*
X0023381Y0231460D01*
X0023436Y0231554D01*
X0023494Y0231646D01*
X0023556Y0231736D01*
X0023620Y0231823D01*
X0023688Y0231908D01*
X0023759Y0231991D01*
X0023833Y0232071D01*
X0023909Y0232149D01*
X0023989Y0232223D01*
X0024071Y0232295D01*
X0024155Y0232363D01*
X0024242Y0232429D01*
X0024332Y0232491D01*
X0024423Y0232550D01*
X0024517Y0232605D01*
X0024612Y0232658D01*
X0024710Y0232706D01*
X0024809Y0232751D01*
X0024910Y0232793D01*
X0025012Y0232830D01*
X0025115Y0232864D01*
X0025220Y0232895D01*
X0025325Y0232921D01*
X0025432Y0232944D01*
X0025539Y0232962D01*
X0025647Y0232977D01*
X0025755Y0232988D01*
X0025864Y0232995D01*
X0025973Y0232998D01*
X0026082Y0232997D01*
X0026190Y0232992D01*
X0026299Y0232983D01*
X0026407Y0232970D01*
X0026515Y0232953D01*
X0026622Y0232933D01*
X0026728Y0232908D01*
X0026833Y0232880D01*
X0026937Y0232848D01*
X0027040Y0232812D01*
X0027141Y0232772D01*
X0027241Y0232729D01*
X0027339Y0232682D01*
X0027436Y0232632D01*
X0027530Y0232578D01*
X0027623Y0232521D01*
X0027713Y0232460D01*
X0027802Y0232396D01*
X0027887Y0232329D01*
X0027971Y0232259D01*
X0028051Y0232186D01*
X0028130Y0232110D01*
X0028205Y0232032D01*
X0028277Y0231950D01*
X0028346Y0231866D01*
X0028413Y0231780D01*
X0028476Y0231691D01*
X0028535Y0231600D01*
X0028592Y0231507D01*
X0028645Y0231412D01*
X0028694Y0231315D01*
X0028740Y0231216D01*
X0028783Y0231116D01*
X0028821Y0231014D01*
X0028856Y0230911D01*
X0028887Y0230807D01*
X0028915Y0230701D01*
X0028938Y0230595D01*
X0028958Y0230488D01*
X0028974Y0230380D01*
X0028986Y0230272D01*
X0028994Y0230163D01*
X0028998Y0230054D01*
X0028998Y0229946D01*
X0028994Y0229837D01*
X0028986Y0229728D01*
X0028974Y0229620D01*
X0028958Y0229512D01*
X0028938Y0229405D01*
X0028915Y0229299D01*
X0028887Y0229193D01*
X0028856Y0229089D01*
X0028821Y0228986D01*
X0028783Y0228884D01*
X0028740Y0228784D01*
X0028694Y0228685D01*
X0028645Y0228588D01*
X0028592Y0228493D01*
X0028535Y0228400D01*
X0028476Y0228309D01*
X0028413Y0228220D01*
X0028346Y0228134D01*
X0028277Y0228050D01*
X0028205Y0227968D01*
X0028130Y0227890D01*
X0028051Y0227814D01*
X0027971Y0227741D01*
X0027887Y0227671D01*
X0027802Y0227604D01*
X0027713Y0227540D01*
X0027623Y0227479D01*
X0027530Y0227422D01*
X0027436Y0227368D01*
X0027339Y0227318D01*
X0027241Y0227271D01*
X0027141Y0227228D01*
X0027040Y0227188D01*
X0026937Y0227152D01*
X0026833Y0227120D01*
X0026728Y0227092D01*
X0026622Y0227067D01*
X0026515Y0227047D01*
X0026407Y0227030D01*
X0026299Y0227017D01*
X0026190Y0227008D01*
X0026082Y0227003D01*
X0025973Y0227002D01*
X0025864Y0227005D01*
X0025755Y0227012D01*
X0025647Y0227023D01*
X0025539Y0227038D01*
X0025432Y0227056D01*
X0025325Y0227079D01*
X0025220Y0227105D01*
X0025115Y0227136D01*
X0025012Y0227170D01*
X0024910Y0227207D01*
X0024809Y0227249D01*
X0024710Y0227294D01*
X0024612Y0227342D01*
X0024517Y0227395D01*
X0024423Y0227450D01*
X0024332Y0227509D01*
X0024242Y0227571D01*
X0024155Y0227637D01*
X0024071Y0227705D01*
X0023989Y0227777D01*
X0023909Y0227851D01*
X0023833Y0227929D01*
X0023759Y0228009D01*
X0023688Y0228092D01*
X0023620Y0228177D01*
X0023556Y0228264D01*
X0023494Y0228354D01*
X0023436Y0228446D01*
X0023381Y0228540D01*
X0023330Y0228637D01*
X0023282Y0228734D01*
X0023238Y0228834D01*
X0023198Y0228935D01*
X0023161Y0229037D01*
X0023128Y0229141D01*
X0023098Y0229246D01*
X0023073Y0229352D01*
X0023051Y0229459D01*
X0023034Y0229566D01*
X0023020Y0229674D01*
X0023010Y0229782D01*
X0023004Y0229891D01*
X0023002Y0230000D01*
X0022457Y0241957D02*
X0022457Y0249043D01*
X0029543Y0249043D01*
X0029543Y0241957D01*
X0022457Y0241957D01*
X0023002Y0245500D02*
X0023004Y0245609D01*
X0023010Y0245718D01*
X0023020Y0245826D01*
X0023034Y0245934D01*
X0023051Y0246041D01*
X0023073Y0246148D01*
X0023098Y0246254D01*
X0023128Y0246359D01*
X0023161Y0246463D01*
X0023198Y0246565D01*
X0023238Y0246666D01*
X0023282Y0246766D01*
X0023330Y0246863D01*
X0023381Y0246960D01*
X0023436Y0247054D01*
X0023494Y0247146D01*
X0023556Y0247236D01*
X0023620Y0247323D01*
X0023688Y0247408D01*
X0023759Y0247491D01*
X0023833Y0247571D01*
X0023909Y0247649D01*
X0023989Y0247723D01*
X0024071Y0247795D01*
X0024155Y0247863D01*
X0024242Y0247929D01*
X0024332Y0247991D01*
X0024423Y0248050D01*
X0024517Y0248105D01*
X0024612Y0248158D01*
X0024710Y0248206D01*
X0024809Y0248251D01*
X0024910Y0248293D01*
X0025012Y0248330D01*
X0025115Y0248364D01*
X0025220Y0248395D01*
X0025325Y0248421D01*
X0025432Y0248444D01*
X0025539Y0248462D01*
X0025647Y0248477D01*
X0025755Y0248488D01*
X0025864Y0248495D01*
X0025973Y0248498D01*
X0026082Y0248497D01*
X0026190Y0248492D01*
X0026299Y0248483D01*
X0026407Y0248470D01*
X0026515Y0248453D01*
X0026622Y0248433D01*
X0026728Y0248408D01*
X0026833Y0248380D01*
X0026937Y0248348D01*
X0027040Y0248312D01*
X0027141Y0248272D01*
X0027241Y0248229D01*
X0027339Y0248182D01*
X0027436Y0248132D01*
X0027530Y0248078D01*
X0027623Y0248021D01*
X0027713Y0247960D01*
X0027802Y0247896D01*
X0027887Y0247829D01*
X0027971Y0247759D01*
X0028051Y0247686D01*
X0028130Y0247610D01*
X0028205Y0247532D01*
X0028277Y0247450D01*
X0028346Y0247366D01*
X0028413Y0247280D01*
X0028476Y0247191D01*
X0028535Y0247100D01*
X0028592Y0247007D01*
X0028645Y0246912D01*
X0028694Y0246815D01*
X0028740Y0246716D01*
X0028783Y0246616D01*
X0028821Y0246514D01*
X0028856Y0246411D01*
X0028887Y0246307D01*
X0028915Y0246201D01*
X0028938Y0246095D01*
X0028958Y0245988D01*
X0028974Y0245880D01*
X0028986Y0245772D01*
X0028994Y0245663D01*
X0028998Y0245554D01*
X0028998Y0245446D01*
X0028994Y0245337D01*
X0028986Y0245228D01*
X0028974Y0245120D01*
X0028958Y0245012D01*
X0028938Y0244905D01*
X0028915Y0244799D01*
X0028887Y0244693D01*
X0028856Y0244589D01*
X0028821Y0244486D01*
X0028783Y0244384D01*
X0028740Y0244284D01*
X0028694Y0244185D01*
X0028645Y0244088D01*
X0028592Y0243993D01*
X0028535Y0243900D01*
X0028476Y0243809D01*
X0028413Y0243720D01*
X0028346Y0243634D01*
X0028277Y0243550D01*
X0028205Y0243468D01*
X0028130Y0243390D01*
X0028051Y0243314D01*
X0027971Y0243241D01*
X0027887Y0243171D01*
X0027802Y0243104D01*
X0027713Y0243040D01*
X0027623Y0242979D01*
X0027530Y0242922D01*
X0027436Y0242868D01*
X0027339Y0242818D01*
X0027241Y0242771D01*
X0027141Y0242728D01*
X0027040Y0242688D01*
X0026937Y0242652D01*
X0026833Y0242620D01*
X0026728Y0242592D01*
X0026622Y0242567D01*
X0026515Y0242547D01*
X0026407Y0242530D01*
X0026299Y0242517D01*
X0026190Y0242508D01*
X0026082Y0242503D01*
X0025973Y0242502D01*
X0025864Y0242505D01*
X0025755Y0242512D01*
X0025647Y0242523D01*
X0025539Y0242538D01*
X0025432Y0242556D01*
X0025325Y0242579D01*
X0025220Y0242605D01*
X0025115Y0242636D01*
X0025012Y0242670D01*
X0024910Y0242707D01*
X0024809Y0242749D01*
X0024710Y0242794D01*
X0024612Y0242842D01*
X0024517Y0242895D01*
X0024423Y0242950D01*
X0024332Y0243009D01*
X0024242Y0243071D01*
X0024155Y0243137D01*
X0024071Y0243205D01*
X0023989Y0243277D01*
X0023909Y0243351D01*
X0023833Y0243429D01*
X0023759Y0243509D01*
X0023688Y0243592D01*
X0023620Y0243677D01*
X0023556Y0243764D01*
X0023494Y0243854D01*
X0023436Y0243946D01*
X0023381Y0244040D01*
X0023330Y0244137D01*
X0023282Y0244234D01*
X0023238Y0244334D01*
X0023198Y0244435D01*
X0023161Y0244537D01*
X0023128Y0244641D01*
X0023098Y0244746D01*
X0023073Y0244852D01*
X0023051Y0244959D01*
X0023034Y0245066D01*
X0023020Y0245174D01*
X0023010Y0245282D01*
X0023004Y0245391D01*
X0023002Y0245500D01*
X0018110Y0186594D02*
X0031890Y0186594D01*
D16*
X0022850Y0232756D02*
X0022852Y0232795D01*
X0022858Y0232834D01*
X0022868Y0232872D01*
X0022881Y0232909D01*
X0022898Y0232944D01*
X0022918Y0232978D01*
X0022942Y0233009D01*
X0022969Y0233038D01*
X0022998Y0233064D01*
X0023030Y0233087D01*
X0023064Y0233107D01*
X0023100Y0233123D01*
X0023137Y0233135D01*
X0023176Y0233144D01*
X0023215Y0233149D01*
X0023254Y0233150D01*
X0023293Y0233147D01*
X0023332Y0233140D01*
X0023369Y0233129D01*
X0023406Y0233115D01*
X0023441Y0233097D01*
X0023474Y0233076D01*
X0023505Y0233051D01*
X0023533Y0233024D01*
X0023558Y0232994D01*
X0023580Y0232961D01*
X0023599Y0232927D01*
X0023614Y0232891D01*
X0023626Y0232853D01*
X0023634Y0232815D01*
X0023638Y0232776D01*
X0023638Y0232736D01*
X0023634Y0232697D01*
X0023626Y0232659D01*
X0023614Y0232621D01*
X0023599Y0232585D01*
X0023580Y0232551D01*
X0023558Y0232518D01*
X0023533Y0232488D01*
X0023505Y0232461D01*
X0023474Y0232436D01*
X0023441Y0232415D01*
X0023406Y0232397D01*
X0023369Y0232383D01*
X0023332Y0232372D01*
X0023293Y0232365D01*
X0023254Y0232362D01*
X0023215Y0232363D01*
X0023176Y0232368D01*
X0023137Y0232377D01*
X0023100Y0232389D01*
X0023064Y0232405D01*
X0023030Y0232425D01*
X0022998Y0232448D01*
X0022969Y0232474D01*
X0022942Y0232503D01*
X0022918Y0232534D01*
X0022898Y0232568D01*
X0022881Y0232603D01*
X0022868Y0232640D01*
X0022858Y0232678D01*
X0022852Y0232717D01*
X0022850Y0232756D01*
X0022850Y0248256D02*
X0022852Y0248295D01*
X0022858Y0248334D01*
X0022868Y0248372D01*
X0022881Y0248409D01*
X0022898Y0248444D01*
X0022918Y0248478D01*
X0022942Y0248509D01*
X0022969Y0248538D01*
X0022998Y0248564D01*
X0023030Y0248587D01*
X0023064Y0248607D01*
X0023100Y0248623D01*
X0023137Y0248635D01*
X0023176Y0248644D01*
X0023215Y0248649D01*
X0023254Y0248650D01*
X0023293Y0248647D01*
X0023332Y0248640D01*
X0023369Y0248629D01*
X0023406Y0248615D01*
X0023441Y0248597D01*
X0023474Y0248576D01*
X0023505Y0248551D01*
X0023533Y0248524D01*
X0023558Y0248494D01*
X0023580Y0248461D01*
X0023599Y0248427D01*
X0023614Y0248391D01*
X0023626Y0248353D01*
X0023634Y0248315D01*
X0023638Y0248276D01*
X0023638Y0248236D01*
X0023634Y0248197D01*
X0023626Y0248159D01*
X0023614Y0248121D01*
X0023599Y0248085D01*
X0023580Y0248051D01*
X0023558Y0248018D01*
X0023533Y0247988D01*
X0023505Y0247961D01*
X0023474Y0247936D01*
X0023441Y0247915D01*
X0023406Y0247897D01*
X0023369Y0247883D01*
X0023332Y0247872D01*
X0023293Y0247865D01*
X0023254Y0247862D01*
X0023215Y0247863D01*
X0023176Y0247868D01*
X0023137Y0247877D01*
X0023100Y0247889D01*
X0023064Y0247905D01*
X0023030Y0247925D01*
X0022998Y0247948D01*
X0022969Y0247974D01*
X0022942Y0248003D01*
X0022918Y0248034D01*
X0022898Y0248068D01*
X0022881Y0248103D01*
X0022868Y0248140D01*
X0022858Y0248178D01*
X0022852Y0248217D01*
X0022850Y0248256D01*
D17*
X0048000Y0248250D03*
X0048000Y0226750D03*
X0140000Y0127750D03*
X0155000Y0128750D03*
X0155000Y0107250D03*
X0140000Y0106250D03*
X0047000Y0100750D03*
X0047000Y0079250D03*
D18*
X0182250Y0043000D03*
X0203750Y0043000D03*
X0203250Y0169500D03*
X0204250Y0187500D03*
X0205250Y0205000D03*
X0183750Y0205000D03*
X0182750Y0187500D03*
X0181750Y0169500D03*
D19*
X0159200Y0156500D02*
X0159200Y0150500D01*
X0156700Y0150500D02*
X0156700Y0156500D01*
X0192300Y0070500D02*
X0192300Y0064500D01*
X0194800Y0064500D02*
X0194800Y0070500D01*
M02*
