G75*
%MOIN*%
%OFA0B0*%
%FSLAX25Y25*%
%IPPOS*%
%LPD*%
%AMOC8*
5,1,8,0,0,1.08239X$1,22.5*
%
%ADD10C,0.00000*%
%ADD11R,0.05315X0.02953*%
%ADD12C,0.06600*%
%ADD13C,0.07874*%
%ADD14R,0.06299X0.00984*%
%ADD15R,0.05906X0.05906*%
%ADD16OC8,0.05150*%
%ADD17R,0.05906X0.10236*%
%ADD18C,0.05200*%
%ADD19OC8,0.05200*%
%ADD20C,0.01000*%
%ADD21C,0.02000*%
%ADD22C,0.03000*%
%ADD23C,0.04000*%
%ADD24C,0.01600*%
D10*
X0001000Y0001000D02*
X0001000Y0263961D01*
X0230201Y0263961D01*
X0230701Y0001000D01*
X0001000Y0001000D01*
D11*
X0019520Y0034500D03*
X0019520Y0048000D03*
X0019520Y0062000D03*
X0019020Y0075000D03*
X0033980Y0075000D03*
X0034480Y0062000D03*
X0034480Y0048000D03*
X0034480Y0034500D03*
D12*
X0173500Y0020000D03*
X0213500Y0020000D03*
X0214406Y0095508D03*
X0214500Y0120500D03*
X0215000Y0146000D03*
X0175000Y0146000D03*
X0174500Y0120500D03*
X0174406Y0095508D03*
D13*
X0174795Y0233063D02*
X0174795Y0240937D01*
X0183063Y0255898D02*
X0190937Y0255898D01*
X0198811Y0240937D02*
X0198811Y0233063D01*
D14*
X0107748Y0204146D03*
X0107748Y0201587D03*
X0107748Y0199028D03*
X0107748Y0196469D03*
X0107748Y0193909D03*
X0107748Y0191350D03*
X0107748Y0188791D03*
X0107748Y0186232D03*
X0107748Y0183673D03*
X0107748Y0181114D03*
X0083339Y0181114D03*
X0083339Y0183673D03*
X0083339Y0186232D03*
X0083339Y0188791D03*
X0083339Y0191350D03*
X0083339Y0193909D03*
X0083339Y0196469D03*
X0083339Y0199028D03*
X0083339Y0201587D03*
X0083339Y0204146D03*
X0081945Y0074913D03*
X0081945Y0072354D03*
X0081945Y0069795D03*
X0081945Y0067236D03*
X0081945Y0064677D03*
X0081945Y0062118D03*
X0081945Y0059559D03*
X0081945Y0057000D03*
X0081945Y0054441D03*
X0081945Y0051882D03*
X0106354Y0051882D03*
X0106354Y0054441D03*
X0106354Y0057000D03*
X0106354Y0059559D03*
X0106354Y0062118D03*
X0106354Y0064677D03*
X0106354Y0067236D03*
X0106354Y0069795D03*
X0106354Y0072354D03*
X0106354Y0074913D03*
D15*
X0032890Y0230000D03*
X0019110Y0230000D03*
X0019110Y0245500D03*
X0032890Y0245500D03*
D16*
X0029500Y0170500D03*
X0019500Y0170500D03*
X0019500Y0146000D03*
X0029500Y0146000D03*
X0030000Y0122000D03*
X0020000Y0122000D03*
X0020000Y0096000D03*
X0030000Y0096000D03*
D17*
X0030906Y0192500D03*
X0019094Y0192500D03*
X0020094Y0212500D03*
X0031906Y0212500D03*
D18*
X0149900Y0212000D02*
X0155100Y0212000D01*
X0155100Y0202000D02*
X0149900Y0202000D01*
X0149900Y0192000D02*
X0155100Y0192000D01*
X0155100Y0182000D02*
X0149900Y0182000D01*
X0149900Y0172000D02*
X0155100Y0172000D01*
X0155600Y0085500D02*
X0150400Y0085500D01*
X0150400Y0075500D02*
X0155600Y0075500D01*
X0155600Y0065500D02*
X0150400Y0065500D01*
X0150400Y0055500D02*
X0155600Y0055500D01*
X0155600Y0045500D02*
X0150400Y0045500D01*
D19*
X0178000Y0043000D03*
X0188500Y0067500D03*
X0198500Y0067500D03*
X0208000Y0043000D03*
X0155000Y0103000D03*
X0140000Y0102000D03*
X0140000Y0132000D03*
X0155000Y0133000D03*
X0153000Y0153500D03*
X0163000Y0153500D03*
X0177500Y0169500D03*
X0178500Y0187500D03*
X0179500Y0205000D03*
X0208500Y0187500D03*
X0209500Y0205000D03*
X0207500Y0169500D03*
X0048000Y0222500D03*
X0048000Y0252500D03*
X0047000Y0105000D03*
X0047000Y0075000D03*
D20*
X0047087Y0074913D01*
X0056445Y0077244D02*
X0056445Y0110315D01*
X0056839Y0110709D01*
X0128492Y0110709D01*
X0128492Y0077638D01*
X0101220Y0077638D01*
X0101220Y0048898D01*
X0128492Y0048898D01*
X0128492Y0009921D01*
X0128098Y0010315D01*
X0056051Y0010315D01*
X0056445Y0010709D01*
X0056445Y0048898D01*
X0086866Y0048898D01*
X0086866Y0077244D01*
X0056445Y0077244D01*
X0056445Y0077885D02*
X0128492Y0077885D01*
X0128492Y0078884D02*
X0056445Y0078884D01*
X0056445Y0079882D02*
X0128492Y0079882D01*
X0128492Y0080881D02*
X0056445Y0080881D01*
X0056445Y0081879D02*
X0128492Y0081879D01*
X0128492Y0082878D02*
X0056445Y0082878D01*
X0056445Y0083876D02*
X0128492Y0083876D01*
X0128492Y0084875D02*
X0056445Y0084875D01*
X0056445Y0085873D02*
X0128492Y0085873D01*
X0128492Y0086872D02*
X0056445Y0086872D01*
X0056445Y0087870D02*
X0128492Y0087870D01*
X0128492Y0088869D02*
X0056445Y0088869D01*
X0056445Y0089868D02*
X0128492Y0089868D01*
X0128492Y0090866D02*
X0056445Y0090866D01*
X0056445Y0091865D02*
X0128492Y0091865D01*
X0128492Y0092863D02*
X0056445Y0092863D01*
X0056445Y0093862D02*
X0128492Y0093862D01*
X0128492Y0094860D02*
X0056445Y0094860D01*
X0056445Y0095859D02*
X0128492Y0095859D01*
X0128492Y0096857D02*
X0056445Y0096857D01*
X0056445Y0097856D02*
X0128492Y0097856D01*
X0128492Y0098854D02*
X0056445Y0098854D01*
X0056445Y0099853D02*
X0128492Y0099853D01*
X0128492Y0100851D02*
X0056445Y0100851D01*
X0056445Y0101850D02*
X0128492Y0101850D01*
X0128492Y0102848D02*
X0056445Y0102848D01*
X0056445Y0103847D02*
X0128492Y0103847D01*
X0128492Y0104845D02*
X0056445Y0104845D01*
X0056445Y0105844D02*
X0128492Y0105844D01*
X0128492Y0106842D02*
X0056445Y0106842D01*
X0056445Y0107841D02*
X0128492Y0107841D01*
X0128492Y0108839D02*
X0056445Y0108839D01*
X0056445Y0109838D02*
X0128492Y0109838D01*
X0129992Y0139421D02*
X0129598Y0139815D01*
X0057551Y0139815D01*
X0057945Y0140209D01*
X0057945Y0178398D01*
X0088366Y0178398D01*
X0088366Y0206744D01*
X0057945Y0206744D01*
X0057945Y0239815D01*
X0058339Y0240209D01*
X0129992Y0240209D01*
X0129992Y0207138D01*
X0102720Y0207138D01*
X0102720Y0178398D01*
X0129992Y0178398D01*
X0129992Y0139421D01*
X0129992Y0139793D02*
X0129620Y0139793D01*
X0129992Y0140792D02*
X0057945Y0140792D01*
X0057945Y0141790D02*
X0129992Y0141790D01*
X0129992Y0142789D02*
X0057945Y0142789D01*
X0057945Y0143787D02*
X0129992Y0143787D01*
X0129992Y0144786D02*
X0057945Y0144786D01*
X0057945Y0145784D02*
X0129992Y0145784D01*
X0129992Y0146783D02*
X0057945Y0146783D01*
X0057945Y0147781D02*
X0129992Y0147781D01*
X0129992Y0148780D02*
X0057945Y0148780D01*
X0057945Y0149778D02*
X0129992Y0149778D01*
X0129992Y0150777D02*
X0057945Y0150777D01*
X0057945Y0151775D02*
X0129992Y0151775D01*
X0129992Y0152774D02*
X0057945Y0152774D01*
X0057945Y0153772D02*
X0129992Y0153772D01*
X0129992Y0154771D02*
X0057945Y0154771D01*
X0057945Y0155769D02*
X0129992Y0155769D01*
X0129992Y0156768D02*
X0057945Y0156768D01*
X0057945Y0157766D02*
X0129992Y0157766D01*
X0129992Y0158765D02*
X0057945Y0158765D01*
X0057945Y0159763D02*
X0129992Y0159763D01*
X0129992Y0160762D02*
X0057945Y0160762D01*
X0057945Y0161760D02*
X0129992Y0161760D01*
X0129992Y0162759D02*
X0057945Y0162759D01*
X0057945Y0163757D02*
X0129992Y0163757D01*
X0129992Y0164756D02*
X0057945Y0164756D01*
X0057945Y0165754D02*
X0129992Y0165754D01*
X0129992Y0166753D02*
X0057945Y0166753D01*
X0057945Y0167751D02*
X0129992Y0167751D01*
X0129992Y0168750D02*
X0057945Y0168750D01*
X0057945Y0169748D02*
X0129992Y0169748D01*
X0129992Y0170747D02*
X0057945Y0170747D01*
X0057945Y0171745D02*
X0129992Y0171745D01*
X0129992Y0172744D02*
X0057945Y0172744D01*
X0057945Y0173742D02*
X0129992Y0173742D01*
X0129992Y0174741D02*
X0057945Y0174741D01*
X0057945Y0175739D02*
X0129992Y0175739D01*
X0129992Y0176738D02*
X0057945Y0176738D01*
X0057945Y0177737D02*
X0129992Y0177737D01*
X0135500Y0180000D02*
X0138500Y0180000D01*
X0139500Y0179000D01*
X0135500Y0180000D02*
X0129268Y0186232D01*
X0107748Y0186232D01*
X0107748Y0183673D02*
X0107748Y0181114D01*
X0102720Y0180732D02*
X0088366Y0180732D01*
X0088366Y0179734D02*
X0102720Y0179734D01*
X0102720Y0178735D02*
X0088366Y0178735D01*
X0088366Y0181731D02*
X0102720Y0181731D01*
X0102720Y0182729D02*
X0088366Y0182729D01*
X0088366Y0183728D02*
X0102720Y0183728D01*
X0102720Y0184726D02*
X0088366Y0184726D01*
X0088366Y0185725D02*
X0102720Y0185725D01*
X0102720Y0186723D02*
X0088366Y0186723D01*
X0088366Y0187722D02*
X0102720Y0187722D01*
X0102720Y0188720D02*
X0088366Y0188720D01*
X0088366Y0189719D02*
X0102720Y0189719D01*
X0102720Y0190717D02*
X0088366Y0190717D01*
X0088366Y0191716D02*
X0102720Y0191716D01*
X0102720Y0192714D02*
X0088366Y0192714D01*
X0088366Y0193713D02*
X0102720Y0193713D01*
X0102720Y0194711D02*
X0088366Y0194711D01*
X0088366Y0195710D02*
X0102720Y0195710D01*
X0102720Y0196708D02*
X0088366Y0196708D01*
X0088366Y0197707D02*
X0102720Y0197707D01*
X0102720Y0198705D02*
X0088366Y0198705D01*
X0088366Y0199704D02*
X0102720Y0199704D01*
X0102720Y0200702D02*
X0088366Y0200702D01*
X0088366Y0201701D02*
X0102720Y0201701D01*
X0102720Y0202699D02*
X0088366Y0202699D01*
X0088366Y0203698D02*
X0102720Y0203698D01*
X0102720Y0204696D02*
X0088366Y0204696D01*
X0088366Y0205695D02*
X0102720Y0205695D01*
X0102720Y0206693D02*
X0088366Y0206693D01*
X0092000Y0202000D02*
X0091587Y0201587D01*
X0083339Y0201587D01*
X0083339Y0204146D02*
X0056854Y0204146D01*
X0055000Y0206000D01*
X0051000Y0205000D02*
X0051000Y0213000D01*
X0043000Y0221000D01*
X0038000Y0220000D02*
X0049000Y0209000D01*
X0049000Y0203000D01*
X0055531Y0196469D01*
X0083339Y0196469D01*
X0083339Y0199028D02*
X0061028Y0199028D01*
X0061000Y0199000D01*
X0057000Y0199000D01*
X0051000Y0205000D01*
X0057945Y0207692D02*
X0129992Y0207692D01*
X0129992Y0208690D02*
X0057945Y0208690D01*
X0057945Y0209689D02*
X0129992Y0209689D01*
X0129992Y0210687D02*
X0057945Y0210687D01*
X0057945Y0211686D02*
X0129992Y0211686D01*
X0129992Y0212684D02*
X0057945Y0212684D01*
X0057945Y0213683D02*
X0129992Y0213683D01*
X0129992Y0214681D02*
X0057945Y0214681D01*
X0057945Y0215680D02*
X0129992Y0215680D01*
X0129992Y0216678D02*
X0057945Y0216678D01*
X0057945Y0217677D02*
X0129992Y0217677D01*
X0129992Y0218675D02*
X0057945Y0218675D01*
X0057945Y0219674D02*
X0129992Y0219674D01*
X0129992Y0220672D02*
X0057945Y0220672D01*
X0057945Y0221671D02*
X0129992Y0221671D01*
X0129992Y0222670D02*
X0057945Y0222670D01*
X0057945Y0223668D02*
X0129992Y0223668D01*
X0129992Y0224667D02*
X0057945Y0224667D01*
X0057945Y0225665D02*
X0129992Y0225665D01*
X0129992Y0226664D02*
X0057945Y0226664D01*
X0057945Y0227662D02*
X0129992Y0227662D01*
X0129992Y0228661D02*
X0057945Y0228661D01*
X0057945Y0229659D02*
X0129992Y0229659D01*
X0129992Y0230658D02*
X0057945Y0230658D01*
X0057945Y0231656D02*
X0129992Y0231656D01*
X0129992Y0232655D02*
X0057945Y0232655D01*
X0057945Y0233653D02*
X0129992Y0233653D01*
X0129992Y0234652D02*
X0057945Y0234652D01*
X0057945Y0235650D02*
X0129992Y0235650D01*
X0129992Y0236649D02*
X0057945Y0236649D01*
X0057945Y0237647D02*
X0129992Y0237647D01*
X0129992Y0238646D02*
X0057945Y0238646D01*
X0057945Y0239644D02*
X0129992Y0239644D01*
X0142000Y0217000D02*
X0142000Y0213000D01*
X0130587Y0201587D01*
X0107748Y0201587D01*
X0107748Y0204146D02*
X0130146Y0204146D01*
X0134000Y0208000D01*
X0134000Y0211000D01*
X0136000Y0213000D01*
X0135000Y0202000D02*
X0132000Y0199000D01*
X0107776Y0199000D01*
X0107748Y0199028D01*
X0107748Y0196469D02*
X0133469Y0196469D01*
X0134000Y0197000D01*
X0133091Y0193909D02*
X0135000Y0192000D01*
X0133091Y0193909D02*
X0107748Y0193909D01*
X0107748Y0191350D02*
X0131650Y0191350D01*
X0136000Y0187000D01*
X0136000Y0183000D02*
X0130209Y0188791D01*
X0107748Y0188791D01*
X0083339Y0188791D02*
X0053791Y0188791D01*
X0053000Y0188000D01*
X0055232Y0186232D02*
X0046000Y0177000D01*
X0049000Y0176000D02*
X0049000Y0173000D01*
X0049000Y0176000D02*
X0056673Y0183673D01*
X0083339Y0183673D01*
X0083339Y0181114D02*
X0057114Y0181114D01*
X0053000Y0177000D01*
X0053000Y0155000D01*
X0055232Y0186232D02*
X0083339Y0186232D01*
X0083339Y0191350D02*
X0045650Y0191350D01*
X0045000Y0192000D01*
X0048091Y0193909D02*
X0045000Y0197000D01*
X0048091Y0193909D02*
X0083339Y0193909D01*
X0141000Y0080000D02*
X0133354Y0072354D01*
X0106354Y0072354D01*
X0106354Y0069795D02*
X0129795Y0069795D01*
X0130000Y0070000D01*
X0130913Y0074913D02*
X0135000Y0079000D01*
X0130913Y0074913D02*
X0106354Y0074913D01*
X0101220Y0074890D02*
X0086866Y0074890D01*
X0086866Y0075888D02*
X0101220Y0075888D01*
X0101220Y0076887D02*
X0086866Y0076887D01*
X0086866Y0073891D02*
X0101220Y0073891D01*
X0101220Y0072893D02*
X0086866Y0072893D01*
X0086866Y0071894D02*
X0101220Y0071894D01*
X0101220Y0070896D02*
X0086866Y0070896D01*
X0086866Y0069897D02*
X0101220Y0069897D01*
X0101220Y0068899D02*
X0086866Y0068899D01*
X0086866Y0067900D02*
X0101220Y0067900D01*
X0101220Y0066902D02*
X0086866Y0066902D01*
X0086866Y0065903D02*
X0101220Y0065903D01*
X0101220Y0064905D02*
X0086866Y0064905D01*
X0086866Y0063906D02*
X0101220Y0063906D01*
X0101220Y0062908D02*
X0086866Y0062908D01*
X0086866Y0061909D02*
X0101220Y0061909D01*
X0101220Y0060911D02*
X0086866Y0060911D01*
X0086866Y0059912D02*
X0101220Y0059912D01*
X0101220Y0058914D02*
X0086866Y0058914D01*
X0086866Y0057915D02*
X0101220Y0057915D01*
X0101220Y0056917D02*
X0086866Y0056917D01*
X0086866Y0055918D02*
X0101220Y0055918D01*
X0101220Y0054920D02*
X0086866Y0054920D01*
X0086866Y0053921D02*
X0101220Y0053921D01*
X0101220Y0052923D02*
X0086866Y0052923D01*
X0086866Y0051924D02*
X0101220Y0051924D01*
X0101220Y0050926D02*
X0086866Y0050926D01*
X0086866Y0049927D02*
X0101220Y0049927D01*
X0101220Y0048929D02*
X0086866Y0048929D01*
X0081945Y0051882D02*
X0081945Y0054441D01*
X0081945Y0057000D02*
X0073000Y0057000D01*
X0070000Y0053000D02*
X0071118Y0051882D01*
X0081945Y0051882D01*
X0081945Y0057000D02*
X0081945Y0059559D01*
X0081945Y0062118D02*
X0081945Y0064677D01*
X0081768Y0064500D01*
X0076500Y0064500D01*
X0074000Y0062000D01*
X0072000Y0067000D02*
X0074795Y0069795D01*
X0081945Y0069795D01*
X0081945Y0067236D01*
X0081945Y0072354D02*
X0089354Y0072354D01*
X0094000Y0077000D01*
X0081945Y0074913D02*
X0081858Y0075000D01*
X0061000Y0075000D01*
X0060000Y0074000D01*
X0056445Y0047930D02*
X0128492Y0047930D01*
X0128492Y0046932D02*
X0056445Y0046932D01*
X0056445Y0045933D02*
X0128492Y0045933D01*
X0128492Y0044934D02*
X0056445Y0044934D01*
X0056445Y0043936D02*
X0128492Y0043936D01*
X0128492Y0042937D02*
X0056445Y0042937D01*
X0056445Y0041939D02*
X0128492Y0041939D01*
X0128492Y0040940D02*
X0056445Y0040940D01*
X0056445Y0039942D02*
X0128492Y0039942D01*
X0128492Y0038943D02*
X0056445Y0038943D01*
X0056445Y0037945D02*
X0128492Y0037945D01*
X0128492Y0036946D02*
X0056445Y0036946D01*
X0056445Y0035948D02*
X0128492Y0035948D01*
X0128492Y0034949D02*
X0056445Y0034949D01*
X0056445Y0033951D02*
X0128492Y0033951D01*
X0128492Y0032952D02*
X0056445Y0032952D01*
X0056445Y0031954D02*
X0128492Y0031954D01*
X0128492Y0030955D02*
X0056445Y0030955D01*
X0056445Y0029957D02*
X0128492Y0029957D01*
X0128492Y0028958D02*
X0056445Y0028958D01*
X0056445Y0027960D02*
X0128492Y0027960D01*
X0128492Y0026961D02*
X0056445Y0026961D01*
X0056445Y0025963D02*
X0128492Y0025963D01*
X0128492Y0024964D02*
X0056445Y0024964D01*
X0056445Y0023966D02*
X0128492Y0023966D01*
X0128492Y0022967D02*
X0056445Y0022967D01*
X0056445Y0021969D02*
X0128492Y0021969D01*
X0128492Y0020970D02*
X0056445Y0020970D01*
X0056445Y0019972D02*
X0128492Y0019972D01*
X0128492Y0018973D02*
X0056445Y0018973D01*
X0056445Y0017975D02*
X0128492Y0017975D01*
X0128492Y0016976D02*
X0056445Y0016976D01*
X0056445Y0015978D02*
X0128492Y0015978D01*
X0128492Y0014979D02*
X0056445Y0014979D01*
X0056445Y0013981D02*
X0128492Y0013981D01*
X0128492Y0012982D02*
X0056445Y0012982D01*
X0056445Y0011984D02*
X0128492Y0011984D01*
X0128492Y0010985D02*
X0056445Y0010985D01*
X0106354Y0051882D02*
X0106354Y0054441D01*
X0106354Y0057000D02*
X0130000Y0057000D01*
X0138000Y0049000D01*
X0140000Y0052000D02*
X0132441Y0059559D01*
X0106354Y0059559D01*
X0106354Y0062118D02*
X0135882Y0062118D01*
X0139000Y0059000D01*
X0139000Y0063000D02*
X0143000Y0063000D01*
X0139000Y0063000D02*
X0137323Y0064677D01*
X0106354Y0064677D01*
X0106354Y0067236D02*
X0141764Y0067236D01*
X0142000Y0067000D01*
X0128492Y0009987D02*
X0128427Y0009987D01*
D21*
X0137000Y0020000D02*
X0134000Y0023000D01*
X0134000Y0049000D01*
X0131118Y0051882D01*
X0117118Y0051882D01*
X0117000Y0052000D01*
X0106472Y0052000D01*
X0106354Y0051882D01*
X0095000Y0076000D02*
X0094000Y0077000D01*
X0094000Y0113000D01*
X0094000Y0126000D01*
X0100000Y0132000D01*
X0140000Y0132000D01*
X0154000Y0132000D01*
X0159000Y0132000D01*
X0163000Y0128000D01*
X0163000Y0082000D01*
X0169000Y0076000D01*
X0196000Y0076000D01*
X0199000Y0073000D01*
X0199000Y0068000D01*
X0198500Y0067500D01*
X0198500Y0060500D01*
X0202000Y0057000D01*
X0205000Y0057000D01*
X0208000Y0054000D01*
X0208000Y0043000D01*
X0188500Y0037500D02*
X0186000Y0035000D01*
X0177000Y0035000D01*
X0174000Y0032000D01*
X0174000Y0020500D01*
X0173500Y0020000D01*
X0137000Y0020000D01*
X0140000Y0039000D02*
X0138000Y0041000D01*
X0138000Y0049000D01*
X0140000Y0052000D02*
X0146500Y0052000D01*
X0153000Y0045500D01*
X0153000Y0055500D02*
X0149500Y0059000D01*
X0139000Y0059000D01*
X0143000Y0063000D02*
X0150500Y0063000D01*
X0153000Y0065500D01*
X0144500Y0067000D02*
X0153000Y0075500D01*
X0153000Y0085500D02*
X0137500Y0070000D01*
X0130000Y0070000D01*
X0135000Y0079000D02*
X0135000Y0097000D01*
X0140000Y0102000D01*
X0141000Y0089000D02*
X0155000Y0103000D01*
X0141000Y0089000D02*
X0141000Y0080000D01*
X0142000Y0067000D02*
X0144500Y0067000D01*
X0140000Y0039000D02*
X0174000Y0039000D01*
X0178000Y0043000D01*
X0188500Y0037500D02*
X0188500Y0067500D01*
X0174406Y0095508D02*
X0174500Y0095602D01*
X0174500Y0120500D01*
X0175000Y0121000D01*
X0175000Y0131000D01*
X0171000Y0135000D01*
X0167000Y0135000D01*
X0163000Y0139000D01*
X0163000Y0153500D01*
X0163000Y0158000D01*
X0159000Y0162000D01*
X0141000Y0162000D01*
X0136000Y0167000D01*
X0136000Y0176000D01*
X0130886Y0181114D01*
X0117614Y0181114D01*
X0117500Y0181000D01*
X0117500Y0181114D01*
X0107748Y0181114D01*
X0096000Y0204000D02*
X0095000Y0205000D01*
X0092000Y0202000D01*
X0095000Y0205000D02*
X0095000Y0240000D01*
X0096000Y0204000D02*
X0096000Y0157000D01*
X0101000Y0152000D01*
X0151500Y0152000D01*
X0153000Y0153500D01*
X0155000Y0151500D01*
X0155000Y0133000D01*
X0154000Y0132000D01*
X0171000Y0150000D02*
X0175000Y0146000D01*
X0171000Y0150000D02*
X0171000Y0164000D01*
X0168000Y0167000D01*
X0142500Y0167000D01*
X0139500Y0170000D01*
X0139500Y0179000D01*
X0141500Y0183000D02*
X0136000Y0183000D01*
X0136000Y0187000D02*
X0147500Y0187000D01*
X0152500Y0182000D01*
X0152500Y0172000D02*
X0141500Y0183000D01*
X0135000Y0192000D02*
X0152500Y0192000D01*
X0147500Y0197000D02*
X0152500Y0202000D01*
X0147500Y0197000D02*
X0134000Y0197000D01*
X0136000Y0213000D02*
X0137000Y0214000D01*
X0137000Y0226000D01*
X0142000Y0231000D01*
X0165000Y0231000D01*
X0170000Y0226000D01*
X0170000Y0208000D01*
X0174000Y0204000D01*
X0178500Y0204000D01*
X0179500Y0205000D01*
X0178000Y0188000D02*
X0166000Y0188000D01*
X0162000Y0192000D01*
X0162000Y0219000D01*
X0158000Y0223000D01*
X0146000Y0223000D01*
X0142000Y0219000D01*
X0142000Y0213000D01*
X0178000Y0188000D02*
X0178500Y0187500D01*
X0177500Y0169500D02*
X0175000Y0167000D01*
X0168000Y0167000D01*
X0215000Y0146000D02*
X0218000Y0143000D01*
X0218000Y0124000D01*
X0214500Y0120500D01*
X0215000Y0121000D01*
X0214406Y0095508D02*
X0214406Y0094594D01*
X0214406Y0020906D02*
X0213500Y0020000D01*
X0095000Y0026000D02*
X0089000Y0020000D01*
X0026000Y0020000D01*
X0020000Y0026000D01*
X0020000Y0096000D01*
X0020000Y0075980D01*
X0019020Y0075000D01*
X0019020Y0062500D01*
X0019520Y0062000D01*
X0019520Y0048000D01*
X0019520Y0034500D01*
X0034480Y0034500D02*
X0034980Y0034000D01*
X0043000Y0034000D01*
X0046000Y0037000D01*
X0046000Y0046000D01*
X0053000Y0053000D01*
X0070000Y0053000D01*
X0073000Y0057000D02*
X0042000Y0057000D01*
X0035000Y0050000D01*
X0035000Y0048520D01*
X0034480Y0048000D01*
X0034480Y0062000D02*
X0074000Y0062000D01*
X0072000Y0067000D02*
X0046000Y0067000D01*
X0038000Y0075000D01*
X0033980Y0075000D01*
X0047087Y0074913D02*
X0047087Y0072913D01*
X0048000Y0072000D01*
X0058000Y0072000D01*
X0060000Y0074000D01*
X0047000Y0105000D02*
X0058000Y0116000D01*
X0091000Y0116000D01*
X0094000Y0113000D01*
X0095000Y0076000D02*
X0095000Y0026000D01*
X0030000Y0096000D02*
X0031000Y0097000D01*
X0030000Y0096000D02*
X0030000Y0110000D01*
X0037000Y0117000D01*
X0045000Y0117000D01*
X0053000Y0125000D01*
X0053000Y0155000D01*
X0049000Y0139000D02*
X0043000Y0133000D01*
X0035000Y0133000D01*
X0030000Y0128000D01*
X0030000Y0122000D01*
X0020000Y0122000D02*
X0020000Y0096000D01*
X0020000Y0122000D02*
X0019500Y0122500D01*
X0019500Y0146000D01*
X0019500Y0170500D01*
X0019094Y0170906D01*
X0019094Y0192500D01*
X0019000Y0192406D01*
X0019000Y0190000D01*
X0020094Y0191094D01*
X0020094Y0212500D01*
X0020000Y0212406D01*
X0020000Y0208000D01*
X0019110Y0208890D01*
X0019110Y0230000D01*
X0019110Y0245500D01*
X0019110Y0251110D01*
X0024000Y0256000D01*
X0044500Y0256000D01*
X0048000Y0252500D01*
X0039000Y0246000D02*
X0043000Y0242000D01*
X0043000Y0221000D01*
X0038000Y0220000D02*
X0038000Y0224890D01*
X0032890Y0230000D01*
X0032890Y0245500D02*
X0033390Y0246000D01*
X0039000Y0246000D01*
X0048000Y0222500D02*
X0055000Y0215500D01*
X0055000Y0206000D01*
X0045000Y0207000D02*
X0045000Y0197000D01*
X0045000Y0192000D02*
X0031406Y0192000D01*
X0030906Y0192500D01*
X0045000Y0207000D02*
X0042000Y0210000D01*
X0034406Y0210000D01*
X0031906Y0212500D01*
X0047000Y0188000D02*
X0029500Y0170500D01*
X0031000Y0162000D02*
X0031000Y0147500D01*
X0029500Y0146000D01*
X0031000Y0162000D02*
X0046000Y0177000D01*
X0049000Y0173000D02*
X0049000Y0139000D01*
X0047000Y0188000D02*
X0053000Y0188000D01*
D22*
X0095000Y0240000D02*
X0095000Y0250000D01*
X0100898Y0255898D01*
X0187000Y0255898D01*
X0187000Y0248811D01*
X0198811Y0237000D01*
X0206000Y0237000D01*
X0210000Y0233000D01*
X0210000Y0205500D01*
X0209500Y0205000D02*
X0209500Y0188500D01*
X0208500Y0187500D02*
X0208500Y0170500D01*
X0192000Y0227000D02*
X0192000Y0113000D01*
X0197000Y0108000D01*
X0211000Y0108000D01*
X0215000Y0104000D01*
X0215000Y0096102D01*
X0214406Y0094594D02*
X0220000Y0089000D01*
X0220000Y0026500D01*
X0213500Y0020000D01*
X0192000Y0227000D02*
X0182000Y0237000D01*
X0174795Y0237000D01*
D23*
X0209500Y0205000D02*
X0210000Y0205500D01*
X0209500Y0188500D02*
X0208500Y0187500D01*
X0208500Y0170500D02*
X0207500Y0169500D01*
X0215000Y0096102D02*
X0214406Y0095508D01*
D24*
X0142500Y0202000D02*
X0135000Y0202000D01*
X0142500Y0202000D02*
X0152500Y0212000D01*
M02*
