G75*
%MOIN*%
%OFA0B0*%
%FSLAX25Y25*%
%IPPOS*%
%LPD*%
%AMOC8*
5,1,8,0,0,1.08239X$1,22.5*
%
%ADD10C,0.06600*%
%ADD11C,0.07874*%
%ADD12OC8,0.05150*%
%ADD13C,0.05200*%
%ADD14OC8,0.05200*%
D10*
X0173500Y0020000D03*
X0213500Y0020000D03*
X0214406Y0095508D03*
X0214500Y0120500D03*
X0215000Y0146000D03*
X0175000Y0146000D03*
X0174500Y0120500D03*
X0174406Y0095508D03*
D11*
X0174795Y0233063D02*
X0174795Y0240937D01*
X0183063Y0255898D02*
X0190937Y0255898D01*
X0198811Y0240937D02*
X0198811Y0233063D01*
D12*
X0029500Y0170500D03*
X0019500Y0170500D03*
X0019500Y0146000D03*
X0029500Y0146000D03*
X0030000Y0122000D03*
X0020000Y0122000D03*
X0020000Y0096000D03*
X0030000Y0096000D03*
D13*
X0150400Y0085500D02*
X0155600Y0085500D01*
X0155600Y0075500D02*
X0150400Y0075500D01*
X0150400Y0065500D02*
X0155600Y0065500D01*
X0155600Y0055500D02*
X0150400Y0055500D01*
X0150400Y0045500D02*
X0155600Y0045500D01*
X0155100Y0172000D02*
X0149900Y0172000D01*
X0149900Y0182000D02*
X0155100Y0182000D01*
X0155100Y0192000D02*
X0149900Y0192000D01*
X0149900Y0202000D02*
X0155100Y0202000D01*
X0155100Y0212000D02*
X0149900Y0212000D01*
D14*
X0047000Y0075000D03*
X0047000Y0105000D03*
X0140000Y0102000D03*
X0155000Y0103000D03*
X0140000Y0132000D03*
X0155000Y0133000D03*
X0153000Y0153500D03*
X0163000Y0153500D03*
X0177500Y0169500D03*
X0178500Y0187500D03*
X0179500Y0205000D03*
X0208500Y0187500D03*
X0209500Y0205000D03*
X0207500Y0169500D03*
X0198500Y0067500D03*
X0188500Y0067500D03*
X0178000Y0043000D03*
X0208000Y0043000D03*
X0048000Y0222500D03*
X0048000Y0252500D03*
M02*
