G75*
%MOIN*%
%OFA0B0*%
%FSLAX25Y25*%
%IPPOS*%
%LPD*%
%AMOC8*
5,1,8,0,0,1.08239X$1,22.5*
%
%ADD10R,0.06115X0.03753*%
%ADD11C,0.07400*%
%ADD12C,0.08674*%
%ADD13R,0.07099X0.01784*%
%ADD14R,0.06706X0.06706*%
%ADD15OC8,0.05950*%
%ADD16R,0.06706X0.11036*%
%ADD17C,0.06000*%
%ADD18OC8,0.06000*%
D10*
X0019520Y0034500D03*
X0019520Y0048000D03*
X0019520Y0062000D03*
X0019020Y0075000D03*
X0033980Y0075000D03*
X0034480Y0062000D03*
X0034480Y0048000D03*
X0034480Y0034500D03*
D11*
X0173500Y0020000D03*
X0213500Y0020000D03*
X0214406Y0095508D03*
X0214500Y0120500D03*
X0215000Y0146000D03*
X0175000Y0146000D03*
X0174500Y0120500D03*
X0174406Y0095508D03*
D12*
X0174795Y0233063D02*
X0174795Y0240937D01*
X0183063Y0255898D02*
X0190937Y0255898D01*
X0198811Y0240937D02*
X0198811Y0233063D01*
D13*
X0107748Y0204146D03*
X0107748Y0201587D03*
X0107748Y0199028D03*
X0107748Y0196469D03*
X0107748Y0193909D03*
X0107748Y0191350D03*
X0107748Y0188791D03*
X0107748Y0186232D03*
X0107748Y0183673D03*
X0107748Y0181114D03*
X0083339Y0181114D03*
X0083339Y0183673D03*
X0083339Y0186232D03*
X0083339Y0188791D03*
X0083339Y0191350D03*
X0083339Y0193909D03*
X0083339Y0196469D03*
X0083339Y0199028D03*
X0083339Y0201587D03*
X0083339Y0204146D03*
X0081945Y0074913D03*
X0081945Y0072354D03*
X0081945Y0069795D03*
X0081945Y0067236D03*
X0081945Y0064677D03*
X0081945Y0062118D03*
X0081945Y0059559D03*
X0081945Y0057000D03*
X0081945Y0054441D03*
X0081945Y0051882D03*
X0106354Y0051882D03*
X0106354Y0054441D03*
X0106354Y0057000D03*
X0106354Y0059559D03*
X0106354Y0062118D03*
X0106354Y0064677D03*
X0106354Y0067236D03*
X0106354Y0069795D03*
X0106354Y0072354D03*
X0106354Y0074913D03*
D14*
X0032890Y0230000D03*
X0019110Y0230000D03*
X0019110Y0245500D03*
X0032890Y0245500D03*
D15*
X0029500Y0170500D03*
X0019500Y0170500D03*
X0019500Y0146000D03*
X0029500Y0146000D03*
X0030000Y0122000D03*
X0020000Y0122000D03*
X0020000Y0096000D03*
X0030000Y0096000D03*
D16*
X0030906Y0192500D03*
X0019094Y0192500D03*
X0020094Y0212500D03*
X0031906Y0212500D03*
D17*
X0149900Y0212000D02*
X0155100Y0212000D01*
X0155100Y0202000D02*
X0149900Y0202000D01*
X0149900Y0192000D02*
X0155100Y0192000D01*
X0155100Y0182000D02*
X0149900Y0182000D01*
X0149900Y0172000D02*
X0155100Y0172000D01*
X0155600Y0085500D02*
X0150400Y0085500D01*
X0150400Y0075500D02*
X0155600Y0075500D01*
X0155600Y0065500D02*
X0150400Y0065500D01*
X0150400Y0055500D02*
X0155600Y0055500D01*
X0155600Y0045500D02*
X0150400Y0045500D01*
D18*
X0178000Y0043000D03*
X0188500Y0067500D03*
X0198500Y0067500D03*
X0208000Y0043000D03*
X0155000Y0103000D03*
X0140000Y0102000D03*
X0140000Y0132000D03*
X0155000Y0133000D03*
X0153000Y0153500D03*
X0163000Y0153500D03*
X0177500Y0169500D03*
X0178500Y0187500D03*
X0179500Y0205000D03*
X0208500Y0187500D03*
X0209500Y0205000D03*
X0207500Y0169500D03*
X0048000Y0222500D03*
X0048000Y0252500D03*
X0047000Y0105000D03*
X0047000Y0075000D03*
M02*
