G75*
%MOIN*%
%OFA0B0*%
%FSLAX25Y25*%
%IPPOS*%
%LPD*%
%AMOC8*
5,1,8,0,0,1.08239X$1,22.5*
%
%ADD10R,0.05315X0.02953*%
%ADD11R,0.06299X0.00984*%
%ADD12R,0.05906X0.05906*%
%ADD13R,0.05906X0.10236*%
D10*
X0019520Y0034500D03*
X0019520Y0048000D03*
X0019520Y0062000D03*
X0019020Y0075000D03*
X0033980Y0075000D03*
X0034480Y0062000D03*
X0034480Y0048000D03*
X0034480Y0034500D03*
D11*
X0081945Y0051882D03*
X0081945Y0054441D03*
X0081945Y0057000D03*
X0081945Y0059559D03*
X0081945Y0062118D03*
X0081945Y0064677D03*
X0081945Y0067236D03*
X0081945Y0069795D03*
X0081945Y0072354D03*
X0081945Y0074913D03*
X0106354Y0074913D03*
X0106354Y0072354D03*
X0106354Y0069795D03*
X0106354Y0067236D03*
X0106354Y0064677D03*
X0106354Y0062118D03*
X0106354Y0059559D03*
X0106354Y0057000D03*
X0106354Y0054441D03*
X0106354Y0051882D03*
X0107748Y0181114D03*
X0107748Y0183673D03*
X0107748Y0186232D03*
X0107748Y0188791D03*
X0107748Y0191350D03*
X0107748Y0193909D03*
X0107748Y0196469D03*
X0107748Y0199028D03*
X0107748Y0201587D03*
X0107748Y0204146D03*
X0083339Y0204146D03*
X0083339Y0201587D03*
X0083339Y0199028D03*
X0083339Y0196469D03*
X0083339Y0193909D03*
X0083339Y0191350D03*
X0083339Y0188791D03*
X0083339Y0186232D03*
X0083339Y0183673D03*
X0083339Y0181114D03*
D12*
X0032890Y0230000D03*
X0019110Y0230000D03*
X0019110Y0245500D03*
X0032890Y0245500D03*
D13*
X0031906Y0212500D03*
X0020094Y0212500D03*
X0019094Y0192500D03*
X0030906Y0192500D03*
M02*
