%
M48
M72
T01C0.03150
T02C0.03200
T03C0.03937
T04C0.04400
%
T01
X20000Y96000
X30000Y96000
X30000Y122000
X20000Y122000
X19500Y146000
X29500Y146000
X29500Y170500
X19500Y170500
T02
X47000Y75000
X47000Y105000
X140000Y102000
X155000Y103000
X153000Y85500
X153000Y75500
X153000Y65500
X153000Y55500
X153000Y45500
X178000Y43000
X188500Y67500
X198500Y67500
X208000Y43000
X140000Y132000
X155000Y133000
X153000Y153500
X163000Y153500
X177500Y169500
X178500Y187500
X179500Y205000
X152500Y202000
X152500Y192000
X152500Y182000
X152500Y172000
X152500Y212000
X208500Y187500
X209500Y205000
X207500Y169500
X48000Y222500
X48000Y252500
T03
X174795Y237000
X187000Y255898
X198811Y237000
T04
X215000Y146000
X214500Y120500
X214406Y95508
X174406Y95508
X174500Y120500
X175000Y146000
X173500Y20000
X213500Y20000
M30
