%
M48
M72
T01C0.01969
T02C0.02400
T03C0.03200
T04C0.03543
T05C0.03600
T06C0.03937
T07C0.04000
T08C0.05200
%
T01
X287471Y47592
X292196Y47592
T02
X318833Y25167
X325833Y30917
X343333Y28167
X329583Y54167
X354583Y72917
X353333Y109167
X335833Y126667
X330833Y114167
X312083Y110417
X318333Y92917
X304583Y92917
X294583Y96667
X252083Y139167
X242083Y142917
X222083Y150417
X244583Y177917
X248333Y185417
X244583Y189167
X233333Y196667
X250833Y210417
X259583Y221667
X267083Y214167
X293333Y245417
X295833Y252917
X313333Y245417
X328333Y227917
X338333Y244167
X342083Y264167
X345833Y267917
X354583Y260417
X364583Y244167
X323333Y209167
X313333Y192917
X303333Y151667
X228333Y232917
X240833Y246667
X218333Y262917
X202083Y270417
X212083Y286667
X223333Y285417
X247083Y267917
X263333Y250417
X297083Y276667
X298333Y284167
X287083Y289167
X313333Y276667
X314583Y267917
X309583Y266667
X443333Y219167
X458333Y215417
X205833Y66667
X190833Y61667
X194333Y48667
X197083Y80417
X165833Y91667
X141333Y74667
X131333Y64667
X131833Y14667
X198333Y112917
X163333Y165417
X177083Y176667
X165833Y186667
X138333Y185417
X158333Y214167
X162083Y222917
X170833Y226667
X145833Y232917
X145833Y254167
X132333Y266167
X138333Y287917
X148333Y297917
X153333Y306667
X154833Y270667
X163333Y269167
X100833Y286667
T03
X288833Y174667
X298833Y174667
X308833Y174667
X318833Y174667
X328833Y174667
X338833Y174667
X348833Y174667
X358833Y174667
X368833Y174667
X378833Y174667
X388833Y174667
X398833Y174667
X408833Y174667
X418833Y174667
X418833Y144667
X408833Y144667
X398833Y144667
X388833Y144667
X378833Y144667
X368833Y144667
X358833Y144667
X348833Y144667
X338833Y144667
X328833Y144667
X318833Y144667
X308833Y144667
X298833Y144667
X288833Y144667
X338333Y104667
X343333Y97167
X348333Y104667
X296833Y83167
X286833Y83167
T04
X110833Y287005
X110833Y304328
T05
X111833Y257667
X101833Y257667
X131333Y233667
X131333Y223667
X131333Y213667
T06
X93522Y30667
X105333Y11769
X117538Y30667
T07
X106933Y59867
X106933Y81467
X106433Y98867
X106433Y120467
X106433Y139867
X130333Y137167
X130333Y147167
X130333Y157167
X130333Y167167
X130333Y177167
X106433Y161467
X105933Y180367
X105933Y201967
X105933Y217867
X105933Y239467
X173333Y155667
X183333Y155667
X193333Y155667
X193333Y145667
X183333Y145667
X173333Y145667
X171033Y124567
X171033Y106767
X196633Y106767
X196633Y124567
X281833Y14167
X291833Y14167
X301833Y14167
X316333Y14167
X326333Y14167
X336333Y14167
X346333Y14167
X356333Y14167
X366333Y14167
X376333Y14167
X386333Y14167
X401833Y14167
X411833Y14167
X421833Y14167
X431833Y14167
X441833Y14167
X451833Y14167
X468333Y65167
X468333Y75167
X468333Y85167
X468333Y95167
X468333Y105167
X468333Y115167
X468333Y125167
X468333Y135167
X468333Y145167
X468333Y155167
X468333Y165167
X468333Y175167
X468333Y185167
X468333Y195167
X468333Y205167
X468333Y215167
X443333Y131667
X443333Y121667
X443333Y111667
X443333Y101667
X443333Y91667
X443333Y81667
X443333Y71667
X340333Y56167
X322333Y56167
X322333Y311167
X312333Y311167
X302333Y311167
X292333Y311167
X282333Y311167
X269333Y311167
X259333Y311167
X249333Y311167
X239333Y311167
X229333Y311167
X332333Y311167
X342333Y311167
X352333Y311167
X362333Y311167
X372333Y311167
X386333Y311667
X396333Y311667
X406333Y311667
X416333Y311667
X426333Y311667
X436333Y311667
X446333Y311667
X456333Y311667
T08
X405833Y215167
X405833Y195167
X445833Y205167
X268333Y82667
X248333Y82667
X258333Y42667
M30
